<svg version="1.2" xmlns="http://www.w3.org/2000/svg" viewBox="0 0 512 512" width="512" height="512">
	<style>
		.s0 { fill: #a0a6cb } 
		.s1 { fill: #ffffff } 
	</style>
	<g id="Background">
		<path id="Path 0" class="s0" d="m129.91 16.51c-0.23 0.27-2.66 0.75-5.41 1.08-2.75 0.32-7.47 1.25-10.5 2.06-3.03 0.82-5.95 1.61-6.5 1.76-0.55 0.15-2.35 0.63-4 1.07-1.65 0.44-3.45 1.18-4 1.64-0.55 0.46-2.35 1.1-4 1.42-1.65 0.32-3.11 1-3.25 1.52-0.14 0.52-1.04 0.94-2 0.94-0.96 0-4.34 1.58-7.5 3.5-3.16 1.93-6.2 3.5-6.75 3.5-0.55 0-0.99 0.56-0.97 1.25 0.01 0.69-0.32 0.91-0.75 0.5-0.43-0.41-1.34 0.15-2.03 1.25-0.69 1.1-1.81 2-2.5 1.99-0.69-0.01-2.74 1.23-4.55 2.75-1.82 1.52-6.77 6.13-11.01 10.26-4.23 4.12-9.26 9.75-11.17 12.5-1.9 2.75-4.2 5.9-5.09 7-0.9 1.1-3.17 4.92-5.03 8.5-1.87 3.58-3.65 6.72-3.95 7-0.31 0.28-1.6 2.97-2.88 6-1.28 3.03-3.39 8.87-4.69 13-1.3 4.12-2.62 9.3-2.94 11.5-0.32 2.2-0.85 5.35-1.19 7-0.34 1.65-0.61 60.38-0.6 130.5 0.01 70.13 0.37 129.75 0.79 132.5 0.42 2.75 1.42 7.25 2.21 10 0.79 2.75 1.88 6.8 2.43 9 0.54 2.2 1.62 5.35 2.38 7 0.77 1.65 1.88 4.12 2.47 5.5 0.58 1.37 1.52 3.29 2.07 4.25 0.55 0.96 1.43 2.54 1.95 3.5 0.52 0.96 2.15 4 3.63 6.75 1.47 2.75 4.08 6.8 5.79 9 1.72 2.2 4.47 5.52 6.12 7.39 1.66 1.86 4.19 4.56 5.63 6 1.44 1.43 4.81 4.65 7.5 7.15 2.68 2.49 6.46 5.62 8.38 6.95 1.92 1.33 3.72 2.68 4 3.01 0.28 0.32 2.3 1.64 4.5 2.93 2.2 1.28 6.81 3.85 10.25 5.7 3.44 1.85 6.23 3.03 6.21 2.62-0.03-0.41 0.53-0.24 1.25 0.38 0.71 0.63 2.75 1.42 4.54 1.75 1.79 0.34 3.24 1.18 3.22 1.87-0.01 0.69 0.32 0.94 0.75 0.55 0.43-0.38 2.58-0.02 4.78 0.8 2.2 0.82 6.92 2.14 10.5 2.93 3.58 0.8 7.4 1.52 8.5 1.61 1.1 0.09 60.28 0.2 131.5 0.26l129.5 0.1c13.18-3.64 19.48-5.58 22.5-6.67 3.02-1.09 6.18-2.25 7-2.57 0.82-0.32 1.73-0.65 2-0.73 0.27-0.08 2.75-1.22 5.5-2.53 2.75-1.31 5.33-2.86 5.73-3.44 0.46-0.66 0.75-0.68 0.77-0.06q0.03 1 0.77 0c0.4-0.55 2.3-1.86 4.23-2.92 1.93-1.05 4.87-3.07 6.55-4.5 1.68-1.42 4.61-3.69 6.5-5.05 1.9-1.36 6.49-5.52 10.2-9.25 3.71-3.73 6.75-7.12 6.75-7.53-0.01-0.41 0.89-1.31 2-2 1.1-0.69 1.99-1.81 1.97-2.5-0.01-0.69 1.13-2.38 2.53-3.75 1.4-1.38 2.54-2.84 2.53-3.25-0.02-0.41 1.55-3.11 3.48-6 1.93-2.89 4.02-6.82 4.65-8.75 0.63-1.93 1.7-4.4 2.38-5.5 0.68-1.1 1.83-3.8 2.56-6 0.72-2.2 1.37-4.23 1.44-4.5 0.07-0.27 0.46-1.85 0.88-3.5 0.41-1.65 1.72-6.15 2.91-10l2.17-7c-0.17-200.72-0.28-260.13-0.35-261.5-0.08-1.38-0.88-4.97-1.79-8-0.91-3.03-1.74-6.17-1.86-7-0.12-0.83-0.56-2.85-0.99-4.5-0.43-1.65-1.11-3.45-1.51-4-0.4-0.55-1.05-2.35-1.46-4-0.4-1.65-2.6-6.75-4.89-11.33-2.28-4.58-4.83-9.55-5.65-11.04-0.82-1.49-3.52-5.39-5.99-8.67-2.46-3.28-8.65-10.12-13.75-15.21-5.09-5.09-9.71-9.25-10.26-9.25-0.55 0-2.24-1.16-3.75-2.57-1.51-1.41-4.32-3.45-6.25-4.52-1.93-1.08-4.96-2.85-6.75-3.94-1.79-1.08-3.26-1.63-3.27-1.22 0 0.41-0.34 0.3-0.75-0.25-0.4-0.55-2.19-1.79-3.98-2.75-1.79-0.96-4.15-1.75-5.25-1.75-1.1 0-2.56-0.61-3.25-1.35-0.69-0.75-3.16-1.65-5.5-2-2.34-0.36-4.25-0.99-4.25-1.4 0-0.41-0.56-0.79-1.25-0.84-0.69-0.04-3.5-0.6-6.25-1.24-2.75-0.64-6.8-1.47-9-1.84-2.2-0.38-60.97-0.83-130.59-1-69.62-0.18-126.77-0.1-127 0.18z"/>
		<path id="Path 1" class="s1" d="m48 255.5v102.5c107.11-0.64 109.94-0.75 119.5-2.89 5.5-1.22 13.6-3.67 18-5.42 4.4-1.76 11.57-5.22 15.93-7.69 4.77-2.71 11.49-7.89 16.87-13 5.2-4.95 11.12-11.85 14.15-16.5 2.87-4.4 6.59-11.15 8.26-15 1.68-3.85 4.1-11.05 5.39-16 2.02-7.74 2.35-11.39 2.35-26 0-14.54-0.34-18.3-2.33-26-1.27-4.95-3.98-12.6-6.02-17-2.03-4.4-6.14-11.55-9.15-15.89-3-4.34-8.38-10.64-11.96-14-3.58-3.36-8.98-7.76-12-9.77-3.02-2.01-9.77-5.71-14.99-8.23-5.22-2.52-13.78-5.7-19-7.07-5.22-1.37-13.55-2.94-18.5-3.5-4.95-0.57-30.94-1.03-57.75-1.03l-48.75-0.01zm242 0v102.5h38v-60h54l41.5 59.98c31.39 0.02 40.5-0.21 40.5-0.48 0-0.27-10.34-15.24-22.97-33.25-12.63-18.01-22.98-33.09-23-33.5-0.02-0.41 0.98-0.95 2.22-1.19 1.24-0.24 5.62-2.64 9.75-5.33 4.12-2.69 10.15-7.78 13.4-11.31 3.24-3.53 7.18-8.67 8.76-11.42 1.57-2.75 4.06-8.6 5.54-13 2.37-7.1 2.68-9.58 2.74-22 0.04-8.6-0.46-16.12-1.29-19.5-0.75-3.03-3.17-9.32-5.4-14-3.12-6.57-5.66-10.11-11.14-15.58-3.91-3.89-10.48-9.06-14.61-11.48-4.13-2.43-11.1-5.61-15.5-7.09-4.4-1.47-12.73-3.38-18.5-4.25-8.41-1.27-19.79-1.58-57.25-1.59l-46.75-0.01z"/>
		<path id="Path 2" class="s0" d="m86 255.5v70.5c39.91-0.03 55.78-0.49 61-1.05 5.37-0.57 13.3-2.3 18.25-3.98 4.81-1.63 11.56-4.73 15-6.87 3.44-2.15 8.95-6.77 12.25-10.27 3.3-3.5 7.63-9.51 9.63-13.35 1.99-3.84 4.34-9.23 5.21-11.98 0.88-2.75 2.07-8.82 2.65-13.5 0.72-5.91 0.73-11.4 0.01-18-0.57-5.22-1.76-11.75-2.64-14.5-0.89-2.75-3.24-8.15-5.23-12-2.27-4.4-6.22-9.64-10.62-14.09-3.94-3.99-9.86-8.67-13.51-10.69-3.57-1.98-9.88-4.7-14-6.05-4.13-1.36-11.89-2.96-17.25-3.57-5.36-0.6-21.22-1.1-35.25-1.1h-25.5zm242.11-29.61l-0.11 41.11c52.91-0.72 59.65-1.12 64.5-2.5 3.3-0.94 8.02-2.75 10.5-4.02 2.48-1.27 6.5-4.26 8.94-6.65 2.44-2.38 5.48-6.58 6.75-9.33 1.27-2.75 2.82-7.93 3.45-11.5 0.87-4.89 0.87-8.29 0.01-13.75-0.63-3.99-2.28-9.5-3.65-12.25-1.38-2.75-4.23-6.69-6.35-8.75-2.12-2.06-6.06-4.96-8.75-6.44-2.7-1.48-7.83-3.44-11.4-4.36-5.04-1.3-12.92-1.79-35.14-2.17l-28.64-0.5z"/>
	</g>
</svg>