<svg version="1.2" xmlns="http://www.w3.org/2000/svg" viewBox="0 0 200 204" width="200" height="204">
	<style>
		.s0 { fill: #222222 } 
		.s1 { fill: #c6a667 } 
		.s2 { fill: #eeeeee } 
		.s3 { fill: #020202 } 
		.s4 { fill: #9c27b0 } 
	</style>
	<g id="layer1">
		<g id="g5175">
			<path id="rect5163" fill-rule="evenodd" class="s0" d="m15 3.78h170c8.28 0 15 6.72 15 15v170c0 8.28-6.72 15-15 15h-170c-8.28 0-15-6.72-15-15v-170c0-8.28 6.72-15 15-15z"/>
			<path id="rect5165" fill-rule="evenodd" class="s1" d="m20 13.78h160c5.52 0 10 4.48 10 10v160c0 5.52-4.48 10-10 10h-160c-5.52 0-10-4.48-10-10v-160c0-5.52 4.48-10 10-10z"/>
			<path id="rect5205-3-6" class="s0" d="m5.5 143.78v31.5c0 11.63 9.37 21 21 21h147c11.63 0 21-9.37 21-21v-31.5z"/>
			<path id="ARISTOCRATIC" class="s2" aria-label="ARISTOCRATIC"  d="m10.1 175h-3.2l7.6-17h3.1l7.7 17h-3.3l-6.6-15.3h1.3zm11.1-3.9h-10.8l0.8-2.5h9.2zm9.1 3.9h-3.1v-16.9h6.9q3.4 0 5.3 1.6 2 1.6 2 4.4 0 1.9-0.9 3.2-0.9 1.4-2.5 2.1-1.6 0.7-3.9 0.7h-5.2l1.4-1.4zm11.4 0h-3.4l-4.3-6.2h3.3zm-11.3-15.8v9.8l-1.4-1.5h5.1q2.1 0 3.1-0.9 1.1-0.9 1.1-2.5 0-1.6-1.1-2.5-1-0.9-3.1-0.9h-5.1zm18 15.9h-3.1v-17h3.1zm10.1 0.2q-2 0-3.8-0.5-1.8-0.6-2.9-1.5l1.1-2.4q1 0.8 2.5 1.3 1.5 0.5 3.1 0.5 1.3 0 2.2-0.3 0.8-0.3 1.1-0.8 0.5-0.5 0.5-1.1 0-0.8-0.6-1.2-0.5-0.5-1.5-0.8-0.8-0.3-1.9-0.5-1.1-0.2-2.2-0.6-1-0.3-1.9-0.8-0.9-0.6-1.5-1.4-0.5-0.9-0.5-2.2 0-1.4 0.7-2.6 0.8-1.1 2.3-1.8 1.5-0.7 3.8-0.7 1.5 0 3 0.4 1.5 0.4 2.7 1.1l-1 2.4q-1.2-0.7-2.4-1-1.2-0.3-2.3-0.3-1.3 0-2.1 0.3-0.9 0.3-1.2 0.9-0.4 0.5-0.4 1.1 0 0.8 0.5 1.3 0.6 0.4 1.5 0.7 0.9 0.3 2 0.5 1 0.3 2.1 0.6 1.1 0.3 2 0.8 0.9 0.5 1.4 1.4 0.6 0.9 0.6 2.2 0 1.3-0.8 2.5-0.7 1.1-2.3 1.9-1.5 0.6-3.8 0.6zm16.3-0.2h-3.1v-14.3h-5.6v-2.7h14.3v2.7h-5.6zm15.4 0.2q-2 0-3.7-0.6-1.6-0.7-2.9-1.8-1.2-1.2-1.9-2.8-0.7-1.6-0.7-3.5 0-1.9 0.7-3.5 0.7-1.5 1.9-2.7 1.3-1.2 2.9-1.9 1.7-0.6 3.7-0.6 2 0 3.6 0.6 1.7 0.7 2.9 1.9 1.2 1.1 1.9 2.7 0.7 1.6 0.7 3.5 0 1.9-0.7 3.5-0.7 1.6-1.9 2.8-1.2 1.1-2.9 1.8-1.6 0.6-3.6 0.6zm0-2.7q1.3 0 2.3-0.4 1.1-0.5 1.9-1.3 0.8-0.8 1.3-1.9 0.4-1.1 0.4-2.4 0-1.3-0.4-2.4-0.5-1.1-1.3-1.9-0.8-0.8-1.9-1.2-1-0.5-2.3-0.5-1.3 0-2.4 0.5-1.1 0.4-1.9 1.2-0.8 0.8-1.3 1.9-0.4 1.1-0.4 2.4 0 1.3 0.4 2.4 0.5 1.1 1.3 1.9 0.8 0.8 1.9 1.3 1.1 0.4 2.4 0.4zm20.9 2.7q-2 0-3.6-0.6-1.7-0.7-2.9-1.8-1.2-1.2-1.9-2.8-0.7-1.6-0.7-3.5 0-1.9 0.7-3.5 0.7-1.6 1.9-2.7 1.2-1.2 2.9-1.9 1.7-0.6 3.6-0.6 2.1 0 3.8 0.7 1.7 0.7 2.9 2.1l-2 1.9q-0.9-1-2.1-1.4-1.1-0.6-2.4-0.6-1.4 0-2.5 0.5-1.1 0.4-1.9 1.2-0.8 0.8-1.3 1.9-0.4 1.1-0.4 2.4 0 1.3 0.4 2.4 0.5 1.1 1.3 1.9 0.8 0.8 1.9 1.3 1.1 0.4 2.5 0.4 1.3 0 2.4-0.5 1.2-0.5 2.1-1.6l2 2q-1.2 1.4-2.9 2.1-1.7 0.7-3.8 0.7zm12.3-0.2h-3.1v-17h6.9q3.4 0 5.3 1.6 1.9 1.6 1.9 4.5 0 1.8-0.9 3.2-0.8 1.3-2.4 2-1.6 0.7-3.9 0.7h-5.2l1.4-1.4zm11.3 0h-3.4l-4.3-6.1h3.4zm-11.3-15.9v9.8l-1.4-1.5h5.1q2 0 3.1-0.9 1-0.9 1-2.5 0-1.6-1-2.4-1.1-0.9-3.1-0.9h-5.1zm15.7 15.8h-3.3l7.6-17h3.2l7.6 17h-3.3l-6.6-15.3h1.3zm11.2-3.9h-10.9l0.8-2.5h9.2zm11.6 3.9h-3.2v-14.3h-5.6v-2.6h14.4v2.6h-5.6zm11.6 0h-3.2v-16.9h3.2zm11.7 0.2q-2 0-3.7-0.6-1.6-0.7-2.8-1.8-1.3-1.2-2-2.8-0.6-1.6-0.6-3.5 0-1.9 0.6-3.5 0.7-1.6 2-2.8 1.2-1.1 2.9-1.8 1.6-0.6 3.6-0.6 2.1 0 3.8 0.7 1.7 0.7 2.9 2.1l-2 1.9q-1-1-2.1-1.5-1.1-0.5-2.5-0.5-1.3 0-2.4 0.5-1.1 0.4-1.9 1.2-0.8 0.8-1.3 1.9-0.4 1.1-0.4 2.4 0 1.3 0.4 2.4 0.5 1.1 1.3 1.9 0.8 0.8 1.9 1.2 1.1 0.5 2.4 0.5 1.4 0 2.5-0.5 1.1-0.5 2.1-1.6l2 2q-1.2 1.4-2.9 2.1-1.7 0.7-3.8 0.7z"/>
			<path id="Path 0" fill-rule="evenodd" class="s3" d="m69.22 15.09c0.13-0.01 0.24 0.01 0.24 0.03 0 0.03-0.48 0.37-1.07 0.76-0.58 0.4-1.46 1.03-1.94 1.41-0.48 0.38-1.18 0.95-1.55 1.27-0.38 0.31-1.3 1.18-2.04 1.93-0.75 0.74-1.78 1.84-2.29 2.44-0.51 0.6-1.32 1.62-1.8 2.27-0.49 0.64-1.18 1.63-1.54 2.18-0.36 0.55-0.94 1.49-1.29 2.09-0.36 0.6-0.94 1.68-1.31 2.4-0.36 0.72-0.81 1.64-0.99 2.05-0.19 0.41-0.6 1.37-0.91 2.14-0.31 0.76-0.85 2.26-1.2 3.31-0.36 1.06-0.88 2.84-1.17 3.97-0.28 1.13-0.66 2.82-0.83 3.75-0.17 0.94-0.39 2.27-0.48 2.97q-0.14 1.03-0.31 2.73l0.22-0.07c0.12-0.04 0.59-0.2 1.05-0.37 0.45-0.17 1.39-0.59 2.09-0.93 0.7-0.35 1.7-0.88 2.22-1.19 0.53-0.3 2.12-1.25 3.54-2.09 1.41-0.85 3.12-1.86 3.79-2.25 0.67-0.39 1.89-1.06 2.71-1.5 0.81-0.44 2.24-1.18 3.18-1.64 0.93-0.45 2.11-1 2.62-1.2 0.5-0.21 1.4-0.53 2-0.73 0.6-0.19 1.49-0.45 1.97-0.57 0.48-0.12 1.28-0.29 1.78-0.39 0.51-0.09 1.47-0.24 2.14-0.33 0.94-0.12 1.83-0.15 3.84-0.15 1.97 0 2.94 0.04 3.92 0.15 0.72 0.09 1.86 0.25 2.53 0.36 0.68 0.12 1.7 0.31 2.27 0.44 0.58 0.13 1.62 0.39 2.31 0.58 0.7 0.19 1.9 0.56 2.66 0.81 0.77 0.26 1.81 0.63 2.32 0.82 0.5 0.19 1.46 0.58 2.13 0.87 0.67 0.28 1.5 0.62 1.83 0.74 0.34 0.13 0.99 0.35 1.44 0.49 0.46 0.14 1.34 0.35 1.97 0.48 0.62 0.12 1.46 0.26 1.87 0.31 0.41 0.05 1.33 0.12 2.05 0.15 0.75 0.03 1.83 0.01 2.53-0.05 0.67-0.06 1.67-0.18 2.23-0.27 0.55-0.1 1.47-0.3 2.05-0.44 0.57-0.15 1.4-0.4 1.83-0.56 0.43-0.16 1.31-0.51 1.96-0.79 0.65-0.27 1.65-0.67 2.22-0.89 0.58-0.22 1.5-0.55 2.05-0.74 0.56-0.18 1.46-0.47 2.01-0.63 0.55-0.17 1.48-0.42 2.05-0.56 0.58-0.15 1.54-0.36 2.14-0.48 0.6-0.12 1.62-0.3 2.27-0.4 0.64-0.09 1.66-0.22 2.26-0.28 0.61-0.07 2.12-0.11 3.41-0.11 1.62 0 2.69 0.05 3.57 0.15 0.7 0.09 1.7 0.23 2.23 0.33 0.52 0.1 1.43 0.3 2 0.44 0.58 0.15 1.46 0.4 1.97 0.57 0.5 0.17 1.3 0.47 1.78 0.66 0.48 0.19 1.68 0.73 2.66 1.21 0.99 0.48 2.46 1.23 3.28 1.67 0.81 0.43 2.09 1.14 2.83 1.57 0.74 0.43 1.92 1.13 2.62 1.55 0.69 0.41 1.81 1.09 2.48 1.49 0.68 0.41 1.5 0.9 1.84 1.1 0.33 0.19 0.88 0.5 1.22 0.68 0.33 0.19 0.98 0.52 1.44 0.75 0.45 0.22 1.06 0.5 1.35 0.62 0.29 0.12 0.84 0.32 1.22 0.44 0.38 0.12 1.01 0.29 1.39 0.37 0.45 0.1 1.11 0.15 1.84 0.16 0.77 0 1.37-0.05 1.87-0.16 0.41-0.08 1.08-0.27 1.49-0.41 0.4-0.15 1.15-0.47 1.65-0.73 0.51-0.25 1.41-0.78 2.01-1.18 0.6-0.41 1.58-1.13 2.18-1.62 0.6-0.49 1.38-1.15 1.74-1.47 0.36-0.32 1.2-1.11 1.86-1.75 0.66-0.65 1.2-1.14 1.2-1.11 0 0.04-0.14 0.6-0.32 1.25-0.17 0.64-0.54 1.92-0.82 2.83-0.28 0.91-0.73 2.29-0.99 3.06-0.26 0.76-0.66 1.88-0.88 2.48-0.22 0.6-0.7 1.8-1.05 2.66-0.35 0.87-0.87 2.1-1.15 2.75-0.29 0.65-0.69 1.55-0.9 2.01-0.21 0.45-0.84 1.73-1.4 2.83-0.56 1.1-1.28 2.48-1.61 3.05-0.33 0.58-0.85 1.48-1.16 2.01-0.31 0.53-0.74 1.23-0.96 1.57-0.21 0.34-0.79 1.22-1.28 1.96-0.49 0.75-1.18 1.75-1.53 2.23-0.36 0.48-1.09 1.44-1.65 2.13-0.55 0.7-1.26 1.56-1.57 1.92-0.31 0.36-0.72 0.83-0.92 1.05-0.19 0.22-0.88 0.94-1.53 1.6-0.64 0.67-1.7 1.68-2.35 2.26-0.65 0.57-1.26 1.11-1.35 1.19-0.1 0.08-0.55 0.45-1.01 0.81-0.45 0.36-1.28 0.97-1.83 1.36-0.55 0.38-1.43 0.97-1.96 1.3-0.53 0.34-1.51 0.91-2.18 1.27-0.67 0.37-1.68 0.87-2.23 1.12-0.55 0.25-1.39 0.61-1.87 0.8-0.48 0.19-1.4 0.52-2.05 0.73-0.65 0.22-1.79 0.55-2.53 0.73-0.75 0.19-1.92 0.45-2.62 0.57-0.69 0.12-1.79 0.27-2.44 0.34-0.65 0.07-2.06 0.18-3.14 0.23-1.16 0.06-2.81 0.08-4.01 0.05-1.13-0.03-2.62-0.11-3.32-0.19-0.69-0.07-1.83-0.23-2.53-0.35-0.69-0.12-1.64-0.31-2.09-0.43-0.46-0.12-1.22-0.35-1.7-0.51-0.48-0.16-1.17-0.42-1.53-0.56-0.36-0.14-0.83-0.35-1.05-0.46-0.21-0.11-0.66-0.36-1-0.55-0.34-0.19-0.98-0.59-1.44-0.89-0.45-0.3-1.2-0.86-1.66-1.24-0.45-0.38-1.45-1.33-2.22-2.11-0.77-0.77-1.73-1.68-2.14-2-0.41-0.33-0.99-0.76-1.31-0.97-0.31-0.21-0.92-0.55-1.35-0.76-0.43-0.2-1.1-0.46-1.48-0.56-0.54-0.14-0.96-0.18-1.88-0.19-0.86 0-1.32 0.04-1.74 0.15-0.31 0.09-0.63 0.16-0.7 0.17-0.07 0.01-0.15 0.03-0.17 0.06-0.03 0.03-0.26 0.14-0.53 0.25-0.26 0.11-0.73 0.35-1.04 0.53-0.32 0.18-0.9 0.58-1.31 0.88-0.41 0.3-1.59 1.38-2.62 2.39-1.03 1.01-2.19 2.09-2.57 2.4-0.39 0.3-1.11 0.83-1.62 1.16-0.5 0.33-1.4 0.85-2 1.15-0.6 0.3-1.58 0.73-2.18 0.94-0.6 0.22-1.54 0.52-2.1 0.66-0.55 0.15-1.43 0.35-1.96 0.45-0.53 0.09-1.43 0.23-2.01 0.3-0.57 0.07-1.79 0.17-2.7 0.23-1.03 0.07-2.48 0.09-3.84 0.05-1.2-0.03-2.71-0.09-3.36-0.14-0.64-0.05-1.64-0.16-2.22-0.23-0.58-0.07-1.64-0.25-2.36-0.39-0.72-0.14-1.93-0.42-2.7-0.64-0.77-0.21-1.91-0.57-2.53-0.79-0.62-0.23-1.51-0.57-1.96-0.76-0.46-0.2-1.34-0.6-1.97-0.91-0.62-0.3-1.62-0.83-2.22-1.17-0.6-0.35-1.58-0.96-2.18-1.36-0.6-0.39-1.35-0.9-1.66-1.13-0.31-0.22-1.04-0.79-1.61-1.25-0.57-0.46-1.23-1.01-1.46-1.23-0.23-0.21-0.43-0.38-0.44-0.37-0.01 0.01-0.69-0.64-1.5-1.44q-1.23-1.19-3.06-3.18l-0.08 62.61-0.25 0.52c-0.14 0.29-0.38 0.65-0.55 0.81-0.16 0.15-0.48 0.36-0.71 0.47-0.23 0.1-0.59 0.2-0.81 0.22-0.23 0.03-0.59-0.01-0.87-0.09-0.26-0.07-0.65-0.27-0.87-0.43-0.27-0.2-0.48-0.47-0.96-1.42l0.01-69.43-0.52-0.79c-0.28-0.43-0.78-1.21-1.1-1.74-0.33-0.53-0.88-1.45-1.22-2.05-0.35-0.6-0.87-1.55-1.71-3.14l-0.37 0.16c-0.2 0.09-0.68 0.26-1.06 0.39-0.39 0.13-1.1 0.31-1.57 0.41-0.48 0.1-1.31 0.21-2.8 0.28l0.67-0.69c0.36-0.37 0.8-0.88 0.97-1.12 0.17-0.24 0.43-0.69 0.58-1 0.15-0.31 0.32-0.8 0.37-1.09 0.08-0.4 0.08-0.64 0-1-0.05-0.27-0.16-0.57-0.36-0.88l-0.15 0.2c-0.08 0.11-0.32 0.41-0.54 0.68-0.21 0.26-0.79 0.88-1.29 1.37-0.5 0.49-1.22 1.1-1.62 1.36-0.4 0.26-0.89 0.55-1.09 0.66-0.2 0.1-0.71 0.28-1.13 0.4-0.54 0.16-0.98 0.22-1.47 0.22-0.38 0-0.91-0.04-1.17-0.09-0.27-0.05-0.74-0.21-1.05-0.36-0.5-0.24-0.55-0.28-0.41-0.37 0.09-0.05 0.37-0.24 0.61-0.4 0.25-0.18 0.61-0.54 0.82-0.85 0.21-0.3 0.44-0.77 0.52-1.05 0.09-0.3 0.15-0.8 0.15-1.24 0-0.41-0.05-0.96-0.11-1.22-0.05-0.27-0.14-0.54-0.18-0.62-0.07-0.1-0.13-0.08-0.37 0.14-0.16 0.15-0.41 0.35-0.55 0.45-0.14 0.1-0.44 0.28-0.65 0.4-0.22 0.12-0.67 0.31-1.01 0.43-0.33 0.13-0.94 0.27-1.35 0.33-0.47 0.07-1.13 0.09-1.79 0.06-0.57-0.03-1.32-0.11-1.66-0.19-0.33-0.07-1.04-0.27-1.57-0.44-0.52-0.18-1.5-0.58-2.18-0.91-0.67-0.33-1.3-0.66-1.39-0.74-0.17-0.13-0.15-0.14 0.26-0.07 0.24 0.03 0.85 0.07 1.35 0.07 0.51 0 1.11-0.06 1.35-0.13 0.24-0.06 0.68-0.25 0.96-0.4 0.29-0.16 0.71-0.48 0.93-0.71 0.22-0.23 0.48-0.56 0.58-0.73 0.11-0.17 0.19-0.34 0.19-0.39 0.01-0.05-0.34-0.18-0.76-0.3-0.42-0.11-1.02-0.32-1.33-0.45-0.31-0.13-0.82-0.38-1.13-0.56-0.31-0.18-0.84-0.51-1.18-0.74-0.34-0.24-1-0.78-1.48-1.2-0.48-0.43-1.14-1.07-1.45-1.42-0.32-0.36-0.91-1.06-1.31-1.57-0.4-0.5-1.03-1.36-1.4-1.92-0.37-0.55-0.93-1.45-1.25-2-0.32-0.55-0.87-1.59-1.22-2.31-0.35-0.72-0.82-1.8-1.05-2.4-0.22-0.6-0.46-1.33-0.53-1.62-0.07-0.28-0.12-0.53-0.1-0.54 0.01 0 0.69 0.64 1.5 1.44 0.82 0.8 1.65 1.6 1.84 1.76 0.19 0.17 0.54 0.46 0.78 0.65 0.24 0.19 0.46 0.37 0.48 0.4 0.02 0.03 0.49 0.4 1.05 0.8 0.55 0.41 1.41 1.02 1.92 1.36 0.5 0.33 1.34 0.86 1.87 1.17 0.53 0.31 1.37 0.79 1.88 1.05 0.5 0.27 1.42 0.73 2.05 1.01 0.62 0.29 1.68 0.74 2.35 1 0.67 0.27 1.81 0.68 2.53 0.92 0.72 0.24 1.82 0.58 2.44 0.74 0.63 0.17 1.65 0.43 2.27 0.57q0.94 0.22 2.36 0.48l0.61-0.32c0.33-0.18 0.72-0.42 1.09-0.75l-0.35-1.14-0.42 0.07c-0.22 0.03-1.16 0.06-2.07 0.06-1.26 0-1.8-0.04-2.27-0.16-0.33-0.08-0.86-0.24-1.17-0.36-0.32-0.12-0.83-0.38-1.14-0.58-0.31-0.2-0.77-0.58-1.03-0.85-0.27-0.29-0.61-0.78-0.81-1.19-0.19-0.38-0.34-0.74-0.34-0.8 0-0.09 0.07-0.09 0.33-0.02 0.18 0.06 0.67 0.08 1.11 0.06 0.66-0.03 0.88-0.08 1.38-0.31q0.58-0.28 1.13-0.83c0.3-0.31 0.67-0.77 0.82-1.03 0.16-0.26 0.3-0.54 0.33-0.62 0.04-0.13-0.03-0.16-0.54-0.2-0.32-0.03-0.9-0.13-1.29-0.22-0.38-0.1-0.99-0.32-1.35-0.5-0.36-0.18-0.96-0.56-1.34-0.85-0.39-0.29-0.95-0.82-1.26-1.18-0.32-0.36-0.78-0.96-1.03-1.35-0.25-0.38-0.63-1.05-0.85-1.48-0.21-0.43-0.53-1.12-0.69-1.53-0.17-0.41-0.37-0.96-0.45-1.22-0.08-0.26-0.14-0.49-0.12-0.5 0.01-0.01 0.26 0.26 0.55 0.61 0.29 0.34 0.8 0.81 1.13 1.04 0.34 0.24 0.83 0.51 1.1 0.61 0.26 0.1 0.71 0.21 1 0.25 0.29 0.04 0.76 0.04 1.07-0.01 0.3-0.04 0.64-0.13 0.76-0.19 0.12-0.06 0.22-0.14 0.22-0.17 0-0.04-0.14-0.26-0.3-0.48-0.16-0.23-0.43-0.69-0.6-1.03-0.17-0.33-0.42-0.94-0.56-1.35-0.15-0.41-0.35-1.13-0.44-1.61-0.1-0.48-0.23-1.35-0.29-1.92-0.07-0.68-0.09-1.67-0.05-2.79 0.03-0.96 0.11-2.2 0.19-2.75 0.07-0.55 0.21-1.44 0.31-1.96 0.1-0.53 0.32-1.51 0.48-2.19 0.17-0.67 0.48-1.75 0.7-2.39 0.22-0.65 0.57-1.59 0.78-2.1 0.21-0.5 0.49-1.07 0.82-1.61v0.78c0.01 0.44 0.05 1.36 0.1 2.05 0.04 0.7 0.14 1.74 0.21 2.31 0.07 0.58 0.23 1.6 0.35 2.27 0.12 0.67 0.36 1.77 0.52 2.45 0.16 0.67 0.44 1.69 0.61 2.26 0.18 0.58 0.52 1.58 0.76 2.23 0.24 0.65 0.67 1.72 0.96 2.4 0.29 0.67 0.76 1.69 1.05 2.26 0.29 0.58 0.8 1.54 1.14 2.14 0.34 0.6 0.95 1.62 1.36 2.27 0.41 0.65 1.09 1.67 1.52 2.27 0.43 0.6 1.09 1.48 1.46 1.96 0.38 0.48 0.82 1.03 1.3 1.57l-0.16-0.48c-0.09-0.26-0.24-0.83-0.34-1.26-0.1-0.44-0.23-1.2-0.29-1.71-0.06-0.51-0.08-1.45-0.06-2.13 0.02-0.67 0.07-1.28 0.11-1.35 0.05-0.1 0.14-0.02 0.38 0.34 0.17 0.27 0.68 0.86 1.14 1.31 0.53 0.53 1.03 0.93 1.36 1.11 0.29 0.15 0.74 0.31 1.01 0.37 0.26 0.05 0.63 0.08 0.82 0.05 0.2-0.03 0.42-0.1 0.5-0.16 0.14-0.09 0.12-0.14-0.22-0.49-0.2-0.22-0.61-0.69-0.9-1.05-0.29-0.36-0.65-0.83-0.79-1.05-0.15-0.21-0.44-0.72-0.66-1.13-0.22-0.41-0.5-1.08-0.63-1.49-0.18-0.55-0.25-0.98-0.28-1.7-0.03-0.58 0-1.16 0.06-1.48 0.06-0.29 0.19-0.72 0.3-0.96 0.11-0.24 0.32-0.62 0.47-0.85 0.15-0.23 0.31-0.41 0.34-0.41 0.04 0 0.14 0.18 0.23 0.41 0.1 0.23 0.32 0.61 0.5 0.85 0.18 0.24 0.53 0.58 0.79 0.76 0.26 0.18 0.68 0.42 0.95 0.52 0.38 0.15 0.7 0.2 1.63 0.22 0.64 0.01 1.16 0.01 1.16-0.02 0-0.02-0.11-0.23-0.25-0.45-0.13-0.23-0.34-0.67-0.46-0.98-0.13-0.32-0.28-0.79-0.35-1.05-0.07-0.3-0.11-0.92-0.11-1.62 0.01-0.85 0.06-1.32 0.2-1.91 0.11-0.44 0.33-1.14 0.5-1.57 0.17-0.44 0.49-1.12 0.71-1.53 0.22-0.41 0.66-1.14 0.98-1.61 0.33-0.48 0.76-1.05 0.96-1.27 0.22-0.23 0.34-0.32 0.31-0.22-0.03 0.1-0.14 0.49-0.24 0.87-0.13 0.49-0.18 0.96-0.18 1.53 0 0.57 0.05 1 0.17 1.35 0.09 0.29 0.29 0.72 0.44 0.96 0.15 0.24 0.45 0.61 0.67 0.81 0.22 0.2 0.46 0.37 0.53 0.37q0.12-0.01 0.13-0.11c0-0.06 0.14-0.4 0.32-0.76 0.17-0.36 0.45-0.87 0.62-1.14 0.18-0.26 0.58-0.79 0.89-1.17 0.32-0.39 0.89-0.98 1.27-1.31 0.39-0.34 1.01-0.85 1.39-1.13 0.39-0.29 1.02-0.72 1.4-0.97 0.38-0.25 1.21-0.73 1.83-1.05 0.63-0.33 1.47-0.75 1.88-0.94 0.41-0.18 1.17-0.5 1.7-0.71 0.53-0.2 1.47-0.53 2.09-0.74 0.63-0.2 1.63-0.48 2.23-0.63 0.6-0.15 1.5-0.34 2-0.42 0.51-0.09 1.03-0.16 1.16-0.16zm2.99 44.59c-0.39 0.07-1.09 0.23-1.57 0.36-0.48 0.12-1.25 0.34-1.7 0.49-0.46 0.15-1.3 0.47-1.88 0.71-0.58 0.24-1.44 0.64-1.92 0.88-0.48 0.24-1.26 0.67-1.74 0.96-0.48 0.29-1.35 0.85-1.92 1.24-0.58 0.4-1.19 0.84-1.36 0.98l-0.3 0.26c0.41 0.52 1.05 1.21 1.7 1.86 0.65 0.65 1.59 1.52 2.09 1.92 0.51 0.41 1.19 0.94 1.53 1.18 0.34 0.24 0.98 0.67 1.44 0.95 0.46 0.28 1.28 0.73 1.83 1.01 0.55 0.28 1.34 0.64 1.75 0.81 0.4 0.17 1.25 0.46 1.87 0.66 0.63 0.19 1.63 0.45 2.23 0.57 0.6 0.12 1.42 0.25 1.83 0.3 0.41 0.05 1.19 0.11 1.74 0.14 0.55 0.03 1.59 0.01 2.31-0.04 0.72-0.05 1.8-0.17 2.4-0.27 0.6-0.09 1.54-0.29 2.1-0.43 0.55-0.14 1.47-0.42 2.05-0.62 0.57-0.2 1.38-0.51 1.78-0.69 0.41-0.18 1.12-0.51 1.57-0.74 0.46-0.22 1.01-0.51 1.23-0.63 0.21-0.12 0.84-0.52 1.39-0.88 0.55-0.35 1.39-0.93 1.85-1.27 0.47-0.34 0.85-0.66 0.86-0.71 0-0.05-0.42-0.54-0.94-1.09-0.52-0.55-1.2-1.24-1.51-1.53-0.31-0.29-0.82-0.75-1.13-1.01-0.31-0.27-0.94-0.76-1.4-1.1-0.45-0.34-1.2-0.85-1.65-1.13-0.46-0.29-1.3-0.76-1.88-1.05-0.57-0.29-1.5-0.7-2.05-0.92-0.55-0.22-1.41-0.52-1.92-0.66-0.5-0.15-1.31-0.35-1.79-0.45-0.48-0.1-1.34-0.24-1.92-0.31-0.63-0.08-1.71-0.12-2.74-0.12-0.94 0.01-2.12 0.06-2.62 0.12-0.5 0.07-1.23 0.18-1.61 0.25zm66.86 0.01c-0.41 0.08-1.12 0.25-1.57 0.37-0.46 0.12-1.3 0.39-1.88 0.6-0.57 0.2-1.4 0.54-1.83 0.74-0.43 0.21-1.14 0.57-1.57 0.81-0.43 0.24-1.24 0.74-1.79 1.12-0.55 0.37-1.28 0.89-1.61 1.16-0.34 0.27-0.97 0.81-1.4 1.2-0.43 0.4-1.18 1.15-1.68 1.68-0.49 0.53-0.95 1.05-1.02 1.16-0.13 0.19-0.11 0.21 0.72 0.83 0.47 0.35 1.24 0.89 1.72 1.21 0.48 0.31 1.38 0.85 2.01 1.19 0.62 0.35 1.62 0.84 2.22 1.1 0.6 0.26 1.5 0.61 2.01 0.79 0.5 0.17 1.44 0.45 2.09 0.61 0.65 0.16 1.57 0.36 2.05 0.43 0.48 0.07 1.42 0.18 2.1 0.23 0.7 0.06 1.72 0.08 2.39 0.05 0.65-0.04 1.63-0.12 2.18-0.19 0.56-0.07 1.38-0.21 1.84-0.31 0.45-0.1 1.27-0.31 1.81-0.48 0.54-0.16 1.38-0.45 1.87-0.65 0.49-0.2 1.33-0.57 1.86-0.84 0.52-0.26 1.31-0.7 1.74-0.97 0.43-0.27 1.04-0.66 1.35-0.88 0.31-0.21 0.94-0.68 1.39-1.05 0.46-0.36 1.28-1.09 1.83-1.62 0.55-0.53 1.29-1.28 1.64-1.68l0.64-0.72q-0.45-0.38-0.66-0.55c-0.14-0.11-0.71-0.52-1.26-0.9-0.55-0.38-1.42-0.93-1.92-1.23-0.5-0.29-1.49-0.81-2.18-1.14-0.7-0.34-1.77-0.79-2.38-1.01-0.61-0.22-1.63-0.54-2.27-0.7-0.63-0.17-1.5-0.36-1.94-0.44-0.43-0.07-1.12-0.17-1.52-0.22-0.41-0.05-1.57-0.08-2.58-0.08-1 0.01-2.24 0.06-2.74 0.12-0.51 0.06-1.25 0.18-1.66 0.26z"/>
		</g>
		<g id="g5375">
			<path id="rect5363" fill-rule="evenodd" class="s0" d="m1515 255.78h170c8.28 0 15 6.72 15 15v170c0 8.28-6.72 15-15 15h-170c-8.28 0-15-6.72-15-15v-170c0-8.28 6.72-15 15-15z"/>
			<path id="rect5365" fill-rule="evenodd" class="s4" d="m1520 265.78h160c5.52 0 10 4.48 10 10v160c0 5.52-4.48 10-10 10h-160c-5.52 0-10-4.48-10-10v-160c0-5.52 4.48-10 10-10z"/>
			<path id="text5407" class="s0" d="m1581.67 281.83q-0.17 0.02-0.34 0.09-0.17 0.07-0.3 0.19-0.14 0.11-0.24 0.27-0.1 0.15-0.15 0.32 0 0 0 0.01 0 0 0 0 0 0 0 0 0 0.01 0 0.01c-3.99 0.56-7.76 3.03-11.19 8.52-3.6 5.86-6.31 14.28-8.39 24.76-9.8-3.39-18.33-5.29-25.22-5.17-7.25 0.12-12.3 1.98-14.56 5.95q0 0 0 0 0 0 0 0.01 0 0 0 0 0 0 0 0.01-1.17 2.14-1.17 4.8c0 3.18 1.17 6.73 3.38 10.71 3.27 6.05 9.13 12.53 16.95 19.39-7.94 6.99-13.87 13.51-17.14 19.51q0 0 0 0 0 0 0 0 0 0.01 0 0.01 0 0 0 0c-2.08 3.97-3.19 7.45-3.19 10.51q0 2.66 1.17 4.79 0 0.01 0 0.01 0 0 0 0 0 0.01 0 0.01 0 0 0 0c2.2 3.91 7.13 5.79 14.26 6.04q0 0 0 0 0 0 0.01 0 0 0 0 0 0 0 0.01 0c6.9 0.18 15.52-1.76 25.48-5.26 2.07 10.2 4.71 18.54 8.22 24.46q0 0 0 0.01 0 0 0 0 0 0 0 0 0 0.01 0 0.01c3.78 6.24 7.94 9.69 12.54 9.69 4.54 0 8.64-3.45 12.36-9.69q0 0 0-0.01 0 0 0 0 0 0 0 0 0-0.01 0-0.01c3.5-5.92 6.16-14.27 8.24-24.48 10.05 3.46 18.69 5.38 25.55 5.2 7.12-0.19 12.05-2.04 14.26-5.94v-0.02c0.85-1.42 1.27-3.09 1.27-4.92 0-3.06-1.1-6.5-3.18-10.41q0-0.01 0-0.01 0 0 0 0 0-0.01 0-0.01 0 0 0 0c-3.35-6.03-9.33-12.53-17.34-19.5 7.83-6.88 13.78-13.37 17.16-19.47h-0.02c2.21-3.91 3.38-7.41 3.38-10.54 0-1.82-0.42-3.49-1.27-4.92-2.28-3.97-7.33-5.81-14.63-5.93-6.88-0.13-15.42 1.78-25.24 5.15-2.08-10.47-4.77-18.88-8.37-24.74-3.72-6.05-7.75-9.41-12.17-9.41q-0.02 0-0.03 0-0.02 0-0.03 0-0.02 0-0.03 0-0.02 0-0.04 0zm0.13 7.09c1.13 0 2.32 0.51 3.65 1.75 1.32 1.24 2.72 3.21 4.12 5.9 2.62 4.95 4.72 12.37 6.34 21.68q-7.09 2.71-14.09 6.18c-4.8-2.32-9.57-4.36-14.32-6.18 1.63-9.31 3.73-16.73 6.34-21.68 1.41-2.69 2.81-4.66 4.17-5.9 1.35-1.24 2.57-1.75 3.79-1.75zm-45.79 28.31q1.03-0.01 2.18 0.04c5.65 0.29 12.99 2.18 21.59 5.33q-1.13 7.55-1.66 15.4-6.57 4.43-12.47 9.17c-7.09-5.87-12.42-11.29-15.5-16.08q0 0 0-0.01 0 0 0 0 0 0 0-0.01 0 0 0 0c-1.67-2.56-2.68-4.77-3.08-6.57-0.4-1.8-0.22-3.14 0.43-4.22q0 0 0 0 0 0 0-0.01 0.01 0 0.01 0 0 0 0-0.01c0.59-1.03 1.64-1.83 3.41-2.37q1.99-0.61 5.09-0.66zm91.49 0q3.1 0.05 5.11 0.66c1.77 0.54 2.85 1.34 3.47 2.37 0.62 1.08 0.81 2.42 0.39 4.22-0.41 1.81-1.45 4.03-3.12 6.59q0 0 0 0 0 0.01 0 0.01 0 0 0 0 0 0.01 0 0.01c-3.08 4.85-8.44 10.3-15.58 16.17q-5.9-4.75-12.47-9.19-0.54-7.92-1.76-15.47c8.6-3.15 15.99-5.04 21.76-5.33h0.01q1.16-0.05 2.19-0.04zm-30.51 7.89q0.51 4.02 0.85 8.16-1.99-1.22-3.98-2.48-0.01 0-0.01-0.01-0.01 0-0.02 0 0-0.01-0.01-0.01-0.01-0.01-0.01-0.01c-1.48-0.82-2.89-1.57-4.31-2.34q3.79-1.74 7.49-3.31zm-30.55 0.07q3.7 1.53 7.49 3.26c-1.4 0.77-2.8 1.52-4.23 2.34q0 0-0.01 0 0 0-0.01 0.01 0 0-0.01 0 0 0-0.01 0-2.06 1.27-4.09 2.5 0.36-4.14 0.87-8.11zm15.16 7.08q4.32 2.24 8.63 4.64 4.2 2.42 8.25 5 0.24 4.81 0.25 9.79-0.01 4.91-0.25 9.73-3.96 2.56-8.25 4.97-0.01 0-0.01 0.01 0 0 0 0-0.01 0-0.01 0.01 0 0 0 0c-2.81 1.66-5.63 3.21-8.43 4.71q-4.36-2.23-8.47-4.71 0 0-0.01 0-0.01-0.01-0.01-0.01-0.01 0-0.02 0 0-0.01-0.01-0.01-4.37-2.41-8.32-4.97-0.16-4.83-0.16-9.73 0-4.98 0.16-9.79 4.04-2.58 8.34-5 0 0 0 0 0 0 0.01 0 0 0 0 0 0 0 0.01 0 4.11-2.4 8.3-4.64zm0.2 11.23c-1.43 0-2.81 0.38-4.08 1.08-1.29 0.66-2.33 1.68-3.04 2.96q-1.08 1.93-1.08 4.16c0 1.43 0.37 2.82 1.08 4.09q0 0.01 0 0.01 0.01 0 0.01 0 0 0.01 0 0.01 0.01 0 0.01 0c0.72 1.23 1.75 2.22 3.02 2.93 1.27 0.7 2.65 1.07 4.08 1.07 1.37 0 2.72-0.37 3.98-1.07 1.28-0.71 2.31-1.7 3.03-2.93q0 0 0.01 0 0 0 0-0.01 0 0 0.01 0 0 0 0-0.01c0.71-1.27 1.08-2.66 1.08-4.09q-0.01-2.23-1.08-4.16c-0.71-1.29-1.75-2.3-3.05-2.96-1.26-0.7-2.61-1.08-3.98-1.08zm-24.07 3.33q-0.05 2.42-0.06 4.87 0.01 2.4 0.06 4.8c-2.29-1.58-4.53-3.17-6.66-4.8q3.2-2.49 6.66-4.87zm47.97 0q3.48 2.38 6.74 4.87c-2.17 1.64-4.43 3.22-6.74 4.8 0.06-1.6 0.13-3.2 0.13-4.8 0-1.64-0.07-3.25-0.13-4.87zm-60.12 9.32q5.97 4.75 12.54 9.19 0.53 7.83 1.66 15.37c-8.77 3.22-16.21 5.11-21.85 5.34q-4.53 0.16-7.14-0.66c-1.74-0.54-2.78-1.33-3.37-2.34-0.58-1.01-0.75-2.31-0.35-4.09 0.4-1.78 1.38-3.99 2.99-6.55q0.01-0.01 0.01-0.01 0 0 0 0 0.01 0 0.01-0.01 0 0 0 0c2.9-4.77 8.24-10.26 15.5-16.24zm72.26 0c7.26 5.99 12.64 11.48 15.6 16.26q0 0 0 0 0 0 0 0 0 0.01 0 0.01 0 0 0 0c1.64 2.57 2.65 4.77 3.05 6.54 0.4 1.77 0.22 3.07-0.39 4.07q0 0.01 0 0.01 0 0 0 0 0 0 0 0.01 0 0 0 0c-0.59 1.01-1.65 1.8-3.39 2.34q-2.61 0.82-7.13 0.66c-5.65-0.23-13.11-2.12-21.95-5.34q1.14-7.54 1.67-15.37 6.57-4.44 12.54-9.19zm-52.27 13.87c1.36 0.84 2.7 1.71 4.13 2.53 1.39 0.82 2.82 1.58 4.23 2.34q-3.79 1.74-7.51 3.31-0.5-4.03-0.85-8.18zm32.27 0.01q-0.34 4.15-0.85 8.17-3.7-1.57-7.49-3.31c1.42-0.77 2.83-1.52 4.31-2.34q0 0 0 0 0-0.01 0-0.01 0.01 0 0.01 0 0-0.01 0-0.01c1.38-0.81 2.7-1.66 4.02-2.5zm-16.24 8.86c4.75 2.33 9.53 4.39 14.33 6.27-1.57 9.09-3.64 16.42-6.27 21.5q0 0 0 0 0 0.01 0 0.01 0 0 0 0 0 0.01 0 0.01c-1.37 2.71-2.77 4.7-4.11 5.95-1.34 1.25-2.55 1.77-3.75 1.77-1.25 0-2.5-0.53-3.86-1.79q-2.07-1.88-4.18-5.95c-2.63-5.08-4.71-12.41-6.27-21.5q7.09-2.8 14.11-6.27z"/>
			<path id="path5369" class="s0" d="m1505.5 395.78v31.5c0 11.63 9.37 21 21 21h147c11.63 0 21-9.37 21-21v-31.5z"/>
			<g id="text5373">
				<path id="path4608" class="s2" d="m1528.43 409.42q4.22 0 6.52 2.02 2.34 2.01 2.34 5.69 0 3.84-2.34 5.99-2.3 2.11-6.52 2.11h-4.9v6.59h-4.29v-22.4zm-0.22 12.03q2.43 0 3.71-1.05 1.31-1.06 1.31-3.14 0-2.05-1.31-3.07-1.28-1.03-3.71-1.03h-4.67v8.29z"/>
				<path id="path4610" class="s2" d="m1552.88 431.82l-3.87-6.62q-0.25 0.03-0.8 0.03h-5.05v6.59h-4.29v-22.4h9.34q4.35 0 6.72 2.02 2.37 2.01 2.37 5.69 0 2.63-1.15 4.48-1.12 1.86-3.3 2.79l4.93 7.42zm-9.73-10.37h5.06q2.43 0 3.71-1.05 1.28-1.06 1.28-3.14 0-2.05-1.28-3.07-1.28-1.03-3.71-1.03h-5.06z"/>
				<path id="path4612" class="s2" d="m1570.17 409.13q3.33 0 6.05 1.51 2.75 1.5 4.32 4.12 1.56 2.63 1.56 5.83 0 3.2-1.56 5.85-1.57 2.63-4.32 4.16-2.72 1.54-6.05 1.54-3.33 0-6.08-1.54-2.72-1.53-4.29-4.16-1.57-2.65-1.57-5.85 0-3.2 1.57-5.83 1.57-2.62 4.29-4.12 2.75-1.51 6.08-1.51zm0.06 3.84q-2.05 0-3.81 1.03-1.76 0.99-2.78 2.75-1.02 1.73-1.02 3.84 0 2.11 1.02 3.87 1.06 1.76 2.78 2.78 1.76 1.03 3.81 1.03 2.02 0 3.75-1.03 1.72-1.02 2.72-2.78 1.02-1.76 1.02-3.87 0-2.11-1.02-3.84-1-1.76-2.72-2.75-1.73-1.03-3.75-1.03z"/>
				<path id="path4614" class="s2" d="m1598.32 420.68h3.74v8.52q-1.76 1.31-4.16 2.14-2.4 0.8-4.7 0.8-3.3 0-6.02-1.54-2.69-1.53-4.25-4.16-1.57-2.65-1.57-5.85 0-3.2 1.6-5.79 1.6-2.63 4.35-4.13 2.78-1.54 6.14-1.54 2.4 0 4.74 0.87 2.34 0.86 4.03 2.36l-2.43 3.17q-1.28-1.21-2.98-1.89-1.66-0.67-3.36-0.67-2.11 0-3.9 1.03-1.76 0.99-2.78 2.75-1.03 1.76-1.03 3.84 0 2.11 1.03 3.87 1.05 1.76 2.81 2.78 1.76 1.03 3.91 1.03 1.15 0 2.4-0.35 1.28-0.39 2.43-1.06z"/>
				<path id="path4616" class="s2" d="m1619.01 431.82l-3.87-6.62q-0.26 0.03-0.8 0.03h-5.06v6.59h-4.29v-22.4h9.35q4.35 0 6.72 2.02 2.36 2.01 2.36 5.69 0 2.63-1.15 4.48-1.12 1.86-3.29 2.79l4.92 7.42zm-9.72-10.37h5.05q2.43 0 3.71-1.05 1.28-1.06 1.28-3.14 0-2.05-1.28-3.07-1.28-1.03-3.71-1.03h-5.05z"/>
				<path id="path4618" class="s2" d="m1626.12 409.42h16.41v3.74h-12.12v5.54h10.88v3.74h-10.88v5.64h12.51v3.74h-16.8z"/>
				<path id="path4620" class="s2" d="m1659.32 415.18q-1.73-1.06-3.55-1.63-1.79-0.58-3.17-0.58-1.53 0-2.43 0.58-0.9 0.57-0.9 1.6 0 0.93 0.61 1.57 0.64 0.6 1.57 1.02 0.96 0.38 2.59 0.86 2.27 0.68 3.71 1.35 1.48 0.67 2.5 1.98 1.02 1.31 1.02 3.46 0 2.05-1.12 3.58-1.08 1.51-3.04 2.31-1.92 0.8-4.41 0.8-2.63 0-5.12-0.96-2.5-1-4.35-2.63l1.79-3.65q1.69 1.57 3.81 2.47 2.11 0.89 3.93 0.89 1.79 0 2.82-0.67 1.02-0.7 1.02-1.89 0-0.96-0.64-1.56-0.61-0.64-1.57-1.03-0.96-0.38-2.62-0.86-2.27-0.67-3.71-1.31-1.44-0.64-2.47-1.92-1.02-1.32-1.02-3.43 0-1.95 1.02-3.39 1.06-1.47 2.95-2.27 1.92-0.8 4.41-0.8 2.18 0 4.29 0.64 2.15 0.64 3.81 1.73z"/>
				<path id="path4622" class="s2" d="m1677.45 415.18q-1.73-1.06-3.55-1.63-1.8-0.58-3.17-0.58-1.54 0-2.43 0.58-0.9 0.57-0.9 1.6 0 0.93 0.61 1.57 0.64 0.6 1.56 1.02 0.96 0.38 2.6 0.86 2.27 0.68 3.71 1.35 1.47 0.67 2.49 1.98 1.03 1.31 1.03 3.46 0 2.05-1.12 3.58-1.09 1.51-3.04 2.31-1.92 0.8-4.42 0.8-2.62 0-5.12-0.96-2.49-1-4.35-2.63l1.79-3.65q1.7 1.57 3.81 2.47 2.11 0.89 3.94 0.89 1.79 0 2.81-0.67 1.03-0.7 1.03-1.89 0-0.96-0.64-1.56-0.61-0.64-1.57-1.03-0.96-0.38-2.63-0.86-2.27-0.67-3.71-1.31-1.44-0.64-2.46-1.92-1.03-1.32-1.03-3.43 0-1.95 1.03-3.39 1.05-1.47 2.94-2.27 1.92-0.8 4.42-0.8 2.17 0 4.29 0.64 2.14 0.64 3.8 1.73z"/>
			</g>
		</g>
		<path id="tspan4625-0-6" class="s2" aria-label="ORD"  d="m-995.1-285q-3.2 0-5.2 2.4-1.9 2.4-1.9 6.6 0 4.2 1.9 6.6 2 2.4 5.2 2.4 3.3 0 5.2-2.4 1.9-2.4 1.9-6.6 0-4.2-1.9-6.6-1.9-2.4-5.2-2.4zm0-2.4q4.7 0 7.4 3.1 2.8 3.1 2.8 8.3 0 5.2-2.8 8.3-2.7 3.1-7.4 3.1-4.6 0-7.4-3.1-2.8-3.1-2.8-8.3 0-5.2 2.8-8.3 2.8-3.1 7.4-3.1zm25.5 12.1q1 0.3 1.9 1.4 0.9 1 1.8 2.9l3 6h-3.2l-2.8-5.7q-1.1-2.2-2.1-2.9-1-0.7-2.8-0.7h-3.3v9.3h-2.9v-22h6.7q3.8 0 5.6 1.5 1.9 1.6 1.9 4.8 0 2.1-1 3.5-0.9 1.3-2.8 1.9zm-3.7-9.3h-3.8v7.8h3.8q2.2 0 3.2-1 1.2-1 1.2-2.9 0-1.9-1.2-2.9-1-1-3.2-1zm20.9 0h-3.7v17.1h3.7q4.5 0 6.6-2 2.2-2.1 2.2-6.5 0-4.5-2.2-6.5-2.1-2.1-6.6-2.1zm-6.6 19.6v-22h6.1q6.4 0 9.4 2.6 3 2.7 3 8.4 0 5.7-3 8.3-3 2.7-9.4 2.7z"/>
	</g>
</svg>