<svg version="1.2" xmlns="http://www.w3.org/2000/svg" viewBox="0 0 200 204" width="200" height="204">
	<style>
		.s0 { fill: #222222 } 
		.s1 { fill: #fdd835 } 
		.s2 { fill: #eeeeee } 
		.s3 { fill: #000000 } 
		.s4 { fill: #9c27b0 } 
	</style>
	<g id="layer1">
		<g id="g5175">
			<path id="rect5163" fill-rule="evenodd" class="s0" d="m15 3.78h170c8.28 0 15 6.72 15 15v170c0 8.28-6.72 15-15 15h-170c-8.28 0-15-6.72-15-15v-170c0-8.28 6.72-15 15-15z"/>
			<path id="rect5165" fill-rule="evenodd" class="s1" d="m20 13.78h160c5.52 0 10 4.48 10 10v160c0 5.52-4.48 10-10 10h-160c-5.52 0-10-4.48-10-10v-160c0-5.52 4.48-10 10-10z"/>
			<path id="rect5205-3-6" class="s0" d="m5.5 143.78v31.5c0 11.63 9.37 21 21 21h147c11.63 0 21-9.37 21-21v-31.5z"/>
			<path id="LIBERTARIAN" class="s2" aria-label="LIBERTARIAN"  d="m23.5 177h-13v-18.4h3.4v15.5h9.6zm6.4 0h-3.4v-18.3h3.4zm13.7 0h-9.1v-18.4h8.6q3.3 0 5 1.3 1.7 1.3 1.7 3.5 0 1.4-0.6 2.5-0.7 1-1.9 1.6-1.1 0.5-2.5 0.5l0.5-0.9q1.6 0 2.8 0.6 1.2 0.5 2 1.6 0.7 1.1 0.7 2.7 0 2.3-1.9 3.6-1.7 1.4-5.3 1.4zm-5.7-15.7v13h5.5q1.9 0 2.9-0.7 1-0.6 1-2 0-1.3-1-2-1-0.6-2.9-0.6h-5.8v-2.7h5.1q1.8 0 2.7-0.6 1-0.6 1-1.9 0-1.3-1-1.9-0.9-0.6-2.7-0.6zm30.4 15.7h-13.8v-18.4h13.4v2.9h-10v12.6h10.4zm-1.5-7.9h-9.2v-2.8h9.2zm9.1 7.9h-3.4v-18.4h7.5q3.7 0 5.8 1.8 2.1 1.7 2.1 4.8 0 2-1 3.5-0.9 1.4-2.7 2.2-1.7 0.7-4.2 0.7h-5.6l1.5-1.5zm12.3 0h-3.7l-4.6-6.7h3.6zm-12.3-17.1v10.6l-1.5-1.6h5.5q2.3 0 3.4-1 1.2-1 1.2-2.7 0-1.7-1.2-2.7-1.1-0.9-3.4-0.9h-5.5zm22.7 17.1h-3.4v-15.5h-6.1v-2.9h15.6v2.9h-6.1zm8.8 0h-3.5l8.3-18.3h3.3l8.3 18.3h-3.6l-7.1-16.5h1.4zm12.1-4.3h-11.8l0.9-2.7h9.9zm9.5 4.3h-3.4v-18.4h7.5q3.6 0 5.7 1.8 2.1 1.7 2.1 4.8 0 2-0.9 3.5-1 1.4-2.7 2.2-1.8 0.7-4.2 0.7h-5.7l1.6-1.5zm12.3 0h-3.7l-4.7-6.7h3.7zm-12.3-17.1v10.6l-1.5-1.6h5.5q2.2 0 3.4-1 1.1-1 1.1-2.7 0-1.7-1.1-2.7-1.2-0.9-3.4-0.9h-5.5zm19 17.1h-3.4v-18.4h3.4zm6.5 0h-3.5l8.2-18.3h3.4l8.3 18.3h-3.6l-7.1-16.5h1.4zm12-4.3h-11.7l0.9-2.6h9.9zm10.4 4.2h-3.4v-18.3h2.8l11.5 14.1h-1.4v-14.1h3.4v18.3h-2.8l-11.5-14.1h1.4z"/>
			<g id="Layer 1">
				<path id="Path 0" fill-rule="evenodd" class="s3" d="m110.2 116c0.99 0 2.47 1.13 3.3 2.5 1.33 2.22 1.33 2.78 0 5-0.83 1.38-2.4 2.5-3.5 2.5-1.1 0-2.9-0.45-4-1-1.1-0.55-2.08-1.88-2.17-2.96-0.09-1.08 0.89-2.88 2.2-4 1.3-1.12 3.17-2.04 4.17-2.04zm-3.2 6.6c0.83 0.34 2.29 0.34 3.25 0.01 0.96-0.34 1.75-1.51 1.75-2.61 0-1.1-0.61-2-1.35-2-0.75 0-2.21 0.9-3.25 1.99-1.62 1.7-1.68 2.09-0.4 2.61z"/>
				<path id="Path 1" fill-rule="evenodd" class="s3" d="m29.98 115c1.11 0 2.7 1.01 3.53 2.25 0.83 1.24 1.51 3.38 1.51 4.75 0.01 1.38-0.53 3.06-1.2 3.75-0.67 0.69-2.14 1.26-3.27 1.27-1.13 0.01-2.62-0.56-3.32-1.25-0.69-0.7-1.21-2.25-1.15-3.45 0.07-1.21 0.52-3.34 1-4.75 0.56-1.62 1.63-2.57 2.9-2.57zm-1.09 8.5c0.57 0.55 1.73 0.66 2.57 0.25 0.85-0.41 1.43-1.76 1.29-2.99-0.14-1.23-0.98-2.38-1.87-2.56-0.98-0.19-1.9 0.59-2.33 1.99-0.39 1.28-0.24 2.76 0.34 3.31z"/>
				<path id="Path 2" class="s3" d="m69.23 114.77c-0.92 0.53-1.05 1.95-0.5 5.12 0.46 2.63 1.57 4.94 2.77 5.76 1.1 0.75 2.56 1.36 3.25 1.36 0.69-0.01 1.25-0.46 1.25-1.01 0-0.55-1.24-1.5-2.75-2.1-2.74-1.1-2.74-1.11-0.5-2 1.24-0.5 2.03-1.35 1.75-1.9-0.28-0.55-1.18-1-2-1-0.83 0-1.5-0.45-1.5-1 0-0.55 0.67-1.22 1.5-1.5 0.82-0.28 2.4-0.5 3.5-0.5 1.1 0 2-0.45 2-1 0-0.55-1.69-0.99-3.75-0.98-2.06 0-4.32 0.34-5.02 0.75z"/>
				<path id="Path 3" class="s3" d="m171 115.25c0 0.96 0.04 2.09 0.09 2.5 0.05 0.41-0.63 1.09-1.5 1.5-1.16 0.55-1.34 1.23-0.66 2.5 0.51 0.96 1.18 2.54 1.5 3.5 0.42 1.28 1.65 1.75 4.57 1.75 2.72 0 3.89-0.4 3.65-1.25-0.2-0.69-1.55-1.14-3-1-2.07 0.19-2.65-0.19-2.65-1.75 0-1.47 0.67-2 2.5-2 1.53 0 2.36-0.49 2.14-1.25-0.2-0.69-1.32-1.14-2.5-1-1.35 0.16-2.14-0.31-2.14-1.25 0-0.94 1.34-1.73 3.6-2.11 1.97-0.33 3.32-1.01 3-1.5-0.33-0.49-2.4-0.78-4.6-0.64-3.04 0.19-4 0.67-4 2z"/>
				<path id="Path 4" class="s3" d="m156.25 120.5c-0.15 4.5 0.15 7.5 0.75 7.5 0.55 0 1.22-0.67 1.5-1.5 0.28-0.83 0.5-2.74 0.5-4.25l0.01-2.75c3.26 5.55 4.43 6.59 4.88 6 0.43-0.55 1.35-3.03 2.06-5.5 0.71-2.47 1.46-5.06 1.67-5.75 0.21-0.69-0.07-1.25-0.62-1.25-0.55 0-1.83 1.91-2.85 4.25l-1.85 4.25c-3.33-6.59-4.64-8.5-5.05-8.5-0.41 0.01-0.86 3.38-1 7.5z"/>
				<path id="Path 5" class="s3" d="m144.31 113.7c-1.2 0.23-2.66 1.07-3.25 1.86-0.79 1.08-0.56 1.94 0.94 3.44 1.1 1.1 3.12 2 4.5 2 1.37 0 2.8 0.56 3.16 1.25 0.37 0.71-0.38 2.02-1.75 3.04-1.33 0.99-3.31 1.78-4.41 1.77-1.1-0.02-2.56-0.6-3.23-1.29-0.68-0.7-1.58-0.94-2-0.54-0.43 0.4-0.09 1.43 0.73 2.29 0.87 0.91 3.1 1.55 5.3 1.52 2.68-0.03 4.51-0.77 6.25-2.54 2.2-2.25 2.31-2.73 1.07-4.75-0.75-1.24-2.89-2.58-4.75-2.98-1.85-0.4-3.59-0.96-3.87-1.24-0.28-0.28 0.18-0.7 1-0.94 0.82-0.23 2.74-0.69 4.25-1.01 1.51-0.32 2.75-1.03 2.75-1.58 0-0.55-1.01-0.94-2.25-0.86-1.24 0.07-3.23 0.32-4.44 0.56z"/>
				<path id="Path 6" class="s3" d="m116.65 117.5c-0.37 2.75-0.66 6.01-0.66 7.25 0.01 1.31 0.53 2.11 1.26 1.92 0.69-0.18 1.48-1.87 1.76-3.75l0.51-3.42c3.08 5.06 4.32 6.52 4.73 6.51 0.41 0 1.14-1.02 1.62-2.26 0.49-1.24 1.22-4.28 1.64-6.75 0.71-4.16 0.64-4.39-0.9-3-0.92 0.83-1.93 2.85-2.26 4.5l-0.58 3c-3.31-4.04-4.76-6.06-5.36-7.11-0.93-1.61-1.19-1.14-1.76 3.11z"/>
				<path id="Path 7" class="s3" d="m48.05 113.65c-0.8 0.28-1.37 1.04-1.27 1.68 0.11 0.64 2 2.97 4.22 5.17 2.22 2.2 4.02 4.56 4.02 5.25-0.01 0.72-1.3 1.25-3.02 1.25-2.15 0-3.21-0.6-3.75-2.11-0.62-1.74-0.96-1.87-1.97-0.75-0.97 1.08-0.91 1.83 0.25 3.61 1.02 1.55 2.48 2.26 4.72 2.28 1.83 0.02 4.02-0.74 5.01-1.75 1.12-1.13 1.53-2.51 1.11-3.78-0.35-1.1-2.27-3.5-4.26-5.33-1.98-1.83-2.82-3.07-1.86-2.75 1.27 0.42 1.68 0.1 1.48-1.17-0.14-0.96-0.93-1.83-1.75-1.93-0.81-0.1-2.13 0.05-2.93 0.33z"/>
				<path id="Path 8" class="s3" d="m55.4 111.74c-0.4 0.33-0.66 0.97-0.57 1.43 0.09 0.46 1.18 0.82 2.42 0.81 1.73-0.02 2.43 0.73 3.01 3.25 0.42 1.8 0.76 5.41 0.75 8.02-0.01 2.84 0.39 4.55 0.99 4.25 0.55-0.28 1-3.65 1-7.5 0-6.35 0.21-7.08 2.25-7.83 1.53-0.56 1.85-1.04 1-1.5-0.69-0.37-3.24-0.86-5.68-1.1-2.44-0.23-4.76-0.16-5.17 0.17z"/>
				<path id="Path 9" class="s3" d="m21.5 111.67c-0.46 0.36-0.76 2.84-0.67 5.5 0.1 2.66-0.17 4.83-0.58 4.83-0.41 0-1.88-2.04-3.25-4.54-1.38-2.49-2.84-4.52-3.25-4.5-0.41 0.02-0.74 0.38-0.73 0.79 0.01 0.41 0.67 4.35 1.46 8.75 0.8 4.4 1.47 8.11 1.49 8.25 0.01 0.14 0.48 0.03 1.03-0.25 0.55-0.28 1-1.96 1-3.75l0.01-3.25c3.09 5.04 4.44 6.72 4.99 7 0.63 0.32 1-3.17 1-9.5 0-5.5-0.38-10-0.83-10-0.46 0-1.21 0.3-1.67 0.67z"/>
				<path id="Path 10" class="s3" d="m56.34 93.5c0.38 0.85 0.23 1.28-0.34 1-0.55-0.28-1-0.16-0.99 0.25 0 0.41 1.43 1.65 3.17 2.75 1.74 1.1 4.19 2.67 5.43 3.5 1.25 0.83 2.64 1.17 3.08 0.76 0.45-0.4-1.44-2.77-4.19-5.27-2.75-2.49-5.41-4.52-5.91-4.51-0.5 0.01-0.61 0.69-0.25 1.52z"/>
				<path id="Path 11" class="s3" d="m162.09 92.75c-0.61 1.51-0.99 4.66-0.85 7 0.18 3.01 0.7 4.25 1.76 4.25 0.82-0.01 2.78-1.02 4.34-2.25 2-1.58 2.97-3.37 3.25-6 0.23-2.06 0.19-3.75-0.09-3.75-0.28 0-1.74 0.5-3.25 1.1-2.56 1.02-2.7 0.95-2-1 0.53-1.49 0.34-2.1-0.65-2.1-0.78 0-1.91 1.24-2.51 2.75z"/>
				<path id="Path 12" class="s3" d="m37.1 89.14c0.33 2.18 0.15 2.44-1.04 1.5-1.16-0.92-1.3-0.81-0.75 0.61 0.61 1.54 0.24 1.49-3.06-0.4-3.54-2.03-3.71-2.05-3.07-0.25 0.38 1.04 1.35 3.7 2.16 5.9 0.81 2.2 2.07 4.11 2.81 4.25 0.96 0.18 1.2-0.53 0.85-2.44-0.48-2.59-0.4-2.64 2-1.42 1.37 0.71 3.06 1.02 3.75 0.7 0.69-0.33 0.96-1.15 0.6-1.84-0.5-0.98-0.34-0.97 0.75 0.02 0.77 0.69 1.74 1.26 2.15 1.25 0.41-0.01 0.86-0.47 0.99-1.02 0.14-0.55-1.73-2.91-4.15-5.25-4.19-4.06-4.37-4.13-3.99-1.61z"/>
				<path id="Path 13" class="s3" d="m45 86.75c0.01 0.41 0.96 2.33 2.13 4.25l2.12 3.5-4.54-4c1.59 3.1 3.68 5.24 5.67 6.75 2.66 2.02 3.62 2.35 3.62 1.25 0-0.83-1.58-3.97-3.5-7-1.92-3.03-3.95-5.5-4.5-5.5-0.55 0-1 0.34-1 0.75z"/>
				<path id="Path 14" class="s3" d="m91.11 83.75c-0.09 1.81-0.55 2.14-2.36 1.69-2.11-0.52-2.08-0.4 0.5 2 1.51 1.41 2.93 2.45 3.14 2.31 0.22-0.14 0.05-2.05-0.38-4.25-0.43-2.2-0.83-2.99-0.9-1.75z"/>
				<path id="Path 15" fill-rule="evenodd" class="s3" d="m92.25 25.05c7.44-0.04 11.23 0.46 16 2.09 3.44 1.17 7.94 2.97 10 4 2.06 1.02 4.84 3.1 6.17 4.61 1.32 1.51 2.9 4.44 3.5 6.5 0.91 3.16 0.76 4.5-0.97 8.5-1.13 2.61-4.19 6.77-6.8 9.25-3.36 3.18-7.45 5.6-13.95 8.25-5.06 2.06-9.65 3.75-10.2 3.75-0.55 0-3.36 1.55-6.25 3.44-2.89 1.89-6.15 5.02-7.25 6.96-1.78 3.14-1.84 3.7-0.5 5.14 0.94 1.01 2.34 1.4 3.75 1.04 1.58-0.41 2.08-0.21 1.69 0.67-0.3 0.69 0.03 1.54 0.75 1.9 0.72 0.36 7.95 1.04 16.07 1.5 11.59 0.67 14.75 0.58 14.75-0.4-0.01-0.69-0.91-2.71-2.01-4.5-1.09-1.79-1.99-3.81-2-4.5 0-0.69 0.5-1.14 1.12-1 0.61 0.14 1.96 1.71 3 3.5 1.67 2.89 2.05 3.08 3.38 1.75 0.83-0.83 1.5-2.17 1.5-3 0-0.83 0.12-1.84 0.27-2.25 0.14-0.41 0.59-1.31 1-2 0.4-0.69 1.18-1.03 1.73-0.75 0.55 0.28 1.02 1.51 1.03 2.75 0.02 1.24-0.88 3.49-2 5-1.11 1.51-2.7 2.75-3.53 2.75-0.83 0-1.5 0.45-1.5 1 0 0.55 2.03 1 4.5 1 2.47 0 6.86-0.5 9.75-1.11 2.89-0.61 6.09-1.85 7.12-2.75 1.03-0.9 3.17-4 4.75-6.89 1.59-2.89 3.56-5.25 4.38-5.25 1.05 0 1.47 0.98 1.4 3.25-0.06 1.79-0.06 4.71 0 6.5 0.09 2.98 0.26 3.14 2.05 2 1.08-0.69 2.31-0.91 2.75-0.48 0.44 0.42 0.23 1.32-0.47 2-0.69 0.67-1.27 1.9-1.27 2.73-0.01 1.12 0.57 0.93 2.26-0.73 1.26-1.22 2.62-2.24 3.03-2.25 0.41-0.01 0.1 1.22-0.68 2.73-0.79 1.51-2.82 3.99-4.5 5.5-1.69 1.51-3.41 2.76-3.82 2.77-0.41 0.01-0.4-1.68 0.03-3.75 0.72-3.49 0.65-3.66-0.91-2.27-1.28 1.13-1.78 1.19-2.03 0.25-0.24-0.9-0.87-0.75-2.19 0.5-1.02 0.96-2.12 2.87-3.05 6.75l1.98-2.5c1.08-1.38 2.18-2.28 2.45-2 0.26 0.28-0.54 1.73-1.78 3.24-1.24 1.51-3.04 2.74-4 2.75-1.09 0.01-1.75-0.75-1.75-1.99 0-1.93-0.17-1.94-4.5-0.5-2.47 0.83-4.5 1.72-4.5 2 0 0.28 0.68 0.28 1.5 0 0.82-0.28 1.51-0.16 1.51 0.25 0.01 0.41-1.45 1.31-3.25 1.99-1.79 0.68-3.6 1.24-4.01 1.25-0.41 0-0.42-0.55-0.01-1.24 0.54-0.9 0.33-1-0.75-0.33-0.82 0.5-8.69 0.88-17.49 0.84-12.88-0.07-17.76-0.51-25-2.28-4.95-1.2-9.79-2.59-10.75-3.09-1.19-0.6-1.85-0.49-2.07 0.36-0.24 0.92-1.03 0.79-3-0.5-1.48-0.96-2.57-2.41-2.43-3.21 0.16-0.91-2.22-2.73-6.25-4.8-3.69-1.89-7.47-4.71-8.75-6.54-1.24-1.76-1.96-3.76-1.61-4.45 0.42-0.84 1.65-0.05 3.75 2.42 1.71 2.02 4.57 4.39 6.36 5.25 1.79 0.87 3.25 1.24 3.25 0.83 0-0.41-2.25-2.66-5-5-2.75-2.34-4.78-4.7-4.5-5.25 0.29-0.58 1.34-0.26 2.51 0.75 1.1 0.96 2.17 1.53 2.37 1.25 0.21-0.28 0.65-1.51 1-2.75 0.34-1.24 0.17-2.47-0.38-2.75-0.55-0.28-1.02-1.51-1.04-2.75-0.04-2.03 0.11-2.1 1.59-0.75 0.9 0.83 2.91 3.75 7.28 11.5l1.64-4c0.9-2.2 2.85-5.29 4.33-6.86 1.49-1.58 4.27-3.87 6.2-5.09 1.92-1.22 8.22-4.16 14-6.52 5.78-2.37 12.3-5.22 14.5-6.34 2.2-1.12 5.24-2.86 6.75-3.87 1.78-1.18 2.75-2.7 2.75-4.32 0-1.56-1.03-3.27-2.75-4.55-1.51-1.13-4.55-2.53-6.75-3.1-2.2-0.58-9.63-0.89-29-0.35l-8.5 5.97c-5.98 4.2-10.42 6.49-15 7.71-6.32 1.69-6.58 1.68-9.25-0.22-1.51-1.08-2.75-2.63-2.75-3.46 0-0.83 0.67-1.73 1.5-2 0.82-0.27 2.96-0.54 4.75-0.6 3.16-0.1 3.13-0.14-1.25-1.56-2.78-0.9-6.31-1.25-9.25-0.9-3.21 0.38-5.06 0.15-5.69-0.69-0.71-0.94 0.28-1.44 4-2 3.57-0.54 5.98-0.33 8.69 0.77 2.06 0.84 4.54 1.29 5.5 1 1.47-0.44 1.57-0.87 0.58-2.77-0.65-1.24-1.66-2.77-2.25-3.41-0.68-0.72-1.64-0.82-2.58-0.26-0.83 0.49-1.84 0.9-2.25 0.9-0.41 0.01-0.64-1.22-0.5-2.73 0.2-2.25-0.12-2.71-1.8-2.51-1.13 0.13-2.13-0.1-2.23-0.5-0.11-0.41 0.14-1.24 0.55-1.86 0.4-0.61 1.69-1.42 2.85-1.81 1.17-0.38 4.1-0.43 6.5-0.1 3.03 0.41 5.61 1.67 8.38 4.1 2.2 1.93 4.11 3.49 4.25 3.47 0.14-0.02 2.61-1.55 5.5-3.4 2.89-1.84 7.28-4.07 9.75-4.95 2.89-1.02 7.98-1.61 14.25-1.64zm-9.27 6.2c-1.26 1.11-2.07 1.33-2.23 0.61-0.14-0.63-1.6 0.24-3.25 1.94-2.32 2.38-3.4 2.87-4.75 2.14-1.31-0.7-1.75-0.56-1.75 0.56 0 0.98-0.61 1.3-1.75 0.93-0.96-0.32-1.97-0.62-2.25-0.67-0.28-0.05-1.85 0.25-3.5 0.67-1.87 0.47-3.38 0.34-4-0.35-0.55-0.61-2.01-1.11-3.25-1.1-1.73 0.02-2.31-0.61-2.5-2.73-0.2-2.2-0.8-2.8-3-3l-2.75-0.25c6.2 7.75 8 11.01 8.01 12.25 0 1.24-0.67 3.26-1.5 4.5-0.89 1.33-2.53 2.25-4.01 2.25-1.38 0-2.28 0.45-2 1 0.27 0.55 1.06 0.82 1.75 0.6 0.69-0.22 3.4-1.01 6.03-1.75 3.4-0.96 4.77-1.86 4.75-3.1-0.02-1.09 0.72-1.75 1.97-1.75 1.1 0 4.81-1.75 8.25-3.9 3.44-2.14 8.16-4.16 10.5-4.5 2.47-0.35 4.46-1.23 4.75-2.1 0.28-0.83 1.29-1.44 2.25-1.37 0.96 0.08 2.54-0.15 3.5-0.5q1.75-0.63 1.75 0.87c0 0.83 1.01 1.72 2.25 1.99 1.24 0.26 3.6 0.43 5.25 0.36 2.19-0.09 2.39-0.22 0.75-0.49-1.24-0.2-2.27-0.7-2.29-1.11-0.03-0.41 0.53-1.31 1.25-1.99 0.71-0.69 1.69-0.91 2.18-0.5 0.48 0.41 0.67 0.06 0.42-0.76-0.37-1.17-2.61-1.56-10.21-1.79-5.35-0.16-9.49 0.07-9.18 0.5 0.3 0.44-0.35 1.58-1.44 2.54zm26.02 0.25c0.55-0.27 1-0.73 1-1 0-0.27-0.45-0.5-1-0.5-0.55 0-1 0.45-1 1 0 0.55 0.45 0.77 1 0.5zm6 5c-0.55 0.27-2.24-0.13-3.75-0.91-1.51-0.77-3.65-1.13-4.75-0.8-1.7 0.51-1.54 0.7 1 1.23 1.65 0.35 4.12 1.22 5.5 1.93 1.37 0.72 3.54 2.26 4.82 3.42 1.94 1.78 2.23 1.84 1.75 0.38-0.31-0.96-0.12-1.98 0.43-2.25 0.55-0.27 1.71 0.06 2.58 0.75 0.91 0.71 1.33 2 1 3-0.37 1.13 0.04 1.96 1.17 2.35 1.34 0.47 1.58 0.23 1-1-0.41-0.88-0.75-2.05-0.75-2.6 0-0.55-1.24-2.41-2.75-4.13-1.51-1.72-3.51-3.54-4.44-4.04-1.25-0.66-1.71-0.49-1.75 0.63-0.03 0.85-0.51 1.77-1.06 2.04zm3.77 14.32c-0.7 0.72-1.38 2.75-1.5 4.5l-0.24 3.18c6.99-7.3 7.26-7.95 5.88-8.9-0.87-0.61-1.85-1.77-2.17-2.6-0.42-1.09-0.6-0.95-0.64 0.5-0.04 1.1-0.64 2.59-1.33 3.32zm-4.94 4.35c0.09 0.45 0.62 0.83 1.17 0.83 0.55 0 1.12-0.67 1.27-1.5 0.15-0.83 0-1.5-0.33-1.5-0.34 0-0.98 0.3-1.44 0.67-0.46 0.36-0.76 1.04-0.67 1.5zm-18.81 9.83c-0.53 0.83-1.53 1.54-2.24 1.6-0.7 0.05-2.18 0.47-3.28 0.93-1.1 0.46-2.8 1.76-3.78 2.9-0.98 1.14-1.82 1.62-1.87 1.07-0.05-0.55-0.03-1.34 0.03-1.75 0.07-0.41-0.33-0.75-0.88-0.75-0.55 0-2.35 0.9-4 2-1.65 1.1-3 2.67-3 3.5 0 0.83 0.9 1.72 2 2 1.1 0.28 2 0.95 2 1.5 0 0.55-0.51 1.11-1.13 1.25-0.62 0.14-1.28 1.6-1.48 3.25-0.2 1.65-1.05 3.67-1.89 4.5-1.36 1.34-1.52 1.1-1.51-2.25 0-2.06-0.44-3.75-0.99-3.75-0.55 0-1.2 0.34-1.45 0.75-0.25 0.41-0.58 2.85-0.75 5.43-0.24 3.67 0.16 5.17 1.86 7 1.18 1.27 3.88 2.85 6 3.51 2.11 0.65 6.54 1.88 9.84 2.74 3.3 0.85 7.01 1.56 8.25 1.56 1.24 0.01 2.25-0.44 2.25-0.99 0-0.55-1.24-1.26-2.75-1.58-1.51-0.32-3.43-0.78-4.25-1.03-0.98-0.28-1.15-0.75-0.5-1.35 0.55-0.5 2.8-1.09 5-1.31 2.96-0.29 2.37-0.44-2.25-0.56-3.63-0.1-7.73-0.9-9.77-1.92-1.93-0.96-3.84-1.38-4.25-0.92-0.4 0.46 0.17 1.47 1.27 2.24 1.1 0.77 1.78 1.63 1.5 1.9-0.28 0.27-2.3-0.42-4.5-1.52-2.2-1.11-4.45-2.5-5-3.1-0.71-0.76-0.05-0.98 2.24-0.72 3.14 0.36 3.22 0.28 2.59-2.75-0.46-2.22-0.02-4.31 1.51-7.25 1.19-2.27 4.22-5.59 6.74-7.38 2.52-1.79 8.03-4.52 12.25-6.06 4.22-1.55 9.02-3.3 10.67-3.88 2.58-0.92 2.75-1.2 1.25-1.94-0.96-0.48-1.75-1.54-1.75-2.37 0-0.83-0.34-1.46-0.75-1.41-0.41 0.04-3.35 1.28-6.52 2.75-3.17 1.46-6.19 3.33-6.71 4.16zm-30.54 21c0.86 0.83 1.71 1.28 1.88 1 0.17-0.28-0.52-1.29-1.53-2.25-1.01-0.96-1.85-1.41-1.87-1-0.03 0.41 0.66 1.42 1.52 2.25zm74.95 6.63c-2.71 0.98-5.38 2.44-5.93 3.23-0.55 0.79-1.56 1.15-2.25 0.79-0.69-0.36-1.48-0.2-1.75 0.35-0.28 0.55-1.4 1-2.5 1-1.11 0-2-0.67-2-1.5 0-0.93-0.94-1.5-2.5-1.5q-2.5 0-3 2c-0.28 1.1-0.95 2-1.5 2-0.55 0-1.23-0.45-1.5-1-0.28-0.55-1.29-0.99-2.25-0.99-0.96 0.01-3.44-0.22-5.5-0.5-3.52-0.48-3.71-0.37-3.04 1.74 0.52 1.63 0.38 2.04-0.5 1.5-0.67-0.41-1.89-0.53-2.71-0.25-0.83 0.28-1.5 1.17-1.5 2 0 1.27 1.61 1.42 10.5 1 5.77-0.28 13.54-1.22 17.25-2.09 3.71-0.88 8.32-2.44 10.25-3.47 1.93-1.03 4.47-2.67 5.67-3.66 1.19-0.98 2.88-3.58 3.75-5.78 0.87-2.2 1.44-4.07 1.26-4.17-0.19-0.09-1.46 1.56-2.83 3.67-1.82 2.81-3.82 4.32-7.42 5.63z"/>
				<path id="Path 16" class="s3" d="m182.01 110.19c-0.1 0.17-0.38 4.02-0.6 8.56-0.23 4.54-0.07 8.23 0.34 8.21 0.41-0.02 1.2-0.74 1.75-1.6 0.87-1.36 1.41-1.23 4.25 1.04 1.79 1.43 3.25 2.15 3.25 1.6 0-0.55-1.38-2.24-3.06-3.75l-3.07-2.75c5.51-5.42 7.11-7.56 7.12-8.25 0-0.69-0.25-1.25-0.58-1.25-0.32 0-2.13 1.46-4.01 3.25l-3.44 3.25c0.19-5.72-0.21-7.66-0.76-8-0.55-0.34-1.08-0.48-1.19-0.31z"/>
				<path id="Path 17" fill-rule="evenodd" class="s3" d="m83 112.1c0.28-0.07 1.96 0.32 3.75 0.88 1.79 0.56 3.7 1.92 4.25 3.02 0.55 1.1 1 2.45 1 3 0 0.55-1.76 2.01-3.92 3.25-3.18 1.83-4.03 2.96-4.5 6-0.32 2.07-1.1 3.64-1.73 3.5q-1.15-0.25-0.9-7.25c0.15-3.85-0.23-8.01-0.84-9.25-0.92-1.87-0.82-2.31 0.64-2.63 0.96-0.22 1.97-0.45 2.25-0.52zm1 7.4c0 0.83 0.34 1.49 0.75 1.47 0.41-0.02 1.65-0.68 2.75-1.47 1.78-1.28 1.84-1.6 0.5-3.01-0.83-0.87-2.36-1.56-3.41-1.53-1.31 0.03-1.7 0.51-1.25 1.54 0.36 0.83 0.66 2.18 0.66 3z"/>
			</g>
		</g>
		<g id="g5375">
			<path id="rect5363" fill-rule="evenodd" class="s0" d="m1515 255.78h170c8.28 0 15 6.72 15 15v170c0 8.28-6.72 15-15 15h-170c-8.28 0-15-6.72-15-15v-170c0-8.28 6.72-15 15-15z"/>
			<path id="rect5365" fill-rule="evenodd" class="s4" d="m1520 265.78h160c5.52 0 10 4.48 10 10v160c0 5.52-4.48 10-10 10h-160c-5.52 0-10-4.48-10-10v-160c0-5.52 4.48-10 10-10z"/>
			<path id="text5407" class="s0" d="m1581.67 281.83q-0.17 0.02-0.34 0.09-0.17 0.07-0.3 0.19-0.14 0.11-0.24 0.27-0.1 0.15-0.15 0.32 0 0 0 0.01 0 0 0 0 0 0 0 0 0 0.01 0 0.01c-3.99 0.56-7.76 3.03-11.19 8.52-3.6 5.86-6.31 14.28-8.39 24.76-9.8-3.39-18.33-5.29-25.22-5.17-7.25 0.12-12.3 1.98-14.56 5.95q0 0 0 0 0 0 0 0.01 0 0 0 0 0 0 0 0.01-1.17 2.14-1.17 4.8c0 3.18 1.17 6.73 3.38 10.71 3.27 6.05 9.13 12.53 16.95 19.39-7.94 6.99-13.87 13.51-17.14 19.51q0 0 0 0 0 0 0 0 0 0.01 0 0.01 0 0 0 0c-2.08 3.97-3.19 7.45-3.19 10.51q0 2.66 1.17 4.79 0 0.01 0 0.01 0 0 0 0 0 0.01 0 0.01 0 0 0 0c2.2 3.91 7.13 5.79 14.26 6.04q0 0 0 0 0 0 0.01 0 0 0 0 0 0 0 0.01 0c6.9 0.18 15.52-1.76 25.48-5.26 2.07 10.2 4.71 18.54 8.22 24.46q0 0 0 0.01 0 0 0 0 0 0 0 0 0 0.01 0 0.01c3.78 6.24 7.94 9.69 12.54 9.69 4.54 0 8.64-3.45 12.36-9.69q0 0 0-0.01 0 0 0 0 0 0 0 0 0-0.01 0-0.01c3.5-5.92 6.16-14.27 8.24-24.48 10.05 3.46 18.69 5.38 25.55 5.2 7.12-0.19 12.05-2.04 14.26-5.94v-0.02c0.85-1.42 1.27-3.09 1.27-4.92 0-3.06-1.1-6.5-3.18-10.41q0-0.01 0-0.01 0 0 0 0 0-0.01 0-0.01 0 0 0 0c-3.35-6.03-9.33-12.53-17.34-19.5 7.83-6.88 13.78-13.37 17.16-19.47h-0.02c2.21-3.91 3.38-7.41 3.38-10.54 0-1.82-0.42-3.49-1.27-4.92-2.28-3.97-7.33-5.81-14.63-5.93-6.88-0.13-15.42 1.78-25.24 5.15-2.08-10.47-4.77-18.88-8.37-24.74-3.72-6.05-7.75-9.41-12.17-9.41q-0.02 0-0.03 0-0.02 0-0.03 0-0.02 0-0.03 0-0.02 0-0.04 0zm0.13 7.09c1.13 0 2.32 0.51 3.65 1.75 1.32 1.24 2.72 3.21 4.12 5.9 2.62 4.95 4.72 12.37 6.34 21.68q-7.09 2.71-14.09 6.18c-4.8-2.32-9.57-4.36-14.32-6.18 1.63-9.31 3.73-16.73 6.34-21.68 1.41-2.69 2.81-4.66 4.17-5.9 1.35-1.24 2.57-1.75 3.79-1.75zm-45.79 28.31q1.03-0.01 2.18 0.04c5.65 0.29 12.99 2.18 21.59 5.33q-1.13 7.55-1.66 15.4-6.57 4.43-12.47 9.17c-7.09-5.87-12.42-11.29-15.5-16.08q0 0 0-0.01 0 0 0 0 0 0 0-0.01 0 0 0 0c-1.67-2.56-2.68-4.77-3.08-6.57-0.4-1.8-0.22-3.14 0.43-4.22q0 0 0 0 0 0 0-0.01 0.01 0 0.01 0 0 0 0-0.01c0.59-1.03 1.64-1.83 3.41-2.37q1.99-0.61 5.09-0.66zm91.49 0q3.1 0.05 5.11 0.66c1.77 0.54 2.85 1.34 3.47 2.37 0.62 1.08 0.81 2.42 0.39 4.22-0.41 1.81-1.45 4.03-3.12 6.59q0 0 0 0 0 0.01 0 0.01 0 0 0 0 0 0.01 0 0.01c-3.08 4.85-8.44 10.3-15.58 16.17q-5.9-4.75-12.47-9.19-0.54-7.92-1.76-15.47c8.6-3.15 15.99-5.04 21.76-5.33h0.01q1.16-0.05 2.19-0.04zm-30.51 7.89q0.51 4.02 0.85 8.16-1.99-1.22-3.98-2.48-0.01 0-0.01-0.01-0.01 0-0.02 0 0-0.01-0.01-0.01-0.01-0.01-0.01-0.01c-1.48-0.82-2.89-1.57-4.31-2.34q3.79-1.74 7.49-3.31zm-30.55 0.07q3.7 1.53 7.49 3.26c-1.4 0.77-2.8 1.52-4.23 2.34q0 0-0.01 0 0 0-0.01 0.01 0 0-0.01 0 0 0-0.01 0-2.06 1.27-4.09 2.5 0.36-4.14 0.87-8.11zm15.16 7.08q4.32 2.24 8.63 4.64 4.2 2.42 8.25 5 0.24 4.81 0.25 9.79-0.01 4.91-0.25 9.73-3.96 2.56-8.25 4.97-0.01 0-0.01 0.01 0 0 0 0-0.01 0-0.01 0.01 0 0 0 0c-2.81 1.66-5.63 3.21-8.43 4.71q-4.36-2.23-8.47-4.71 0 0-0.01 0-0.01-0.01-0.01-0.01-0.01 0-0.02 0 0-0.01-0.01-0.01-4.37-2.41-8.32-4.97-0.16-4.83-0.16-9.73 0-4.98 0.16-9.79 4.04-2.58 8.34-5 0 0 0 0 0 0 0.01 0 0 0 0 0 0 0 0.01 0 4.11-2.4 8.3-4.64zm0.2 11.23c-1.43 0-2.81 0.38-4.08 1.08-1.29 0.66-2.33 1.68-3.04 2.96q-1.08 1.93-1.08 4.16c0 1.43 0.37 2.82 1.08 4.09q0 0.01 0 0.01 0.01 0 0.01 0 0 0.01 0 0.01 0.01 0 0.01 0c0.72 1.23 1.75 2.22 3.02 2.93 1.27 0.7 2.65 1.07 4.08 1.07 1.37 0 2.72-0.37 3.98-1.07 1.28-0.71 2.31-1.7 3.03-2.93q0 0 0.01 0 0 0 0-0.01 0 0 0.01 0 0 0 0-0.01c0.71-1.27 1.08-2.66 1.08-4.09q-0.01-2.23-1.08-4.16c-0.71-1.29-1.75-2.3-3.05-2.96-1.26-0.7-2.61-1.08-3.98-1.08zm-24.07 3.33q-0.05 2.42-0.06 4.87 0.01 2.4 0.06 4.8c-2.29-1.58-4.53-3.17-6.66-4.8q3.2-2.49 6.66-4.87zm47.97 0q3.48 2.38 6.74 4.87c-2.17 1.64-4.43 3.22-6.74 4.8 0.06-1.6 0.13-3.2 0.13-4.8 0-1.64-0.07-3.25-0.13-4.87zm-60.12 9.32q5.97 4.75 12.54 9.19 0.53 7.83 1.66 15.37c-8.77 3.22-16.21 5.11-21.85 5.34q-4.53 0.16-7.14-0.66c-1.74-0.54-2.78-1.33-3.37-2.34-0.58-1.01-0.75-2.31-0.35-4.09 0.4-1.78 1.38-3.99 2.99-6.55q0.01-0.01 0.01-0.01 0 0 0 0 0.01 0 0.01-0.01 0 0 0 0c2.9-4.77 8.24-10.26 15.5-16.24zm72.26 0c7.26 5.99 12.64 11.48 15.6 16.26q0 0 0 0 0 0 0 0 0 0.01 0 0.01 0 0 0 0c1.64 2.57 2.65 4.77 3.05 6.54 0.4 1.77 0.22 3.07-0.39 4.07q0 0.01 0 0.01 0 0 0 0 0 0 0 0.01 0 0 0 0c-0.59 1.01-1.65 1.8-3.39 2.34q-2.61 0.82-7.13 0.66c-5.65-0.23-13.11-2.12-21.95-5.34q1.14-7.54 1.67-15.37 6.57-4.44 12.54-9.19zm-52.27 13.87c1.36 0.84 2.7 1.71 4.13 2.53 1.39 0.82 2.82 1.58 4.23 2.34q-3.79 1.74-7.51 3.31-0.5-4.03-0.85-8.18zm32.27 0.01q-0.34 4.15-0.85 8.17-3.7-1.57-7.49-3.31c1.42-0.77 2.83-1.52 4.31-2.34q0 0 0 0 0-0.01 0-0.01 0.01 0 0.01 0 0-0.01 0-0.01c1.38-0.81 2.7-1.66 4.02-2.5zm-16.24 8.86c4.75 2.33 9.53 4.39 14.33 6.27-1.57 9.09-3.64 16.42-6.27 21.5q0 0 0 0 0 0.01 0 0.01 0 0 0 0 0 0.01 0 0.01c-1.37 2.71-2.77 4.7-4.11 5.95-1.34 1.25-2.55 1.77-3.75 1.77-1.25 0-2.5-0.53-3.86-1.79q-2.07-1.88-4.18-5.95c-2.63-5.08-4.71-12.41-6.27-21.5q7.09-2.8 14.11-6.27z"/>
			<path id="path5369" class="s0" d="m1505.5 395.78v31.5c0 11.63 9.37 21 21 21h147c11.63 0 21-9.37 21-21v-31.5z"/>
			<g id="text5373">
				<path id="path4608" class="s2" d="m1528.43 409.42q4.22 0 6.52 2.02 2.34 2.01 2.34 5.69 0 3.84-2.34 5.99-2.3 2.11-6.52 2.11h-4.9v6.59h-4.29v-22.4zm-0.22 12.03q2.43 0 3.71-1.05 1.31-1.06 1.31-3.14 0-2.05-1.31-3.07-1.28-1.03-3.71-1.03h-4.67v8.29z"/>
				<path id="path4610" class="s2" d="m1552.88 431.82l-3.87-6.62q-0.25 0.03-0.8 0.03h-5.05v6.59h-4.29v-22.4h9.34q4.35 0 6.72 2.02 2.37 2.01 2.37 5.69 0 2.63-1.15 4.48-1.12 1.86-3.3 2.79l4.93 7.42zm-9.73-10.37h5.06q2.43 0 3.71-1.05 1.28-1.06 1.28-3.14 0-2.05-1.28-3.07-1.28-1.03-3.71-1.03h-5.06z"/>
				<path id="path4612" class="s2" d="m1570.17 409.13q3.33 0 6.05 1.51 2.75 1.5 4.32 4.12 1.56 2.63 1.56 5.83 0 3.2-1.56 5.85-1.57 2.63-4.32 4.16-2.72 1.54-6.05 1.54-3.33 0-6.08-1.54-2.72-1.53-4.29-4.16-1.57-2.65-1.57-5.85 0-3.2 1.57-5.83 1.57-2.62 4.29-4.12 2.75-1.51 6.08-1.51zm0.06 3.84q-2.05 0-3.81 1.03-1.76 0.99-2.78 2.75-1.02 1.73-1.02 3.84 0 2.11 1.02 3.87 1.06 1.76 2.78 2.78 1.76 1.03 3.81 1.03 2.02 0 3.75-1.03 1.72-1.02 2.72-2.78 1.02-1.76 1.02-3.87 0-2.11-1.02-3.84-1-1.76-2.72-2.75-1.73-1.03-3.75-1.03z"/>
				<path id="path4614" class="s2" d="m1598.32 420.68h3.74v8.52q-1.76 1.31-4.16 2.14-2.4 0.8-4.7 0.8-3.3 0-6.02-1.54-2.69-1.53-4.25-4.16-1.57-2.65-1.57-5.85 0-3.2 1.6-5.79 1.6-2.63 4.35-4.13 2.78-1.54 6.14-1.54 2.4 0 4.74 0.87 2.34 0.86 4.03 2.36l-2.43 3.17q-1.28-1.21-2.98-1.89-1.66-0.67-3.36-0.67-2.11 0-3.9 1.03-1.76 0.99-2.78 2.75-1.03 1.76-1.03 3.84 0 2.11 1.03 3.87 1.05 1.76 2.81 2.78 1.76 1.03 3.91 1.03 1.15 0 2.4-0.35 1.28-0.39 2.43-1.06z"/>
				<path id="path4616" class="s2" d="m1619.01 431.82l-3.87-6.62q-0.26 0.03-0.8 0.03h-5.06v6.59h-4.29v-22.4h9.35q4.35 0 6.72 2.02 2.36 2.01 2.36 5.69 0 2.63-1.15 4.48-1.12 1.86-3.29 2.79l4.92 7.42zm-9.72-10.37h5.05q2.43 0 3.71-1.05 1.28-1.06 1.28-3.14 0-2.05-1.28-3.07-1.28-1.03-3.71-1.03h-5.05z"/>
				<path id="path4618" class="s2" d="m1626.12 409.42h16.41v3.74h-12.12v5.54h10.88v3.74h-10.88v5.64h12.51v3.74h-16.8z"/>
				<path id="path4620" class="s2" d="m1659.32 415.18q-1.73-1.06-3.55-1.63-1.79-0.58-3.17-0.58-1.53 0-2.43 0.58-0.9 0.57-0.9 1.6 0 0.93 0.61 1.57 0.64 0.6 1.57 1.02 0.96 0.38 2.59 0.86 2.27 0.68 3.71 1.35 1.48 0.67 2.5 1.98 1.02 1.31 1.02 3.46 0 2.05-1.12 3.58-1.08 1.51-3.04 2.31-1.92 0.8-4.41 0.8-2.63 0-5.12-0.96-2.5-1-4.35-2.63l1.79-3.65q1.69 1.57 3.81 2.47 2.11 0.89 3.93 0.89 1.79 0 2.82-0.67 1.02-0.7 1.02-1.89 0-0.96-0.64-1.56-0.61-0.64-1.57-1.03-0.96-0.38-2.62-0.86-2.27-0.67-3.71-1.31-1.44-0.64-2.47-1.92-1.02-1.32-1.02-3.43 0-1.95 1.02-3.39 1.06-1.47 2.95-2.27 1.92-0.8 4.41-0.8 2.18 0 4.29 0.64 2.15 0.64 3.81 1.73z"/>
				<path id="path4622" class="s2" d="m1677.45 415.18q-1.73-1.06-3.55-1.63-1.8-0.58-3.17-0.58-1.54 0-2.43 0.58-0.9 0.57-0.9 1.6 0 0.93 0.61 1.57 0.64 0.6 1.56 1.02 0.96 0.38 2.6 0.86 2.27 0.68 3.71 1.35 1.47 0.67 2.49 1.98 1.03 1.31 1.03 3.46 0 2.05-1.12 3.58-1.09 1.51-3.04 2.31-1.92 0.8-4.42 0.8-2.62 0-5.12-0.96-2.49-1-4.35-2.63l1.79-3.65q1.7 1.57 3.81 2.47 2.11 0.89 3.94 0.89 1.79 0 2.81-0.67 1.03-0.7 1.03-1.89 0-0.96-0.64-1.56-0.61-0.64-1.57-1.03-0.96-0.38-2.63-0.86-2.27-0.67-3.71-1.31-1.44-0.64-2.46-1.92-1.03-1.32-1.03-3.43 0-1.95 1.03-3.39 1.05-1.47 2.94-2.27 1.92-0.8 4.42-0.8 2.17 0 4.29 0.64 2.14 0.64 3.8 1.73z"/>
			</g>
		</g>
		<path id="tspan4625-0-6" class="s2" aria-label="ORD"  d="m-995.1-285q-3.2 0-5.2 2.4-1.9 2.4-1.9 6.6 0 4.2 1.9 6.6 2 2.4 5.2 2.4 3.3 0 5.2-2.4 1.9-2.4 1.9-6.6 0-4.2-1.9-6.6-1.9-2.4-5.2-2.4zm0-2.4q4.7 0 7.4 3.1 2.8 3.1 2.8 8.3 0 5.2-2.8 8.3-2.7 3.1-7.4 3.1-4.6 0-7.4-3.1-2.8-3.1-2.8-8.3 0-5.2 2.8-8.3 2.8-3.1 7.4-3.1zm25.5 12.1q1 0.3 1.9 1.4 0.9 1 1.8 2.9l3 6h-3.2l-2.8-5.7q-1.1-2.2-2.1-2.9-1-0.7-2.8-0.7h-3.3v9.3h-2.9v-22h6.7q3.8 0 5.6 1.5 1.9 1.6 1.9 4.8 0 2.1-1 3.5-0.9 1.3-2.8 1.9zm-3.7-9.3h-3.8v7.8h3.8q2.2 0 3.2-1 1.2-1 1.2-2.9 0-1.9-1.2-2.9-1-1-3.2-1zm20.9 0h-3.7v17.1h3.7q4.5 0 6.6-2 2.2-2.1 2.2-6.5 0-4.5-2.2-6.5-2.1-2.1-6.6-2.1zm-6.6 19.6v-22h6.1q6.4 0 9.4 2.6 3 2.7 3 8.4 0 5.7-3 8.3-3 2.7-9.4 2.7z"/>
	</g>
</svg>