<svg version="1.2" xmlns="http://www.w3.org/2000/svg" viewBox="0 0 200 204" width="200" height="204">
	<style>
		.s0 { fill: #222222 } 
		.s1 { fill: #a46422 } 
		.s2 { fill: #eeeeee } 
		.s3 { opacity: .99;fill: #1d1c20 } 
		.s4 { fill: #9c27b0 } 
	</style>
	<g id="layer1">
		<g id="g5175">
			<path id="rect5163" fill-rule="evenodd" class="s0" d="m15 3.78h170c8.28 0 15 6.72 15 15v170c0 8.28-6.72 15-15 15h-170c-8.28 0-15-6.72-15-15v-170c0-8.28 6.72-15 15-15z"/>
			<path id="rect5165" fill-rule="evenodd" class="s1" d="m20 13.78h160c5.52 0 10 4.48 10 10v160c0 5.52-4.48 10-10 10h-160c-5.52 0-10-4.48-10-10v-160c0-5.52 4.48-10 10-10z"/>
			<path id="rect5205-3-6" class="s0" d="m5.5 143.78v31.5c0 11.63 9.37 21 21 21h147c11.63 0 21-9.37 21-21v-31.5z"/>
			<path id="POPULIST" class="s2" aria-label="POPULIST"  d="m27.8 179h-3.9v-21.2h8.6q2.8 0 4.9 0.9 2 0.9 3 2.6 1.2 1.7 1.2 4.1 0 2.3-1.2 4-1 1.7-3 2.6-2.1 0.9-4.9 0.9h-6.5l1.8-1.8zm0-19.8v12.2l-1.8-1.9h6.4q2.6 0 3.9-1.1 1.3-1.1 1.3-3.1 0-2-1.3-3.1-1.3-1.1-3.9-1.1h-6.4zm28 20.1q-2.5 0-4.6-0.8-2.1-0.9-3.6-2.3-1.5-1.5-2.4-3.4-0.8-2.1-0.8-4.4 0-2.4 0.8-4.3 0.9-2 2.4-3.5 1.6-1.5 3.6-2.3 2.1-0.8 4.6-0.8 2.5 0 4.5 0.8 2.1 0.8 3.6 2.3 1.6 1.5 2.4 3.5 0.9 1.9 0.9 4.3 0 2.4-0.9 4.4-0.8 1.9-2.4 3.4-1.5 1.5-3.6 2.3-2 0.8-4.5 0.8zm0-3.5q1.6 0 2.9-0.5 1.4-0.6 2.4-1.6 1-1 1.5-2.3 0.6-1.4 0.6-3 0-1.6-0.6-3-0.5-1.3-1.5-2.3-1-1-2.4-1.6-1.3-0.6-2.9-0.6-1.6 0-3 0.6-1.3 0.6-2.3 1.6-1.1 1-1.6 2.3-0.6 1.4-0.6 3 0 1.6 0.6 3 0.5 1.3 1.5 2.3 1.1 1.1 2.4 1.6 1.4 0.5 3 0.5zm20 3.2h-3.9v-21.2h8.7q2.8 0 4.8 0.9 2 0.9 3.1 2.6 1.1 1.7 1.1 4 0 2.4-1.1 4.1-1.1 1.7-3.1 2.6-2 0.9-4.8 0.9h-6.5l1.7-1.9zm0-19.7v12.2l-1.7-1.9h6.3q2.6 0 3.9-1.1 1.3-1.1 1.3-3.1 0-2-1.3-3.1-1.3-1.1-3.9-1.1h-6.3zm26.1 20.1q-4.3 0-6.8-2.5-2.4-2.4-2.4-7.1v-11.9h3.9v11.8q0 3.3 1.4 4.8 1.4 1.4 4 1.4 2.5 0 3.9-1.4 1.4-1.5 1.4-4.8v-11.8h3.9v11.9q0 4.7-2.5 7.1-2.4 2.5-6.8 2.5zm29.9-0.3h-15v-21.2h4v17.8h11zm7 0h-4v-21.1h4zm12.6 0.3q-2.5 0-4.7-0.7-2.3-0.7-3.7-1.9l1.4-3q1.3 1 3.2 1.7 1.8 0.6 3.8 0.6 1.7 0 2.7-0.3 1-0.4 1.5-1 0.5-0.7 0.5-1.4 0-1-0.7-1.6-0.7-0.6-1.8-0.9-1.1-0.4-2.5-0.7-1.3-0.3-2.7-0.7-1.3-0.4-2.4-1-1.1-0.7-1.8-1.8-0.7-1.1-0.7-2.8 0-1.7 0.9-3.1 0.9-1.5 2.8-2.3 1.9-0.9 4.8-0.9 1.9 0 3.8 0.5 1.9 0.5 3.3 1.4l-1.3 3q-1.4-0.8-2.9-1.2-1.5-0.4-2.9-0.4-1.6 0-2.7 0.4-1 0.4-1.4 1-0.5 0.6-0.5 1.4 0 1 0.7 1.6 0.7 0.6 1.8 0.9 1.1 0.4 2.4 0.7 1.4 0.3 2.7 0.7 1.4 0.4 2.5 1 1.1 0.7 1.8 1.8 0.7 1 0.7 2.7 0 1.7-1 3.1-0.9 1.4-2.8 2.3-1.9 0.9-4.8 0.9zm20.7-0.3h-4v-17.9h-7v-3.3h18v3.3h-7z"/>
			<path id="Path 0" class="s3" d="m34.05 38.58c-3.05 2.26-3.43 3.06-3.29 6.74 0.09 2.42 0.98 5.23 2.11 6.68 1.59 2.03 2.83 2.5 6.63 2.5 3.85 0 5.1-0.49 7.09-2.75 1.56-1.79 2.41-3.98 2.41-6.25 0-2.56-0.81-4.31-3-6.5-1.89-1.89-4.02-3-5.75-2.99-1.51 0.01-4.3 1.16-6.2 2.57zm59.7-0.08c-1.51 1.38-2.97 3.85-3.25 5.5-0.31 1.85 0.19 4.25 1.3 6.25 1.24 2.25 2.86 3.51 5.25 4.09 2.17 0.53 4.47 0.44 6.2-0.25 1.51-0.6 3.48-2.55 4.37-4.34 1.32-2.66 1.41-3.93 0.5-7-0.76-2.55-2.08-4.23-4.12-5.25-1.65-0.83-4.01-1.5-5.25-1.5-1.24 0-3.49 1.13-5 2.5zm59.26 0.4c-2.53 2.3-3.18 3.65-3.11 6.5 0.07 2.59 0.94 4.44 3.1 6.6 1.87 1.87 4.03 3 5.75 3.01 1.51 0 3.88-0.76 5.25-1.69 1.38-0.94 2.83-2.18 3.23-2.76 0.41-0.58 0.75-2.97 0.75-5.31 0.02-3.51-0.5-4.69-2.98-6.75-1.68-1.4-4.27-2.5-5.89-2.5-1.79 0-4.11 1.11-6.1 2.9zm-141.43 8.18c-1.19 0.63-1.86 1.95-1.75 3.47 0.09 1.35 1.26 3.24 2.6 4.2 1.33 0.96 6.04 4.23 10.46 7.25l8.04 5.5c0.03 19.83-0.83 29.73-2.46 40.5l-2.5 16.5c3.51 2.78 4.76 3.59 5.03 3.59 0.28 0 1-0.58 1.62-1.3 0.61-0.71 1.62-3.54 2.23-6.29 0.61-2.75 1.61-8.83 2.23-13.5 0.62-4.67 1.31-9.06 1.52-9.75 0.22-0.69 0.74-1.26 1.15-1.26 0.41-0.01 1.34 3.7 2.06 8.25 0.72 4.54 1.74 10.96 2.26 14.26 0.52 3.3 1.5 6.58 2.19 7.29 0.68 0.72 2.25 1.28 3.49 1.25 1.49-0.02 2.43-0.8 2.79-2.29 0.29-1.24-0.61-10.24-2-20-1.4-9.76-2.53-21.91-2.52-27l0.02-9.25c5.78-4.74 10.08-7.89 13.29-10.06 3.21-2.17 6.36-4.34 7-4.82 0.77-0.58 4.79 1.68 11.67 6.55l10.5 7.44c-0.11 21.71-0.98 32.57-2.32 41.64-1.2 8.11-1.97 15.31-1.72 16 0.26 0.69 1.16 1.59 2 2 0.85 0.41 2.44 0.3 3.54-0.25 1.49-0.74 2.24-2.6 2.96-7.25 0.52-3.44 1.54-10.19 2.25-15.01 0.71-4.82 1.74-8.77 2.29-8.77 0.55 0 1.56 3.94 2.25 8.77 0.69 4.82 1.7 11.57 2.25 15.01 0.79 4.93 1.48 6.48 3.25 7.34 1.82 0.89 2.59 0.74 4.02-0.75 1.69-1.76 1.65-2.64-0.8-20.34-1.73-12.46-2.47-21.73-2.27-28.41l0.3-9.92c17.92-13.08 21.3-15.01 22.04-14.25 0.57 0.59 5.47 4.23 10.88 8.08l9.85 7c-0.84 18.6-2.14 31.03-3.42 39.63-2.09 13.93-2.19 15.81-0.85 17.3 0.83 0.91 2.18 1.66 3 1.66 0.83 0 2.04-0.58 2.69-1.3 0.66-0.71 2.17-7.59 3.36-15.29 1.19-7.7 2.36-14.22 2.61-14.5 0.25-0.28 0.84 0.17 1.32 1 0.47 0.83 1.39 5.55 2.04 10.5 0.64 4.95 1.56 11.03 2.05 13.5 0.48 2.47 1.45 5.06 2.15 5.75 0.77 0.76 2.04 0.96 3.17 0.5 1.04-0.41 2.24-1.42 2.67-2.25 0.43-0.83-0.29-8.47-1.61-17-1.58-10.26-2.39-19.73-2.38-28l0.02-12.5c19.57-13.97 20.98-15.34 20.72-17.5-0.24-1.97-0.95-2.56-3.31-2.78-2.33-0.22-4.89 1.09-11.5 5.88-7.53 5.46-8.76 6.03-10.75 5.03-1.24-0.62-3.15-1.13-4.25-1.13-1.1 0-2.79 0.51-3.75 1.13-1.45 0.94-3.28 0.09-10.75-4.98-4.95-3.36-10.01-6.12-11.25-6.13-1.24-0.01-2.47 0.43-2.75 0.98-0.31 0.61-1.51 0.4-3.09-0.55-2.53-1.51-2.85-1.38-12.25 5.11-7.99 5.5-9.96 6.46-11.41 5.55-0.96-0.61-2.87-1.11-4.25-1.11-1.37 0-3.4 0.45-4.5 1-1.66 0.83-3.51-0.04-10.75-5.03-4.81-3.31-9.67-6.01-10.8-6-1.13 0.02-2.54 0.59-3.14 1.28-0.88 1-1.22 1-1.7 0-0.34-0.69-1.62-1.24-2.86-1.23-1.24 0.01-6.3 2.77-11.25 6.13-7.47 5.07-9.3 5.92-10.75 4.98-0.96-0.62-2.87-1.13-4.25-1.13-1.37 0-3.29 0.5-4.25 1.12-1.45 0.92-3.36-0.01-11.25-5.52-5.22-3.65-9.72-6.61-10-6.59-0.27 0.03-1.36 0.51-2.42 1.07z"/>
		</g>
		<g id="g5375">
			<path id="rect5363" fill-rule="evenodd" class="s0" d="m1515 255.78h170c8.28 0 15 6.72 15 15v170c0 8.28-6.72 15-15 15h-170c-8.28 0-15-6.72-15-15v-170c0-8.28 6.72-15 15-15z"/>
			<path id="rect5365" fill-rule="evenodd" class="s4" d="m1520 265.78h160c5.52 0 10 4.48 10 10v160c0 5.52-4.48 10-10 10h-160c-5.52 0-10-4.48-10-10v-160c0-5.52 4.48-10 10-10z"/>
			<path id="text5407" class="s0" d="m1581.67 281.83q-0.17 0.02-0.34 0.09-0.17 0.07-0.3 0.19-0.14 0.11-0.24 0.27-0.1 0.15-0.15 0.32 0 0 0 0.01 0 0 0 0 0 0 0 0 0 0.01 0 0.01c-3.99 0.56-7.76 3.03-11.19 8.52-3.6 5.86-6.31 14.28-8.39 24.76-9.8-3.39-18.33-5.29-25.22-5.17-7.25 0.12-12.3 1.98-14.56 5.95q0 0 0 0 0 0 0 0.01 0 0 0 0 0 0 0 0.01-1.17 2.14-1.17 4.8c0 3.18 1.17 6.73 3.38 10.71 3.27 6.05 9.13 12.53 16.95 19.39-7.94 6.99-13.87 13.51-17.14 19.51q0 0 0 0 0 0 0 0 0 0.01 0 0.01 0 0 0 0c-2.08 3.97-3.19 7.45-3.19 10.51q0 2.66 1.17 4.79 0 0.01 0 0.01 0 0 0 0 0 0.01 0 0.01 0 0 0 0c2.2 3.91 7.13 5.79 14.26 6.04q0 0 0 0 0 0 0.01 0 0 0 0 0 0 0 0.01 0c6.9 0.18 15.52-1.76 25.48-5.26 2.07 10.2 4.71 18.54 8.22 24.46q0 0 0 0.01 0 0 0 0 0 0 0 0 0 0.01 0 0.01c3.78 6.24 7.94 9.69 12.54 9.69 4.54 0 8.64-3.45 12.36-9.69q0 0 0-0.01 0 0 0 0 0 0 0 0 0-0.01 0-0.01c3.5-5.92 6.16-14.27 8.24-24.48 10.05 3.46 18.69 5.38 25.55 5.2 7.12-0.19 12.05-2.04 14.26-5.94v-0.02c0.85-1.42 1.27-3.09 1.27-4.92 0-3.06-1.1-6.5-3.18-10.41q0-0.01 0-0.01 0 0 0 0 0-0.01 0-0.01 0 0 0 0c-3.35-6.03-9.33-12.53-17.34-19.5 7.83-6.88 13.78-13.37 17.16-19.47h-0.02c2.21-3.91 3.38-7.41 3.38-10.54 0-1.82-0.42-3.49-1.27-4.92-2.28-3.97-7.33-5.81-14.63-5.93-6.88-0.13-15.42 1.78-25.24 5.15-2.08-10.47-4.77-18.88-8.37-24.74-3.72-6.05-7.75-9.41-12.17-9.41q-0.02 0-0.03 0-0.02 0-0.03 0-0.02 0-0.03 0-0.02 0-0.04 0zm0.13 7.09c1.13 0 2.32 0.51 3.65 1.75 1.32 1.24 2.72 3.21 4.12 5.9 2.62 4.95 4.72 12.37 6.34 21.68q-7.09 2.71-14.09 6.18c-4.8-2.32-9.57-4.36-14.32-6.18 1.63-9.31 3.73-16.73 6.34-21.68 1.41-2.69 2.81-4.66 4.17-5.9 1.35-1.24 2.57-1.75 3.79-1.75zm-45.79 28.31q1.03-0.01 2.18 0.04c5.65 0.29 12.99 2.18 21.59 5.33q-1.13 7.55-1.66 15.4-6.57 4.43-12.47 9.17c-7.09-5.87-12.42-11.29-15.5-16.08q0 0 0-0.01 0 0 0 0 0 0 0-0.01 0 0 0 0c-1.67-2.56-2.68-4.77-3.08-6.57-0.4-1.8-0.22-3.14 0.43-4.22q0 0 0 0 0 0 0-0.01 0.01 0 0.01 0 0 0 0-0.01c0.59-1.03 1.64-1.83 3.41-2.37q1.99-0.61 5.09-0.66zm91.49 0q3.1 0.05 5.11 0.66c1.77 0.54 2.85 1.34 3.47 2.37 0.62 1.08 0.81 2.42 0.39 4.22-0.41 1.81-1.45 4.03-3.12 6.59q0 0 0 0 0 0.01 0 0.01 0 0 0 0 0 0.01 0 0.01c-3.08 4.85-8.44 10.3-15.58 16.17q-5.9-4.75-12.47-9.19-0.54-7.92-1.76-15.47c8.6-3.15 15.99-5.04 21.76-5.33h0.01q1.16-0.05 2.19-0.04zm-30.51 7.89q0.51 4.02 0.85 8.16-1.99-1.22-3.98-2.48-0.01 0-0.01-0.01-0.01 0-0.02 0 0-0.01-0.01-0.01-0.01-0.01-0.01-0.01c-1.48-0.82-2.89-1.57-4.31-2.34q3.79-1.74 7.49-3.31zm-30.55 0.07q3.7 1.53 7.49 3.26c-1.4 0.77-2.8 1.52-4.23 2.34q0 0-0.01 0 0 0-0.01 0.01 0 0-0.01 0 0 0-0.01 0-2.06 1.27-4.09 2.5 0.36-4.14 0.87-8.11zm15.16 7.08q4.32 2.24 8.63 4.64 4.2 2.42 8.25 5 0.24 4.81 0.25 9.79-0.01 4.91-0.25 9.73-3.96 2.56-8.25 4.97-0.01 0-0.01 0.01 0 0 0 0-0.01 0-0.01 0.01 0 0 0 0c-2.81 1.66-5.63 3.21-8.43 4.71q-4.36-2.23-8.47-4.71 0 0-0.01 0-0.01-0.01-0.01-0.01-0.01 0-0.02 0 0-0.01-0.01-0.01-4.37-2.41-8.32-4.97-0.16-4.83-0.16-9.73 0-4.98 0.16-9.79 4.04-2.58 8.34-5 0 0 0 0 0 0 0.01 0 0 0 0 0 0 0 0.01 0 4.11-2.4 8.3-4.64zm0.2 11.23c-1.43 0-2.81 0.38-4.08 1.08-1.29 0.66-2.33 1.68-3.04 2.96q-1.08 1.93-1.08 4.16c0 1.43 0.37 2.82 1.08 4.09q0 0.01 0 0.01 0.01 0 0.01 0 0 0.01 0 0.01 0.01 0 0.01 0c0.72 1.23 1.75 2.22 3.02 2.93 1.27 0.7 2.65 1.07 4.08 1.07 1.37 0 2.72-0.37 3.98-1.07 1.28-0.71 2.31-1.7 3.03-2.93q0 0 0.01 0 0 0 0-0.01 0 0 0.01 0 0 0 0-0.01c0.71-1.27 1.08-2.66 1.08-4.09q-0.01-2.23-1.08-4.16c-0.71-1.29-1.75-2.3-3.05-2.96-1.26-0.7-2.61-1.08-3.98-1.08zm-24.07 3.33q-0.05 2.42-0.06 4.87 0.01 2.4 0.06 4.8c-2.29-1.58-4.53-3.17-6.66-4.8q3.2-2.49 6.66-4.87zm47.97 0q3.48 2.38 6.74 4.87c-2.17 1.64-4.43 3.22-6.74 4.8 0.06-1.6 0.13-3.2 0.13-4.8 0-1.64-0.07-3.25-0.13-4.87zm-60.12 9.32q5.97 4.75 12.54 9.19 0.53 7.83 1.66 15.37c-8.77 3.22-16.21 5.11-21.85 5.34q-4.53 0.16-7.14-0.66c-1.74-0.54-2.78-1.33-3.37-2.34-0.58-1.01-0.75-2.31-0.35-4.09 0.4-1.78 1.38-3.99 2.99-6.55q0.01-0.01 0.01-0.01 0 0 0 0 0.01 0 0.01-0.01 0 0 0 0c2.9-4.77 8.24-10.26 15.5-16.24zm72.26 0c7.26 5.99 12.64 11.48 15.6 16.26q0 0 0 0 0 0 0 0 0 0.01 0 0.01 0 0 0 0c1.64 2.57 2.65 4.77 3.05 6.54 0.4 1.77 0.22 3.07-0.39 4.07q0 0.01 0 0.01 0 0 0 0 0 0 0 0.01 0 0 0 0c-0.59 1.01-1.65 1.8-3.39 2.34q-2.61 0.82-7.13 0.66c-5.65-0.23-13.11-2.12-21.95-5.34q1.14-7.54 1.67-15.37 6.57-4.44 12.54-9.19zm-52.27 13.87c1.36 0.84 2.7 1.71 4.13 2.53 1.39 0.82 2.82 1.58 4.23 2.34q-3.79 1.74-7.51 3.31-0.5-4.03-0.85-8.18zm32.27 0.01q-0.34 4.15-0.85 8.17-3.7-1.57-7.49-3.31c1.42-0.77 2.83-1.52 4.31-2.34q0 0 0 0 0-0.01 0-0.01 0.01 0 0.01 0 0-0.01 0-0.01c1.38-0.81 2.7-1.66 4.02-2.5zm-16.24 8.86c4.75 2.33 9.53 4.39 14.33 6.27-1.57 9.09-3.64 16.42-6.27 21.5q0 0 0 0 0 0.01 0 0.01 0 0 0 0 0 0.01 0 0.01c-1.37 2.71-2.77 4.7-4.11 5.95-1.34 1.25-2.55 1.77-3.75 1.77-1.25 0-2.5-0.53-3.86-1.79q-2.07-1.88-4.18-5.95c-2.63-5.08-4.71-12.41-6.27-21.5q7.09-2.8 14.11-6.27z"/>
			<path id="path5369" class="s0" d="m1505.5 395.78v31.5c0 11.63 9.37 21 21 21h147c11.63 0 21-9.37 21-21v-31.5z"/>
			<g id="text5373">
				<path id="path4608" class="s2" d="m1528.43 409.42q4.22 0 6.52 2.02 2.34 2.01 2.34 5.69 0 3.84-2.34 5.99-2.3 2.11-6.52 2.11h-4.9v6.59h-4.29v-22.4zm-0.22 12.03q2.43 0 3.71-1.05 1.31-1.06 1.31-3.14 0-2.05-1.31-3.07-1.28-1.03-3.71-1.03h-4.67v8.29z"/>
				<path id="path4610" class="s2" d="m1552.88 431.82l-3.87-6.62q-0.25 0.03-0.8 0.03h-5.05v6.59h-4.29v-22.4h9.34q4.35 0 6.72 2.02 2.37 2.01 2.37 5.69 0 2.63-1.15 4.48-1.12 1.86-3.3 2.79l4.93 7.42zm-9.73-10.37h5.06q2.43 0 3.71-1.05 1.28-1.06 1.28-3.14 0-2.05-1.28-3.07-1.28-1.03-3.71-1.03h-5.06z"/>
				<path id="path4612" class="s2" d="m1570.17 409.13q3.33 0 6.05 1.51 2.75 1.5 4.32 4.12 1.56 2.63 1.56 5.83 0 3.2-1.56 5.85-1.57 2.63-4.32 4.16-2.72 1.54-6.05 1.54-3.33 0-6.08-1.54-2.72-1.53-4.29-4.16-1.57-2.65-1.57-5.85 0-3.2 1.57-5.83 1.57-2.62 4.29-4.12 2.75-1.51 6.08-1.51zm0.06 3.84q-2.05 0-3.81 1.03-1.76 0.99-2.78 2.75-1.02 1.73-1.02 3.84 0 2.11 1.02 3.87 1.06 1.76 2.78 2.78 1.76 1.03 3.81 1.03 2.02 0 3.75-1.03 1.72-1.02 2.72-2.78 1.02-1.76 1.02-3.87 0-2.11-1.02-3.84-1-1.76-2.72-2.75-1.73-1.03-3.75-1.03z"/>
				<path id="path4614" class="s2" d="m1598.32 420.68h3.74v8.52q-1.76 1.31-4.16 2.14-2.4 0.8-4.7 0.8-3.3 0-6.02-1.54-2.69-1.53-4.25-4.16-1.57-2.65-1.57-5.85 0-3.2 1.6-5.79 1.6-2.63 4.35-4.13 2.78-1.54 6.14-1.54 2.4 0 4.74 0.87 2.34 0.86 4.03 2.36l-2.43 3.17q-1.28-1.21-2.98-1.89-1.66-0.67-3.36-0.67-2.11 0-3.9 1.03-1.76 0.99-2.78 2.75-1.03 1.76-1.03 3.84 0 2.11 1.03 3.87 1.05 1.76 2.81 2.78 1.76 1.03 3.91 1.03 1.15 0 2.4-0.35 1.28-0.39 2.43-1.06z"/>
				<path id="path4616" class="s2" d="m1619.01 431.82l-3.87-6.62q-0.26 0.03-0.8 0.03h-5.06v6.59h-4.29v-22.4h9.35q4.35 0 6.72 2.02 2.36 2.01 2.36 5.69 0 2.63-1.15 4.48-1.12 1.86-3.29 2.79l4.92 7.42zm-9.72-10.37h5.05q2.43 0 3.71-1.05 1.28-1.06 1.28-3.14 0-2.05-1.28-3.07-1.28-1.03-3.71-1.03h-5.05z"/>
				<path id="path4618" class="s2" d="m1626.12 409.42h16.41v3.74h-12.12v5.54h10.88v3.74h-10.88v5.64h12.51v3.74h-16.8z"/>
				<path id="path4620" class="s2" d="m1659.32 415.18q-1.73-1.06-3.55-1.63-1.79-0.58-3.17-0.58-1.53 0-2.43 0.58-0.9 0.57-0.9 1.6 0 0.93 0.61 1.57 0.64 0.6 1.57 1.02 0.96 0.38 2.59 0.86 2.27 0.68 3.71 1.35 1.48 0.67 2.5 1.98 1.02 1.31 1.02 3.46 0 2.05-1.12 3.58-1.08 1.51-3.04 2.31-1.92 0.8-4.41 0.8-2.63 0-5.12-0.96-2.5-1-4.35-2.63l1.79-3.65q1.69 1.57 3.81 2.47 2.11 0.89 3.93 0.89 1.79 0 2.82-0.67 1.02-0.7 1.02-1.89 0-0.96-0.64-1.56-0.61-0.64-1.57-1.03-0.96-0.38-2.62-0.86-2.27-0.67-3.71-1.31-1.44-0.64-2.47-1.92-1.02-1.32-1.02-3.43 0-1.95 1.02-3.39 1.06-1.47 2.95-2.27 1.92-0.8 4.41-0.8 2.18 0 4.29 0.64 2.15 0.64 3.81 1.73z"/>
				<path id="path4622" class="s2" d="m1677.45 415.18q-1.73-1.06-3.55-1.63-1.8-0.58-3.17-0.58-1.54 0-2.43 0.58-0.9 0.57-0.9 1.6 0 0.93 0.61 1.57 0.64 0.6 1.56 1.02 0.96 0.38 2.6 0.86 2.27 0.68 3.71 1.35 1.47 0.67 2.49 1.98 1.03 1.31 1.03 3.46 0 2.05-1.12 3.58-1.09 1.51-3.04 2.31-1.92 0.8-4.42 0.8-2.62 0-5.12-0.96-2.49-1-4.35-2.63l1.79-3.65q1.7 1.57 3.81 2.47 2.11 0.89 3.94 0.89 1.79 0 2.81-0.67 1.03-0.7 1.03-1.89 0-0.96-0.64-1.56-0.61-0.64-1.57-1.03-0.96-0.38-2.63-0.86-2.27-0.67-3.71-1.31-1.44-0.64-2.46-1.92-1.03-1.32-1.03-3.43 0-1.95 1.03-3.39 1.05-1.47 2.94-2.27 1.92-0.8 4.42-0.8 2.17 0 4.29 0.64 2.14 0.64 3.8 1.73z"/>
			</g>
		</g>
		<path id="tspan4625-0-6" class="s2" aria-label="ORD"  d="m-995.1-285q-3.2 0-5.2 2.4-1.9 2.4-1.9 6.6 0 4.2 1.9 6.6 2 2.4 5.2 2.4 3.3 0 5.2-2.4 1.9-2.4 1.9-6.6 0-4.2-1.9-6.6-1.9-2.4-5.2-2.4zm0-2.4q4.7 0 7.4 3.1 2.8 3.1 2.8 8.3 0 5.2-2.8 8.3-2.7 3.1-7.4 3.1-4.6 0-7.4-3.1-2.8-3.1-2.8-8.3 0-5.2 2.8-8.3 2.8-3.1 7.4-3.1zm25.5 12.1q1 0.3 1.9 1.4 0.9 1 1.8 2.9l3 6h-3.2l-2.8-5.7q-1.1-2.2-2.1-2.9-1-0.7-2.8-0.7h-3.3v9.3h-2.9v-22h6.7q3.8 0 5.6 1.5 1.9 1.6 1.9 4.8 0 2.1-1 3.5-0.9 1.3-2.8 1.9zm-3.7-9.3h-3.8v7.8h3.8q2.2 0 3.2-1 1.2-1 1.2-2.9 0-1.9-1.2-2.9-1-1-3.2-1zm20.9 0h-3.7v17.1h3.7q4.5 0 6.6-2 2.2-2.1 2.2-6.5 0-4.5-2.2-6.5-2.1-2.1-6.6-2.1zm-6.6 19.6v-22h6.1q6.4 0 9.4 2.6 3 2.7 3 8.4 0 5.7-3 8.3-3 2.7-9.4 2.7z"/>
	</g>
</svg>