<svg version="1.2" xmlns="http://www.w3.org/2000/svg" viewBox="0 0 200 204" width="200" height="204">
	<style>
		.s0 { fill: #222222 } 
		.s1 { fill: #ffffff } 
		.s2 { fill: #000000 } 
		.s3 { fill: #eeeeee } 
		.s4 { fill: #9c27b0 } 
	</style>
	<g id="layer1">
		<g id="g5175">
			<path id="rect5163" fill-rule="evenodd" class="s0" d="m15 3.78h170c8.28 0 15 6.72 15 15v170c0 8.28-6.72 15-15 15h-170c-8.28 0-15-6.72-15-15v-170c0-8.28 6.72-15 15-15z"/>
			<path id="rect5165" fill-rule="evenodd" class="s1" d="m20 13.78h160c5.52 0 10 4.48 10 10v160c0 5.52-4.48 10-10 10h-160c-5.52 0-10-4.48-10-10v-160c0-5.52 4.48-10 10-10z"/>
			<path id="Path 0" class="s2" d="m166.22 19.03l-4.03 1.22-22.43 18.73c0.65-4.28 1.38-6.36 2.04-7.38 0.92-1.41 1.98-2.3 4.45-3.78 1.79-1.06 3.86-2.69 4.61-3.6 0.75-0.92 1.68-2.41 2.06-3.31 0.37-0.91 0.75-2.22 0.83-2.92 0.08-0.7 0.06-1.36-0.04-1.46-0.1-0.1-1.6 1.01-3.32 2.48-2.64 2.24-3.8 2.87-7.3 3.94-2.97 0.9-5.03 1.92-7.15 3.51-2.09 1.57-3.41 2.95-4.42 4.63-0.79 1.32-1.69 3.93-2 5.8-0.31 1.87-0.92 4.1-1.34 4.94-0.43 0.85-1.53 2.4-2.46 3.45-0.93 1.04-1.77 1.81-1.87 1.7-0.09-0.11 0.31-1.38 0.9-2.82 0.59-1.44 1.08-3.37 1.1-4.29 0.02-0.92-0.34-3.35-0.8-5.38-0.6-2.66-0.6-4.2-0.03-5.42 0.44-0.95 1.56-2.39 2.49-3.21 0.94-0.81 2.32-2.33 3.07-3.35 0.75-1.03 1.54-2.58 1.75-3.44 0.21-0.85 0.27-1.7 0.13-1.87-0.14-0.17-0.83 0.2-1.55 0.82-0.72 0.63-2.52 1.74-4 2.48-1.49 0.74-3.62 1.92-4.75 2.63-1.12 0.71-2.87 2.35-3.88 3.64-1.03 1.33-2.11 3.52-2.48 5.04-0.36 1.48-0.38 3.79-0.05 5.15 0.34 1.35 0.46 4.13 0.27 6.18-0.21 2.26-1.1 5.42-2.25 8.02-1.05 2.36-2.63 5.28-3.52 6.49-0.88 1.2-1.7 2.19-1.82 2.19-0.12-0.01-0.34-1.01-0.49-2.23-0.15-1.22-0.86-3.14-1.57-4.27-0.71-1.12-1.42-3.03-1.59-4.24-0.17-1.21 0.12-3.16 0.64-4.34 0.89-2.05 0.88-2.15-0.34-2-0.7 0.08-2.09 0.67-3.09 1.3-1.28 0.81-2.15 1.83-2.96 3.48-0.62 1.29-1.05 3.19-0.94 4.24 0.1 1.05 0.47 2.75 0.82 3.79 0.35 1.04 0.55 3.43 0.44 5.31-0.11 1.88-0.6 4.41-1.09 5.63-0.49 1.22-1.38 2.93-1.97 3.81l-1.08 1.6c-1.65-3.02-2.54-4.8-3.05-5.91-0.67-1.48-0.72-2.47-0.16-3.72 0.41-0.94 0.5-1.73 0.18-1.76-0.31-0.03-0.97 0.3-1.46 0.74-0.49 0.43-1.56 1.75-2.37 2.93-1.08 1.55-1.61 3.32-1.95 6.47-0.25 2.39-0.67 5.18-0.93 6.22-0.27 1.04-1.12 2.87-1.91 4.07-0.79 1.2-1.61 2.18-1.82 2.17-0.21-0.01 0.02-1.56 0.52-3.44 0.5-1.88 0.73-4.14 0.52-5.02-0.21-0.87-1.26-3.05-2.32-4.84-1.2-2-1.92-3.87-1.9-4.88 0.03-0.91 0.55-2.63 1.17-3.82 0.72-1.4 0.85-2.12 0.36-2.02-0.42 0.09-1.77 0.82-3 1.63-1.35 0.89-2.93 2.45-3.99 3.92-1.2 1.66-1.85 3.31-2.06 5.2-0.17 1.53 0.13 4.61 0.67 6.85 0.58 2.43 0.84 6.07 0.66 8.99-0.25 3.9-0.65 5.45-1.92 7.52-0.89 1.43-1.69 2.57-1.79 2.53-0.09-0.05-1.01-2.04-2.03-4.44-1.28-2.99-1.82-5.12-1.72-6.77 0.08-1.33-0.08-2.39-0.34-2.36-0.27 0.03-1.48 0.91-2.69 1.97-1.28 1.12-2.35 2.5-2.58 3.31-0.2 0.76-0.16 2.23 0.1 3.26 0.25 1.04 0.98 3.17 1.62 4.75 0.63 1.57 1.1 3.97 1.03 5.32-0.08 1.35-0.41 3.14-0.75 3.98-0.33 0.84-0.97 1.84-1.41 2.22-0.44 0.38-0.96 0.51-1.15 0.29-0.19-0.22-1.13-1.86-2.08-3.64-0.95-1.78-2-3.96-2.33-4.84-0.33-0.87-1.33-4.43-2.23-7.9-1.41-5.42-1.89-6.55-3.4-8.05-1.24-1.23-2.33-1.8-3.68-1.93-1.05-0.1-2.28 0.13-2.72 0.51-0.61 0.52-0.51 1.77 0.41 5.11 0.67 2.43 2.06 6.53 3.09 9.11 1.04 2.59 2.76 6.23 3.84 8.1 1.07 1.87 2.66 4.21 3.52 5.21l1.57 1.8-23.12 19.15c-0.04 2.87 0.44 3.75 2.45 6.07 1.93 2.23 2.91 2.99 4.31 3.36l1.82 0.47 22-20.03c3.27 3.41 6.22 5.83 8.65 7.59 2.44 1.75 5.69 3.84 7.21 4.64 1.53 0.81 4.41 2.19 6.41 3.08 2 0.88 3.94 1.5 4.31 1.36 0.36-0.13 0.94-0.92 1.29-1.75 0.4-0.98 0.32-2.21-0.23-3.5-0.47-1.09-1.16-2.35-1.53-2.8-0.38-0.44-2.17-1.42-3.99-2.16-1.82-0.74-5.09-2.18-7.26-3.19-2.18-1.02-5.52-3.03-7.42-4.47-1.91-1.44-3.44-2.8-3.4-3.03 0.03-0.22 0.96-0.63 2.07-0.91 1.1-0.28 3.45-0.2 5.22 0.17 1.78 0.37 4.44 1.07 5.92 1.55 2.25 0.73 3.38 0.68 6.91-0.33 2.64-0.75 5.1-1.04 6.53-0.78 1.27 0.23 2.37 0.23 2.45-0.01 0.08-0.24-0.4-1.07-1.07-1.84-0.67-0.78-1.96-1.72-2.86-2.09q-1.64-0.69-4.58 0.19c-1.61 0.48-3.47 0.8-4.13 0.71-1.06-0.14-1.16-0.26-0.91-1.05 0.16-0.48 0.56-1.12 0.89-1.4 0.34-0.29 1.61-0.82 2.84-1.19 1.4-0.43 3.65-0.38 6.07 0.11 2.16 0.44 4.85 0.53 6.15 0.21 1.4-0.35 3.7-1.57 5.78-3.07 1.9-1.37 3.96-2.74 4.56-3.05 0.61-0.3 0.95-0.73 0.76-0.95-0.19-0.22-1.2-0.53-2.24-0.69-1.04-0.16-3.43 0.01-5.3 0.37-1.87 0.37-4.23 0.44-5.25 0.16-1.02-0.28-2.08-0.78-2.37-1.11-0.41-0.48-0.13-0.85 1.41-1.82 1.06-0.68 2.45-1.35 3.08-1.51 0.64-0.16 2.66-0.38 4.49-0.51 1.82-0.12 4.18-0.5 5.23-0.85 1.06-0.34 3.99-1.7 6.52-3.02 3.8-1.98 5.09-2.38 7.39-2.31 1.54 0.05 3.5 0.44 4.35 0.86l1.55 0.76c-0.78-2.31-1.8-3.89-2.75-4.99-1.48-1.71-2.12-2.05-4.27-2.29-1.64-0.18-4.14 0.26-7.16 1.26-2.55 0.85-5.23 1.52-5.95 1.48-0.72-0.04-1.46-0.25-1.65-0.48-0.21-0.25 0.83-1.27 2.77-2.71 2.22-1.65 3.86-2.46 5.8-2.84 1.48-0.3 4.37-0.29 6.42 0.02 2.05 0.3 4.59 0.32 5.66 0.04 1.06-0.29 3.86-1.85 6.23-3.47 2.36-1.62 5.22-3.25 6.34-3.63 1.13-0.37 2.97-0.63 4.1-0.56 1.13 0.06 2.79 0.58 3.7 1.15 1.56 0.98 1.64 0.97 1.69-0.26 0.03-0.9-0.58-2.01-1.97-3.62-1.66-1.91-2.44-2.42-4.4-2.84-1.31-0.29-3.45-0.38-4.75-0.21-1.3 0.17-4.05 1.1-6.1 2.08-2.06 0.98-4.37 1.87-5.14 1.98-0.77 0.11-1.6-0.02-1.84-0.29-0.34-0.38 0.4-1.11 3.12-3.1 1.95-1.42 4.92-3.2 6.6-3.94 1.68-0.74 5.08-1.56 7.57-1.81 2.48-0.26 5.54-0.92 6.8-1.48 1.3-0.58 2.93-1.75 3.79-2.72 0.83-0.94 2.2-3.1 3.05-4.8 1.12-2.25 2.27-3.73 4.24-5.44 1.49-1.3 3.8-2.82 5.14-3.4 1.34-0.58 2.49-1.25 2.55-1.51 0.07-0.26-0.87-0.89-2.1-1.41-1.22-0.52-3.06-0.82-4.08-0.66-1.53 0.25-2.67 1-6.47 4.29-4.1 3.54-4.95 4.08-7.49 4.74-1.67 0.44-3.61 0.49-4.63 0.14-0.97-0.34-1.84-0.7-1.93-0.81-0.1-0.11 5.88-5.53 13.28-12.05l13.46-11.84c2.49-6.24 3.15-8.12 3.07-8.21-0.07-0.09-1.95 0.39-4.17 1.07z"/>
			<path id="rect5205-3-6" class="s0" d="m5.5 143.78v31.5c0 11.63 9.37 21 21 21h147c11.63 0 21-9.37 21-21v-31.5z"/>
			<path id="PURITAN" class="s3" aria-label="PURITAN"  d="m23.1 185h-4.7v-25.4h10.4q3.4 0 5.8 1.1 2.4 1.1 3.7 3.1 1.3 2.1 1.3 4.9 0 2.7-1.3 4.8-1.3 2-3.7 3.1-2.4 1.1-5.8 1.1h-7.8l2.1-2.2zm0-23.7v14.7l-2.1-2.3h7.6q3.1 0 4.7-1.3 1.6-1.4 1.6-3.7 0-2.5-1.6-3.8-1.6-1.3-4.7-1.3h-7.6zm32.2 24q-5.2 0-8.2-2.9-2.9-2.9-2.9-8.5v-14.3h4.7v14.2q0 3.9 1.7 5.7 1.7 1.7 4.7 1.7 3.1 0 4.8-1.7 1.7-1.8 1.7-5.7v-14.2h4.6v14.3q0 5.6-3 8.5-2.9 2.9-8.1 2.9zm22.8-0.3h-4.7v-25.4h10.4q5.1 0 7.9 2.4 2.9 2.4 2.9 6.7 0 2.7-1.3 4.8-1.3 1.9-3.7 3-2.4 1.1-5.8 1.1h-7.8l2.1-2.1zm17 0h-5.1l-6.4-9.2h5zm-16.9-23.7v14.6l-2.1-2.2h7.6q3.1 0 4.6-1.3 1.6-1.4 1.6-3.8 0-2.4-1.6-3.7-1.5-1.3-4.6-1.3h-7.6zm26 23.7h-4.7v-25.4h4.7zm17.1 0h-4.7v-21.4h-8.4v-4h21.5v4h-8.4zm11.4 0h-4.8l11.4-25.4h4.6l11.4 25.4h-4.9l-9.8-22.8h1.9zm16.7-5.9h-16.3l1.3-3.7h13.7zm13.7 5.9h-4.6v-25.4h3.8l15.9 19.5h-1.9v-19.5h4.7v25.4h-3.9l-15.9-19.6h1.9z"/>
		</g>
		<g id="g5375">
			<path id="rect5363" fill-rule="evenodd" class="s0" d="m1515 255.78h170c8.28 0 15 6.72 15 15v170c0 8.28-6.72 15-15 15h-170c-8.28 0-15-6.72-15-15v-170c0-8.28 6.72-15 15-15z"/>
			<path id="rect5365" fill-rule="evenodd" class="s4" d="m1520 265.78h160c5.52 0 10 4.48 10 10v160c0 5.52-4.48 10-10 10h-160c-5.52 0-10-4.48-10-10v-160c0-5.52 4.48-10 10-10z"/>
			<path id="text5407" class="s0" d="m1581.67 281.83q-0.17 0.02-0.34 0.09-0.17 0.07-0.3 0.19-0.14 0.11-0.24 0.27-0.1 0.15-0.15 0.32 0 0 0 0.01 0 0 0 0 0 0 0 0 0 0.01 0 0.01c-3.99 0.56-7.76 3.03-11.19 8.52-3.6 5.86-6.31 14.28-8.39 24.76-9.8-3.39-18.33-5.29-25.22-5.17-7.25 0.12-12.3 1.98-14.56 5.95q0 0 0 0 0 0 0 0.01 0 0 0 0 0 0 0 0.01-1.17 2.14-1.17 4.8c0 3.18 1.17 6.73 3.38 10.71 3.27 6.05 9.13 12.53 16.95 19.39-7.94 6.99-13.87 13.51-17.14 19.51q0 0 0 0 0 0 0 0 0 0.01 0 0.01 0 0 0 0c-2.08 3.97-3.19 7.45-3.19 10.51q0 2.66 1.17 4.79 0 0.01 0 0.01 0 0 0 0 0 0.01 0 0.01 0 0 0 0c2.2 3.91 7.13 5.79 14.26 6.04q0 0 0 0 0 0 0.01 0 0 0 0 0 0 0 0.01 0c6.9 0.18 15.52-1.76 25.48-5.26 2.07 10.2 4.71 18.54 8.22 24.46q0 0 0 0.01 0 0 0 0 0 0 0 0 0 0.01 0 0.01c3.78 6.24 7.94 9.69 12.54 9.69 4.54 0 8.64-3.45 12.36-9.69q0 0 0-0.01 0 0 0 0 0 0 0 0 0-0.01 0-0.01c3.5-5.92 6.16-14.27 8.24-24.48 10.05 3.46 18.69 5.38 25.55 5.2 7.12-0.19 12.05-2.04 14.26-5.94v-0.02c0.85-1.42 1.27-3.09 1.27-4.92 0-3.06-1.1-6.5-3.18-10.41q0-0.01 0-0.01 0 0 0 0 0-0.01 0-0.01 0 0 0 0c-3.35-6.03-9.33-12.53-17.34-19.5 7.83-6.88 13.78-13.37 17.16-19.47h-0.02c2.21-3.91 3.38-7.41 3.38-10.54 0-1.82-0.42-3.49-1.27-4.92-2.28-3.97-7.33-5.81-14.63-5.93-6.88-0.13-15.42 1.78-25.24 5.15-2.08-10.47-4.77-18.88-8.37-24.74-3.72-6.05-7.75-9.41-12.17-9.41q-0.02 0-0.03 0-0.02 0-0.03 0-0.02 0-0.03 0-0.02 0-0.04 0zm0.13 7.09c1.13 0 2.32 0.51 3.65 1.75 1.32 1.24 2.72 3.21 4.12 5.9 2.62 4.95 4.72 12.37 6.34 21.68q-7.09 2.71-14.09 6.18c-4.8-2.32-9.57-4.36-14.32-6.18 1.63-9.31 3.73-16.73 6.34-21.68 1.41-2.69 2.81-4.66 4.17-5.9 1.35-1.24 2.57-1.75 3.79-1.75zm-45.79 28.31q1.03-0.01 2.18 0.04c5.65 0.29 12.99 2.18 21.59 5.33q-1.13 7.55-1.66 15.4-6.57 4.43-12.47 9.17c-7.09-5.87-12.42-11.29-15.5-16.08q0 0 0-0.01 0 0 0 0 0 0 0-0.01 0 0 0 0c-1.67-2.56-2.68-4.77-3.08-6.57-0.4-1.8-0.22-3.14 0.43-4.22q0 0 0 0 0 0 0-0.01 0.01 0 0.01 0 0 0 0-0.01c0.59-1.03 1.64-1.83 3.41-2.37q1.99-0.61 5.09-0.66zm91.49 0q3.1 0.05 5.11 0.66c1.77 0.54 2.85 1.34 3.47 2.37 0.62 1.08 0.81 2.42 0.39 4.22-0.41 1.81-1.45 4.03-3.12 6.59q0 0 0 0 0 0.01 0 0.01 0 0 0 0 0 0.01 0 0.01c-3.08 4.85-8.44 10.3-15.58 16.17q-5.9-4.75-12.47-9.19-0.54-7.92-1.76-15.47c8.6-3.15 15.99-5.04 21.76-5.33h0.01q1.16-0.05 2.19-0.04zm-30.51 7.89q0.51 4.02 0.85 8.16-1.99-1.22-3.98-2.48-0.01 0-0.01-0.01-0.01 0-0.02 0 0-0.01-0.01-0.01-0.01-0.01-0.01-0.01c-1.48-0.82-2.89-1.57-4.31-2.34q3.79-1.74 7.49-3.31zm-30.55 0.07q3.7 1.53 7.49 3.26c-1.4 0.77-2.8 1.52-4.23 2.34q0 0-0.01 0 0 0-0.01 0.01 0 0-0.01 0 0 0-0.01 0-2.06 1.27-4.09 2.5 0.36-4.14 0.87-8.11zm15.16 7.08q4.32 2.24 8.63 4.64 4.2 2.42 8.25 5 0.24 4.81 0.25 9.79-0.01 4.91-0.25 9.73-3.96 2.56-8.25 4.97-0.01 0-0.01 0.01 0 0 0 0-0.01 0-0.01 0.01 0 0 0 0c-2.81 1.66-5.63 3.21-8.43 4.71q-4.36-2.23-8.47-4.71 0 0-0.01 0-0.01-0.01-0.01-0.01-0.01 0-0.02 0 0-0.01-0.01-0.01-4.37-2.41-8.32-4.97-0.16-4.83-0.16-9.73 0-4.98 0.16-9.79 4.04-2.58 8.34-5 0 0 0 0 0 0 0.01 0 0 0 0 0 0 0 0.01 0 4.11-2.4 8.3-4.64zm0.2 11.23c-1.43 0-2.81 0.38-4.08 1.08-1.29 0.66-2.33 1.68-3.04 2.96q-1.08 1.93-1.08 4.16c0 1.43 0.37 2.82 1.08 4.09q0 0.01 0 0.01 0.01 0 0.01 0 0 0.01 0 0.01 0.01 0 0.01 0c0.72 1.23 1.75 2.22 3.02 2.93 1.27 0.7 2.65 1.07 4.08 1.07 1.37 0 2.72-0.37 3.98-1.07 1.28-0.71 2.31-1.7 3.03-2.93q0 0 0.01 0 0 0 0-0.01 0 0 0.01 0 0 0 0-0.01c0.71-1.27 1.08-2.66 1.08-4.09q-0.01-2.23-1.08-4.16c-0.71-1.29-1.75-2.3-3.05-2.96-1.26-0.7-2.61-1.08-3.98-1.08zm-24.07 3.33q-0.05 2.42-0.06 4.87 0.01 2.4 0.06 4.8c-2.29-1.58-4.53-3.17-6.66-4.8q3.2-2.49 6.66-4.87zm47.97 0q3.48 2.38 6.74 4.87c-2.17 1.64-4.43 3.22-6.74 4.8 0.06-1.6 0.13-3.2 0.13-4.8 0-1.64-0.07-3.25-0.13-4.87zm-60.12 9.32q5.97 4.75 12.54 9.19 0.53 7.83 1.66 15.37c-8.77 3.22-16.21 5.11-21.85 5.34q-4.53 0.16-7.14-0.66c-1.74-0.54-2.78-1.33-3.37-2.34-0.58-1.01-0.75-2.31-0.35-4.09 0.4-1.78 1.38-3.99 2.99-6.55q0.01-0.01 0.01-0.01 0 0 0 0 0.01 0 0.01-0.01 0 0 0 0c2.9-4.77 8.24-10.26 15.5-16.24zm72.26 0c7.26 5.99 12.64 11.48 15.6 16.26q0 0 0 0 0 0 0 0 0 0.01 0 0.01 0 0 0 0c1.64 2.57 2.65 4.77 3.05 6.54 0.4 1.77 0.22 3.07-0.39 4.07q0 0.01 0 0.01 0 0 0 0 0 0 0 0.01 0 0 0 0c-0.59 1.01-1.65 1.8-3.39 2.34q-2.61 0.82-7.13 0.66c-5.65-0.23-13.11-2.12-21.95-5.34q1.14-7.54 1.67-15.37 6.57-4.44 12.54-9.19zm-52.27 13.87c1.36 0.84 2.7 1.71 4.13 2.53 1.39 0.82 2.82 1.58 4.23 2.34q-3.79 1.74-7.51 3.31-0.5-4.03-0.85-8.18zm32.27 0.01q-0.34 4.15-0.85 8.17-3.7-1.57-7.49-3.31c1.42-0.77 2.83-1.52 4.31-2.34q0 0 0 0 0-0.01 0-0.01 0.01 0 0.01 0 0-0.01 0-0.01c1.38-0.81 2.7-1.66 4.02-2.5zm-16.24 8.86c4.75 2.33 9.53 4.39 14.33 6.27-1.57 9.09-3.64 16.42-6.27 21.5q0 0 0 0 0 0.01 0 0.01 0 0 0 0 0 0.01 0 0.01c-1.37 2.71-2.77 4.7-4.11 5.95-1.34 1.25-2.55 1.77-3.75 1.77-1.25 0-2.5-0.53-3.86-1.79q-2.07-1.88-4.18-5.95c-2.63-5.08-4.71-12.41-6.27-21.5q7.09-2.8 14.11-6.27z"/>
			<path id="path5369" class="s0" d="m1505.5 395.78v31.5c0 11.63 9.37 21 21 21h147c11.63 0 21-9.37 21-21v-31.5z"/>
			<g id="text5373">
				<path id="path4608" class="s3" d="m1528.43 409.42q4.22 0 6.52 2.02 2.34 2.01 2.34 5.69 0 3.84-2.34 5.99-2.3 2.11-6.52 2.11h-4.9v6.59h-4.29v-22.4zm-0.22 12.03q2.43 0 3.71-1.05 1.31-1.06 1.31-3.14 0-2.05-1.31-3.07-1.28-1.03-3.71-1.03h-4.67v8.29z"/>
				<path id="path4610" class="s3" d="m1552.88 431.82l-3.87-6.62q-0.25 0.03-0.8 0.03h-5.05v6.59h-4.29v-22.4h9.34q4.35 0 6.72 2.02 2.37 2.01 2.37 5.69 0 2.63-1.15 4.48-1.12 1.86-3.3 2.79l4.93 7.42zm-9.73-10.37h5.06q2.43 0 3.71-1.05 1.28-1.06 1.28-3.14 0-2.05-1.28-3.07-1.28-1.03-3.71-1.03h-5.06z"/>
				<path id="path4612" class="s3" d="m1570.17 409.13q3.33 0 6.05 1.51 2.75 1.5 4.32 4.12 1.56 2.63 1.56 5.83 0 3.2-1.56 5.85-1.57 2.63-4.32 4.16-2.72 1.54-6.05 1.54-3.33 0-6.08-1.54-2.72-1.53-4.29-4.16-1.57-2.65-1.57-5.85 0-3.2 1.57-5.83 1.57-2.62 4.29-4.12 2.75-1.51 6.08-1.51zm0.06 3.84q-2.05 0-3.81 1.03-1.76 0.99-2.78 2.75-1.02 1.73-1.02 3.84 0 2.11 1.02 3.87 1.06 1.76 2.78 2.78 1.76 1.03 3.81 1.03 2.02 0 3.75-1.03 1.72-1.02 2.72-2.78 1.02-1.76 1.02-3.87 0-2.11-1.02-3.84-1-1.76-2.72-2.75-1.73-1.03-3.75-1.03z"/>
				<path id="path4614" class="s3" d="m1598.32 420.68h3.74v8.52q-1.76 1.31-4.16 2.14-2.4 0.8-4.7 0.8-3.3 0-6.02-1.54-2.69-1.53-4.25-4.16-1.57-2.65-1.57-5.85 0-3.2 1.6-5.79 1.6-2.63 4.35-4.13 2.78-1.54 6.14-1.54 2.4 0 4.74 0.87 2.34 0.86 4.03 2.36l-2.43 3.17q-1.28-1.21-2.98-1.89-1.66-0.67-3.36-0.67-2.11 0-3.9 1.03-1.76 0.99-2.78 2.75-1.03 1.76-1.03 3.84 0 2.11 1.03 3.87 1.05 1.76 2.81 2.78 1.76 1.03 3.91 1.03 1.15 0 2.4-0.35 1.28-0.39 2.43-1.06z"/>
				<path id="path4616" class="s3" d="m1619.01 431.82l-3.87-6.62q-0.26 0.03-0.8 0.03h-5.06v6.59h-4.29v-22.4h9.35q4.35 0 6.72 2.02 2.36 2.01 2.36 5.69 0 2.63-1.15 4.48-1.12 1.86-3.29 2.79l4.92 7.42zm-9.72-10.37h5.05q2.43 0 3.71-1.05 1.28-1.06 1.28-3.14 0-2.05-1.28-3.07-1.28-1.03-3.71-1.03h-5.05z"/>
				<path id="path4618" class="s3" d="m1626.12 409.42h16.41v3.74h-12.12v5.54h10.88v3.74h-10.88v5.64h12.51v3.74h-16.8z"/>
				<path id="path4620" class="s3" d="m1659.32 415.18q-1.73-1.06-3.55-1.63-1.79-0.58-3.17-0.58-1.53 0-2.43 0.58-0.9 0.57-0.9 1.6 0 0.93 0.61 1.57 0.64 0.6 1.57 1.02 0.96 0.38 2.59 0.86 2.27 0.68 3.71 1.35 1.48 0.67 2.5 1.98 1.02 1.31 1.02 3.46 0 2.05-1.12 3.58-1.08 1.51-3.04 2.31-1.92 0.8-4.41 0.8-2.63 0-5.12-0.96-2.5-1-4.35-2.63l1.79-3.65q1.69 1.57 3.81 2.47 2.11 0.89 3.93 0.89 1.79 0 2.82-0.67 1.02-0.7 1.02-1.89 0-0.96-0.64-1.56-0.61-0.64-1.57-1.03-0.96-0.38-2.62-0.86-2.27-0.67-3.71-1.31-1.44-0.64-2.47-1.92-1.02-1.32-1.02-3.43 0-1.95 1.02-3.39 1.06-1.47 2.95-2.27 1.92-0.8 4.41-0.8 2.18 0 4.29 0.64 2.15 0.64 3.81 1.73z"/>
				<path id="path4622" class="s3" d="m1677.45 415.18q-1.73-1.06-3.55-1.63-1.8-0.58-3.17-0.58-1.54 0-2.43 0.58-0.9 0.57-0.9 1.6 0 0.93 0.61 1.57 0.64 0.6 1.56 1.02 0.96 0.38 2.6 0.86 2.27 0.68 3.71 1.35 1.47 0.67 2.49 1.98 1.03 1.31 1.03 3.46 0 2.05-1.12 3.58-1.09 1.51-3.04 2.31-1.92 0.8-4.42 0.8-2.62 0-5.12-0.96-2.49-1-4.35-2.63l1.79-3.65q1.7 1.57 3.81 2.47 2.11 0.89 3.94 0.89 1.79 0 2.81-0.67 1.03-0.7 1.03-1.89 0-0.96-0.64-1.56-0.61-0.64-1.57-1.03-0.96-0.38-2.63-0.86-2.27-0.67-3.71-1.31-1.44-0.64-2.46-1.92-1.03-1.32-1.03-3.43 0-1.95 1.03-3.39 1.05-1.47 2.94-2.27 1.92-0.8 4.42-0.8 2.17 0 4.29 0.64 2.14 0.64 3.8 1.73z"/>
			</g>
		</g>
		<path id="tspan4625-0-6" class="s3" aria-label="ORD"  d="m-995.1-285q-3.2 0-5.2 2.4-1.9 2.4-1.9 6.6 0 4.2 1.9 6.6 2 2.4 5.2 2.4 3.3 0 5.2-2.4 1.9-2.4 1.9-6.6 0-4.2-1.9-6.6-1.9-2.4-5.2-2.4zm0-2.4q4.7 0 7.4 3.1 2.8 3.1 2.8 8.3 0 5.2-2.8 8.3-2.7 3.1-7.4 3.1-4.6 0-7.4-3.1-2.8-3.1-2.8-8.3 0-5.2 2.8-8.3 2.8-3.1 7.4-3.1zm25.5 12.1q1 0.3 1.9 1.4 0.9 1 1.8 2.9l3 6h-3.2l-2.8-5.7q-1.1-2.2-2.1-2.9-1-0.7-2.8-0.7h-3.3v9.3h-2.9v-22h6.7q3.8 0 5.6 1.5 1.9 1.6 1.9 4.8 0 2.1-1 3.5-0.9 1.3-2.8 1.9zm-3.7-9.3h-3.8v7.8h3.8q2.2 0 3.2-1 1.2-1 1.2-2.9 0-1.9-1.2-2.9-1-1-3.2-1zm20.9 0h-3.7v17.1h3.7q4.5 0 6.6-2 2.2-2.1 2.2-6.5 0-4.5-2.2-6.5-2.1-2.1-6.6-2.1zm-6.6 19.6v-22h6.1q6.4 0 9.4 2.6 3 2.7 3 8.4 0 5.7-3 8.3-3 2.7-9.4 2.7z"/>
	</g>
</svg>