<svg version="1.2" xmlns="http://www.w3.org/2000/svg" viewBox="0 0 200 204" width="200" height="204">
	<style>
		.s0 { fill: #222222 } 
		.s1 { fill: #7d1c3b } 
		.s2 { fill: #eeeeee } 
		.s3 { fill: #000000 } 
		.s4 { fill: #9c27b0 } 
	</style>
	<g id="layer1">
		<g id="g5175">
			<path id="rect5163" fill-rule="evenodd" class="s0" d="m15 3.78h170c8.28 0 15 6.72 15 15v170c0 8.28-6.72 15-15 15h-170c-8.28 0-15-6.72-15-15v-170c0-8.28 6.72-15 15-15z"/>
			<path id="rect5165" fill-rule="evenodd" class="s1" d="m20 13.78h160c5.52 0 10 4.48 10 10v160c0 5.52-4.48 10-10 10h-160c-5.52 0-10-4.48-10-10v-160c0-5.52 4.48-10 10-10z"/>
			<path id="rect5205-3-6" class="s0" d="m5.5 143.78v31.5c0 11.63 9.37 21 21 21h147c11.63 0 21-9.37 21-21v-31.5z"/>
			<path id="REACTIONARY" class="s2" aria-label="REACTIONARY"  d="m14.4 177h-3.1v-17h6.9q3.4 0 5.3 1.7 2 1.5 2 4.4 0 1.8-0.9 3.2-0.9 1.3-2.5 2.1-1.6 0.7-3.8 0.7h-5.3l1.4-1.5zm11.4 0h-3.4l-4.3-6.1h3.4zm-11.4-15.9v9.8l-1.4-1.5h5.1q2.1 0 3.1-0.9 1.1-0.9 1.1-2.4 0-1.7-1.1-2.5-1-0.9-3.1-0.9h-5.1zm26.6 15.8h-12.7v-16.9h12.3v2.6h-9.2v11.7h9.6zm-1.4-7.4h-8.4v-2.5h8.4zm6.5 7.3h-3.3l7.7-17h3.1l7.6 17h-3.3l-6.5-15.3h1.2zm11.2-3.9h-10.9l0.9-2.5h9.1zm12.9 4.2q-2 0-3.6-0.7-1.7-0.6-2.9-1.8-1.2-1.2-1.9-2.7-0.7-1.7-0.7-3.6 0-1.9 0.7-3.4 0.7-1.6 1.9-2.8 1.2-1.2 2.9-1.8 1.7-0.7 3.6-0.7 2.1 0 3.8 0.7 1.7 0.8 2.9 2.1l-2 2q-0.9-1-2.1-1.5-1.1-0.5-2.4-0.5-1.4 0-2.5 0.4-1.1 0.5-1.9 1.3-0.8 0.8-1.3 1.8-0.4 1.1-0.4 2.4 0 1.4 0.4 2.5 0.5 1 1.3 1.9 0.8 0.7 1.9 1.2 1.1 0.4 2.5 0.4 1.3 0 2.4-0.5 1.2-0.5 2.1-1.5l2 1.9q-1.2 1.4-2.9 2.1-1.7 0.8-3.8 0.8zm15.7-0.3h-3.1v-14.3h-5.6v-2.6h14.3v2.6h-5.6zm11.6 0h-3.1v-16.9h3.1zm12.8 0.2q-2 0-3.7-0.7-1.6-0.6-2.9-1.8-1.2-1.2-1.9-2.7-0.7-1.6-0.7-3.5 0-1.9 0.7-3.5 0.7-1.6 1.9-2.7 1.3-1.2 2.9-1.9 1.7-0.6 3.7-0.6 2 0 3.6 0.6 1.7 0.7 2.9 1.9 1.2 1.1 1.9 2.7 0.7 1.6 0.7 3.5 0 1.9-0.7 3.5-0.7 1.6-1.9 2.7-1.2 1.2-2.9 1.9-1.6 0.6-3.6 0.6zm0-2.7q1.3 0 2.3-0.5 1.1-0.4 1.9-1.2 0.8-0.8 1.3-1.9 0.4-1.1 0.4-2.4 0-1.3-0.4-2.4-0.5-1.1-1.3-1.9-0.8-0.8-1.9-1.2-1-0.5-2.3-0.5-1.3 0-2.4 0.5-1.1 0.4-1.9 1.2-0.8 0.8-1.3 1.9-0.4 1.1-0.4 2.4 0 1.3 0.4 2.4 0.5 1 1.3 1.9 0.8 0.8 1.9 1.2 1.1 0.5 2.4 0.5zm15.2 2.5h-3.1v-17h2.5l10.7 13.1h-1.3v-13.1h3.1v17h-2.6l-10.6-13.1h1.3zm17.7 0h-3.3l7.7-17h3.1l7.6 17h-3.3l-6.5-15.3h1.2zm11.2-3.9h-10.9l0.9-2.5h9.1zm9.2 3.9h-3.2v-16.9h7q3.4 0 5.3 1.6 1.9 1.6 1.9 4.4 0 1.9-0.9 3.2-0.8 1.4-2.4 2.1-1.6 0.7-3.9 0.7h-5.2l1.4-1.4zm11.3 0h-3.4l-4.3-6.2h3.4zm-11.3-15.8v9.8l-1.4-1.5h5.1q2 0 3.1-0.9 1-0.9 1-2.5 0-1.6-1-2.5-1.1-0.9-3.1-0.9h-5.1zm21.1 15.9h-3.1v-6.8l0.7 2-7.4-12.2h3.4l5.9 9.8h-1.9l6-9.8h3.1l-7.4 12.2 0.7-2z"/>
			<path id="Path 0" fill-rule="evenodd" class="s3" d="m106 15.4c3.03 0.22 7.97 1.32 11 2.44 3.12 1.15 7.84 4.12 10.91 6.85 2.97 2.64 6.39 6.39 7.59 8.31 1.2 1.92 3 5.98 3.98 9 1.3 3.97 1.67 7.44 1.33 12.5-0.29 4.51-1.35 8.96-2.96 12.5-1.37 3.03-4.04 7.25-5.92 9.39-1.89 2.14-5.23 5.11-7.43 6.6-2.2 1.5-6.47 3.52-9.5 4.5-4.02 1.31-7.51 1.66-13 1.33-5.2-0.31-9.18-1.24-13-3.01-3.03-1.41-7.47-4.3-9.88-6.44-2.97-2.63-5.7-6.6-8.5-12.37-3.65-7.53-4.15-8.16-4.4-5.5-0.18 1.84 0.41 3.72 1.5 4.85 1.23 1.29 1.7 3.12 1.53 6-0.13 2.28-0.91 4.82-1.72 5.65-0.81 0.83-1.51 2.17-1.55 3-0.04 0.83 0.65 2.17 1.52 3 0.88 0.83 1.85 2.85 2.16 4.5 0.4 2.1-0.14 4.25-1.8 7.17-2.19 3.87-2.24 4.3-0.74 6 0.9 1.01 1.91 3.41 2.25 5.33 0.45 2.56 0.09 4.37-1.37 6.75-1.1 1.79-2 3.92-2 4.75 0 0.83 0.45 1.5 1 1.5 0.55 0 1.52 1.69 2.15 3.75 1.01 3.28 0.89 4.18-0.97 7.25-1.16 1.93-2.13 4.74-2.15 6.25-0.02 1.51-0.25 3.43-0.53 4.25-0.28 0.82-0.84 1.51-1.25 1.51-0.41 0.01-1.07-2.13-1.46-4.75-0.4-2.62-1.4-5.44-2.23-6.26-0.83-0.82-1.52-3.19-1.53-5.25-0.02-2.28 0.75-4.73 1.97-6.25 1.54-1.92 1.77-2.96 1-4.5-0.55-1.1-1.45-2.22-2-2.5-0.55-0.28-1-2.3-1-4.5 0-2.5 0.75-4.94 2-6.5 1.54-1.92 1.77-2.96 1-4.5-0.55-1.1-1.45-2.22-2-2.5-0.55-0.28-1-2.3-1-4.5 0-2.5 0.75-4.94 2-6.5 1.54-1.92 1.77-2.96 1-4.5-0.55-1.1-1.45-2.22-2-2.5-0.55-0.28-1.02-2.41-1.04-4.75-0.03-2.59 0.56-4.84 1.51-5.75 0.86-0.83 1.79-2.63 2.07-4 0.29-1.4-0.16-3.49-1.01-4.75-0.84-1.24-1.54-3.71-1.56-5.5-0.02-2.78 0.44-3.39 3.14-4.25 1.74-0.55 3.52-1.67 3.96-2.5 0.43-0.83 2.1-4.42 3.7-8 1.6-3.58 4.22-8.03 5.82-9.9 1.6-1.87 4.71-4.63 6.91-6.13 2.2-1.5 6.92-3.69 10.5-4.86 4.51-1.47 8.18-1.99 12-1.71zm-15.5 9.38c-2.2 1.11-5.77 3.75-7.93 5.87-2.17 2.12-5.06 6.32-6.43 9.35-1.9 4.2-2.49 7.16-2.48 12.5 0.01 4.73 0.65 8.46 1.98 11.5 1.08 2.47 3.8 6.53 6.05 9 2.24 2.47 6.27 5.61 8.95 6.98 3.68 1.87 6.8 2.56 12.86 2.82 7.23 0.31 8.58 0.06 14-2.62 3.42-1.69 7.63-4.84 9.79-7.32 2.08-2.4 4.67-6.72 5.75-9.61 1.08-2.89 1.96-7.73 1.96-10.75 0-3.21-0.9-7.89-2.17-11.25-1.48-3.9-3.81-7.36-7.25-10.75-3.32-3.27-6.81-5.58-10.08-6.69-2.75-0.92-6.8-1.9-9-2.16-2.2-0.26-5.8-0.12-8 0.32-2.2 0.44-5.8 1.7-8 2.81zm-24 29.22c1.38 0 2.5-0.45 2.5-1 0-0.55-1.12-1-2.5-1-1.37 0-2.5 0.45-2.5 1 0 0.55 1.13 1 2.5 1zm-4.5 22c0.55 0 1.15-0.56 1.34-1.25 0.27-1 0.62-1 1.75-0.01 0.77 0.69 1.76 0.91 2.19 0.5 0.43-0.41 0.78-1.87 0.78-3.24 0-1.38-0.28-2.83-0.62-3.23-0.34-0.41-1.22 0.04-1.95 1-1.28 1.64-1.38 1.64-1.92-0.02-0.31-0.96-1.02-1.75-1.57-1.75-0.55 0-1 1.8-1 4 0 2.2 0.45 4 1 4zm-1.27 11.5c-0.3 1.1-0.36 3.01-0.14 4.25 0.23 1.24 0.86 2.25 1.41 2.25 0.55 0 1.2-0.56 1.44-1.25 0.29-0.85 0.91-0.61 1.91 0.75 1.44 1.94 1.5 1.91 2.1-1 0.34-1.65 0.33-3.9-0.03-5l-0.66-2-2.76 4-2.72-4zm1.27 25.5c0.55 0 1-0.67 1-1.5 0-0.83 0.45-1.5 1-1.5 0.55 0 1.22 0.45 1.5 1 0.27 0.55 0.95 0.78 1.5 0.5 0.55-0.28 1-1.63 1-3 0-1.38-0.5-2.84-1.12-3.25-0.61-0.41-1.49-0.08-1.96 0.75-0.72 1.28-1.07 1.2-2.35-0.5-1.42-1.88-1.51-1.7-1.54 2.75-0.02 2.61 0.42 4.75 0.97 4.75zm0 18c0.55 0 1.15-0.56 1.33-1.25 0.27-1 0.67-1 2 0 1.36 1.02 1.76 0.98 2.17-0.25 0.27-0.82 0.5-2.63 0.5-4 0-1.38-0.36-2.5-0.8-2.5-0.44 0-1.34 0.56-2 1.25-0.95 0.99-1.5 0.84-2.67-0.75-1.37-1.86-1.47-1.67-1.5 2.75-0.02 2.61 0.42 4.75 0.97 4.75zm50.66-103c1.29 0 3.57 0.63 5.09 1.41 1.51 0.78 3.99 2.69 5.5 4.25 2.02 2.08 2.82 4.01 3 7.2 0.19 3.3-0.19 4.64-1.56 5.5-1.47 0.93-2.08 0.76-3.27-0.86-0.8-1.1-1.43-2.9-1.41-4 0.03-1.1-0.75-2.76-1.73-3.69-0.98-0.93-3.47-2.39-5.53-3.25-2.24-0.93-3.82-2.3-3.92-3.39-0.09-1.01 0.21-2.14 0.67-2.5 0.46-0.37 1.88-0.67 3.16-0.67z"/>
		</g>
		<g id="g5375">
			<path id="rect5363" fill-rule="evenodd" class="s0" d="m1515 255.78h170c8.28 0 15 6.72 15 15v170c0 8.28-6.72 15-15 15h-170c-8.28 0-15-6.72-15-15v-170c0-8.28 6.72-15 15-15z"/>
			<path id="rect5365" fill-rule="evenodd" class="s4" d="m1520 265.78h160c5.52 0 10 4.48 10 10v160c0 5.52-4.48 10-10 10h-160c-5.52 0-10-4.48-10-10v-160c0-5.52 4.48-10 10-10z"/>
			<path id="text5407" class="s0" d="m1581.67 281.83q-0.17 0.02-0.34 0.09-0.17 0.07-0.3 0.19-0.14 0.11-0.24 0.27-0.1 0.15-0.15 0.32 0 0 0 0.01 0 0 0 0 0 0 0 0 0 0.01 0 0.01c-3.99 0.56-7.76 3.03-11.19 8.52-3.6 5.86-6.31 14.28-8.39 24.76-9.8-3.39-18.33-5.29-25.22-5.17-7.25 0.12-12.3 1.98-14.56 5.95q0 0 0 0 0 0 0 0.01 0 0 0 0 0 0 0 0.01-1.17 2.14-1.17 4.8c0 3.18 1.17 6.73 3.38 10.71 3.27 6.05 9.13 12.53 16.95 19.39-7.94 6.99-13.87 13.51-17.14 19.51q0 0 0 0 0 0 0 0 0 0.01 0 0.01 0 0 0 0c-2.08 3.97-3.19 7.45-3.19 10.51q0 2.66 1.17 4.79 0 0.01 0 0.01 0 0 0 0 0 0.01 0 0.01 0 0 0 0c2.2 3.91 7.13 5.79 14.26 6.04q0 0 0 0 0 0 0.01 0 0 0 0 0 0 0 0.01 0c6.9 0.18 15.52-1.76 25.48-5.26 2.07 10.2 4.71 18.54 8.22 24.46q0 0 0 0.01 0 0 0 0 0 0 0 0 0 0.01 0 0.01c3.78 6.24 7.94 9.69 12.54 9.69 4.54 0 8.64-3.45 12.36-9.69q0 0 0-0.01 0 0 0 0 0 0 0 0 0-0.01 0-0.01c3.5-5.92 6.16-14.27 8.24-24.48 10.05 3.46 18.69 5.38 25.55 5.2 7.12-0.19 12.05-2.04 14.26-5.94v-0.02c0.85-1.42 1.27-3.09 1.27-4.92 0-3.06-1.1-6.5-3.18-10.41q0-0.01 0-0.01 0 0 0 0 0-0.01 0-0.01 0 0 0 0c-3.35-6.03-9.33-12.53-17.34-19.5 7.83-6.88 13.78-13.37 17.16-19.47h-0.02c2.21-3.91 3.38-7.41 3.38-10.54 0-1.82-0.42-3.49-1.27-4.92-2.28-3.97-7.33-5.81-14.63-5.93-6.88-0.13-15.42 1.78-25.24 5.15-2.08-10.47-4.77-18.88-8.37-24.74-3.72-6.05-7.75-9.41-12.17-9.41q-0.02 0-0.03 0-0.02 0-0.03 0-0.02 0-0.03 0-0.02 0-0.04 0zm0.13 7.09c1.13 0 2.32 0.51 3.65 1.75 1.32 1.24 2.72 3.21 4.12 5.9 2.62 4.95 4.72 12.37 6.34 21.68q-7.09 2.71-14.09 6.18c-4.8-2.32-9.57-4.36-14.32-6.18 1.63-9.31 3.73-16.73 6.34-21.68 1.41-2.69 2.81-4.66 4.17-5.9 1.35-1.24 2.57-1.75 3.79-1.75zm-45.79 28.31q1.03-0.01 2.18 0.04c5.65 0.29 12.99 2.18 21.59 5.33q-1.13 7.55-1.66 15.4-6.57 4.43-12.47 9.17c-7.09-5.87-12.42-11.29-15.5-16.08q0 0 0-0.01 0 0 0 0 0 0 0-0.01 0 0 0 0c-1.67-2.56-2.68-4.77-3.08-6.57-0.4-1.8-0.22-3.14 0.43-4.22q0 0 0 0 0 0 0-0.01 0.01 0 0.01 0 0 0 0-0.01c0.59-1.03 1.64-1.83 3.41-2.37q1.99-0.61 5.09-0.66zm91.49 0q3.1 0.05 5.11 0.66c1.77 0.54 2.85 1.34 3.47 2.37 0.62 1.08 0.81 2.42 0.39 4.22-0.41 1.81-1.45 4.03-3.12 6.59q0 0 0 0 0 0.01 0 0.01 0 0 0 0 0 0.01 0 0.01c-3.08 4.85-8.44 10.3-15.58 16.17q-5.9-4.75-12.47-9.19-0.54-7.92-1.76-15.47c8.6-3.15 15.99-5.04 21.76-5.33h0.01q1.16-0.05 2.19-0.04zm-30.51 7.89q0.51 4.02 0.85 8.16-1.99-1.22-3.98-2.48-0.01 0-0.01-0.01-0.01 0-0.02 0 0-0.01-0.01-0.01-0.01-0.01-0.01-0.01c-1.48-0.82-2.89-1.57-4.31-2.34q3.79-1.74 7.49-3.31zm-30.55 0.07q3.7 1.53 7.49 3.26c-1.4 0.77-2.8 1.52-4.23 2.34q0 0-0.01 0 0 0-0.01 0.01 0 0-0.01 0 0 0-0.01 0-2.06 1.27-4.09 2.5 0.36-4.14 0.87-8.11zm15.16 7.08q4.32 2.24 8.63 4.64 4.2 2.42 8.25 5 0.24 4.81 0.25 9.79-0.01 4.91-0.25 9.73-3.96 2.56-8.25 4.97-0.01 0-0.01 0.01 0 0 0 0-0.01 0-0.01 0.01 0 0 0 0c-2.81 1.66-5.63 3.21-8.43 4.71q-4.36-2.23-8.47-4.71 0 0-0.01 0-0.01-0.01-0.01-0.01-0.01 0-0.02 0 0-0.01-0.01-0.01-4.37-2.41-8.32-4.97-0.16-4.83-0.16-9.73 0-4.98 0.16-9.79 4.04-2.58 8.34-5 0 0 0 0 0 0 0.01 0 0 0 0 0 0 0 0.01 0 4.11-2.4 8.3-4.64zm0.2 11.23c-1.43 0-2.81 0.38-4.08 1.08-1.29 0.66-2.33 1.68-3.04 2.96q-1.08 1.93-1.08 4.16c0 1.43 0.37 2.82 1.08 4.09q0 0.01 0 0.01 0.01 0 0.01 0 0 0.01 0 0.01 0.01 0 0.01 0c0.72 1.23 1.75 2.22 3.02 2.93 1.27 0.7 2.65 1.07 4.08 1.07 1.37 0 2.72-0.37 3.98-1.07 1.28-0.71 2.31-1.7 3.03-2.93q0 0 0.01 0 0 0 0-0.01 0 0 0.01 0 0 0 0-0.01c0.71-1.27 1.08-2.66 1.08-4.09q-0.01-2.23-1.08-4.16c-0.71-1.29-1.75-2.3-3.05-2.96-1.26-0.7-2.61-1.08-3.98-1.08zm-24.07 3.33q-0.05 2.42-0.06 4.87 0.01 2.4 0.06 4.8c-2.29-1.58-4.53-3.17-6.66-4.8q3.2-2.49 6.66-4.87zm47.97 0q3.48 2.38 6.74 4.87c-2.17 1.64-4.43 3.22-6.74 4.8 0.06-1.6 0.13-3.2 0.13-4.8 0-1.64-0.07-3.25-0.13-4.87zm-60.12 9.32q5.97 4.75 12.54 9.19 0.53 7.83 1.66 15.37c-8.77 3.22-16.21 5.11-21.85 5.34q-4.53 0.16-7.14-0.66c-1.74-0.54-2.78-1.33-3.37-2.34-0.58-1.01-0.75-2.31-0.35-4.09 0.4-1.78 1.38-3.99 2.99-6.55q0.01-0.01 0.01-0.01 0 0 0 0 0.01 0 0.01-0.01 0 0 0 0c2.9-4.77 8.24-10.26 15.5-16.24zm72.26 0c7.26 5.99 12.64 11.48 15.6 16.26q0 0 0 0 0 0 0 0 0 0.01 0 0.01 0 0 0 0c1.64 2.57 2.65 4.77 3.05 6.54 0.4 1.77 0.22 3.07-0.39 4.07q0 0.01 0 0.01 0 0 0 0 0 0 0 0.01 0 0 0 0c-0.59 1.01-1.65 1.8-3.39 2.34q-2.61 0.82-7.13 0.66c-5.65-0.23-13.11-2.12-21.95-5.34q1.14-7.54 1.67-15.37 6.57-4.44 12.54-9.19zm-52.27 13.87c1.36 0.84 2.7 1.71 4.13 2.53 1.39 0.82 2.82 1.58 4.23 2.34q-3.79 1.74-7.51 3.31-0.5-4.03-0.85-8.18zm32.27 0.01q-0.34 4.15-0.85 8.17-3.7-1.57-7.49-3.31c1.42-0.77 2.83-1.52 4.31-2.34q0 0 0 0 0-0.01 0-0.01 0.01 0 0.01 0 0-0.01 0-0.01c1.38-0.81 2.7-1.66 4.02-2.5zm-16.24 8.86c4.75 2.33 9.53 4.39 14.33 6.27-1.57 9.09-3.64 16.42-6.27 21.5q0 0 0 0 0 0.01 0 0.01 0 0 0 0 0 0.01 0 0.01c-1.37 2.71-2.77 4.7-4.11 5.95-1.34 1.25-2.55 1.77-3.75 1.77-1.25 0-2.5-0.53-3.86-1.79q-2.07-1.88-4.18-5.95c-2.63-5.08-4.71-12.41-6.27-21.5q7.09-2.8 14.11-6.27z"/>
			<path id="path5369" class="s0" d="m1505.5 395.78v31.5c0 11.63 9.37 21 21 21h147c11.63 0 21-9.37 21-21v-31.5z"/>
			<g id="text5373">
				<path id="path4608" class="s2" d="m1528.43 409.42q4.22 0 6.52 2.02 2.34 2.01 2.34 5.69 0 3.84-2.34 5.99-2.3 2.11-6.52 2.11h-4.9v6.59h-4.29v-22.4zm-0.22 12.03q2.43 0 3.71-1.05 1.31-1.06 1.31-3.14 0-2.05-1.31-3.07-1.28-1.03-3.71-1.03h-4.67v8.29z"/>
				<path id="path4610" class="s2" d="m1552.88 431.82l-3.87-6.62q-0.25 0.03-0.8 0.03h-5.05v6.59h-4.29v-22.4h9.34q4.35 0 6.72 2.02 2.37 2.01 2.37 5.69 0 2.63-1.15 4.48-1.12 1.86-3.3 2.79l4.93 7.42zm-9.73-10.37h5.06q2.43 0 3.71-1.05 1.28-1.06 1.28-3.14 0-2.05-1.28-3.07-1.28-1.03-3.71-1.03h-5.06z"/>
				<path id="path4612" class="s2" d="m1570.17 409.13q3.33 0 6.05 1.51 2.75 1.5 4.32 4.12 1.56 2.63 1.56 5.83 0 3.2-1.56 5.85-1.57 2.63-4.32 4.16-2.72 1.54-6.05 1.54-3.33 0-6.08-1.54-2.72-1.53-4.29-4.16-1.57-2.65-1.57-5.85 0-3.2 1.57-5.83 1.57-2.62 4.29-4.12 2.75-1.51 6.08-1.51zm0.06 3.84q-2.05 0-3.81 1.03-1.76 0.99-2.78 2.75-1.02 1.73-1.02 3.84 0 2.11 1.02 3.87 1.06 1.76 2.78 2.78 1.76 1.03 3.81 1.03 2.02 0 3.75-1.03 1.72-1.02 2.72-2.78 1.02-1.76 1.02-3.87 0-2.11-1.02-3.84-1-1.76-2.72-2.75-1.73-1.03-3.75-1.03z"/>
				<path id="path4614" class="s2" d="m1598.32 420.68h3.74v8.52q-1.76 1.31-4.16 2.14-2.4 0.8-4.7 0.8-3.3 0-6.02-1.54-2.69-1.53-4.25-4.16-1.57-2.65-1.57-5.85 0-3.2 1.6-5.79 1.6-2.63 4.35-4.13 2.78-1.54 6.14-1.54 2.4 0 4.74 0.87 2.34 0.86 4.03 2.36l-2.43 3.17q-1.28-1.21-2.98-1.89-1.66-0.67-3.36-0.67-2.11 0-3.9 1.03-1.76 0.99-2.78 2.75-1.03 1.76-1.03 3.84 0 2.11 1.03 3.87 1.05 1.76 2.81 2.78 1.76 1.03 3.91 1.03 1.15 0 2.4-0.35 1.28-0.39 2.43-1.06z"/>
				<path id="path4616" class="s2" d="m1619.01 431.82l-3.87-6.62q-0.26 0.03-0.8 0.03h-5.06v6.59h-4.29v-22.4h9.35q4.35 0 6.72 2.02 2.36 2.01 2.36 5.69 0 2.63-1.15 4.48-1.12 1.86-3.29 2.79l4.92 7.42zm-9.72-10.37h5.05q2.43 0 3.71-1.05 1.28-1.06 1.28-3.14 0-2.05-1.28-3.07-1.28-1.03-3.71-1.03h-5.05z"/>
				<path id="path4618" class="s2" d="m1626.12 409.42h16.41v3.74h-12.12v5.54h10.88v3.74h-10.88v5.64h12.51v3.74h-16.8z"/>
				<path id="path4620" class="s2" d="m1659.32 415.18q-1.73-1.06-3.55-1.63-1.79-0.58-3.17-0.58-1.53 0-2.43 0.58-0.9 0.57-0.9 1.6 0 0.93 0.61 1.57 0.64 0.6 1.57 1.02 0.96 0.38 2.59 0.86 2.27 0.68 3.71 1.35 1.48 0.67 2.5 1.98 1.02 1.31 1.02 3.46 0 2.05-1.12 3.58-1.08 1.51-3.04 2.31-1.92 0.8-4.41 0.8-2.63 0-5.12-0.96-2.5-1-4.35-2.63l1.79-3.65q1.69 1.57 3.81 2.47 2.11 0.89 3.93 0.89 1.79 0 2.82-0.67 1.02-0.7 1.02-1.89 0-0.96-0.64-1.56-0.61-0.64-1.57-1.03-0.96-0.38-2.62-0.86-2.27-0.67-3.71-1.31-1.44-0.64-2.47-1.92-1.02-1.32-1.02-3.43 0-1.95 1.02-3.39 1.06-1.47 2.95-2.27 1.92-0.8 4.41-0.8 2.18 0 4.29 0.64 2.15 0.64 3.81 1.73z"/>
				<path id="path4622" class="s2" d="m1677.45 415.18q-1.73-1.06-3.55-1.63-1.8-0.58-3.17-0.58-1.54 0-2.43 0.58-0.9 0.57-0.9 1.6 0 0.93 0.61 1.57 0.64 0.6 1.56 1.02 0.96 0.38 2.6 0.86 2.27 0.68 3.71 1.35 1.47 0.67 2.49 1.98 1.03 1.31 1.03 3.46 0 2.05-1.12 3.58-1.09 1.51-3.04 2.31-1.92 0.8-4.42 0.8-2.62 0-5.12-0.96-2.49-1-4.35-2.63l1.79-3.65q1.7 1.57 3.81 2.47 2.11 0.89 3.94 0.89 1.79 0 2.81-0.67 1.03-0.7 1.03-1.89 0-0.96-0.64-1.56-0.61-0.64-1.57-1.03-0.96-0.38-2.63-0.86-2.27-0.67-3.71-1.31-1.44-0.64-2.46-1.92-1.03-1.32-1.03-3.43 0-1.95 1.03-3.39 1.05-1.47 2.94-2.27 1.92-0.8 4.42-0.8 2.17 0 4.29 0.64 2.14 0.64 3.8 1.73z"/>
			</g>
		</g>
		<path id="tspan4625-0-6" class="s2" aria-label="ORD"  d="m-995.1-285q-3.2 0-5.2 2.4-1.9 2.4-1.9 6.6 0 4.2 1.9 6.6 2 2.4 5.2 2.4 3.3 0 5.2-2.4 1.9-2.4 1.9-6.6 0-4.2-1.9-6.6-1.9-2.4-5.2-2.4zm0-2.4q4.7 0 7.4 3.1 2.8 3.1 2.8 8.3 0 5.2-2.8 8.3-2.7 3.1-7.4 3.1-4.6 0-7.4-3.1-2.8-3.1-2.8-8.3 0-5.2 2.8-8.3 2.8-3.1 7.4-3.1zm25.5 12.1q1 0.3 1.9 1.4 0.9 1 1.8 2.9l3 6h-3.2l-2.8-5.7q-1.1-2.2-2.1-2.9-1-0.7-2.8-0.7h-3.3v9.3h-2.9v-22h6.7q3.8 0 5.6 1.5 1.9 1.6 1.9 4.8 0 2.1-1 3.5-0.9 1.3-2.8 1.9zm-3.7-9.3h-3.8v7.8h3.8q2.2 0 3.2-1 1.2-1 1.2-2.9 0-1.9-1.2-2.9-1-1-3.2-1zm20.9 0h-3.7v17.1h3.7q4.5 0 6.6-2 2.2-2.1 2.2-6.5 0-4.5-2.2-6.5-2.1-2.1-6.6-2.1zm-6.6 19.6v-22h6.1q6.4 0 9.4 2.6 3 2.7 3 8.4 0 5.7-3 8.3-3 2.7-9.4 2.7z"/>
	</g>
</svg>