<svg version="1.2" xmlns="http://www.w3.org/2000/svg" viewBox="0 0 200 204" width="200" height="204">
	<style>
		.s0 { fill: #222222 } 
		.s1 { fill: #e53935 } 
		.s2 { fill: #eeeeee } 
		.s3 { opacity: .98;fill: #000000 } 
		.s4 { fill: #9c27b0 } 
	</style>
	<g id="layer1">
		<g id="g5175">
			<path id="rect5163" fill-rule="evenodd" class="s0" d="m15 3.78h170c8.28 0 15 6.72 15 15v170c0 8.28-6.72 15-15 15h-170c-8.28 0-15-6.72-15-15v-170c0-8.28 6.72-15 15-15z"/>
			<path id="rect5165" fill-rule="evenodd" class="s1" d="m20 13.78h160c5.52 0 10 4.48 10 10v160c0 5.52-4.48 10-10 10h-160c-5.52 0-10-4.48-10-10v-160c0-5.52 4.48-10 10-10z"/>
			<path id="rect5205-3-6" class="s0" d="m5.5 143.78v31.5c0 11.63 9.37 21 21 21h147c11.63 0 21-9.37 21-21v-31.5z"/>
			<path id="SOCIALIST" class="s2" aria-label="SOCIALIST"  d="m20.3 183.3q-2.7 0-5.2-0.7-2.5-0.8-3.9-2.1l1.5-3.3q1.4 1.1 3.4 1.8 2.1 0.7 4.2 0.7 1.9 0 3-0.3 1.1-0.4 1.6-1.1 0.6-0.7 0.6-1.6 0-1-0.8-1.7-0.7-0.6-2-1-1.2-0.4-2.7-0.7-1.4-0.4-2.9-0.8-1.5-0.5-2.7-1.2-1.2-0.7-2-1.9-0.7-1.2-0.7-3 0-1.9 1-3.5 1-1.6 3-2.5 2.1-1 5.3-1 2.1 0 4.2 0.5 2 0.6 3.6 1.6l-1.4 3.3q-1.5-0.9-3.2-1.3-1.7-0.5-3.2-0.5-1.8 0-2.9 0.4-1.1 0.4-1.7 1.2-0.5 0.7-0.5 1.6 0 1 0.8 1.7 0.7 0.6 1.9 1 1.3 0.3 2.8 0.7 1.4 0.3 2.9 0.8 1.5 0.4 2.7 1.1 1.2 0.7 2 1.9 0.8 1.2 0.8 3 0 1.9-1.1 3.5-1 1.5-3.1 2.5-2.1 0.9-5.3 0.9zm24.7 0q-2.7 0-5-0.9-2.3-0.9-4-2.5-1.7-1.6-2.6-3.7-0.9-2.3-0.9-4.8 0-2.6 0.9-4.8 0.9-2.2 2.6-3.8 1.7-1.6 4-2.5 2.3-0.9 5-0.9 2.7 0 5 0.9 2.3 0.9 3.9 2.5 1.8 1.6 2.7 3.8 0.9 2.2 0.9 4.8 0 2.6-0.9 4.8-0.9 2.1-2.7 3.7-1.6 1.7-3.9 2.6-2.3 0.8-5 0.8zm0-3.7q1.8 0 3.2-0.6 1.5-0.7 2.6-1.7 1.1-1.2 1.7-2.6 0.7-1.6 0.7-3.3 0-1.8-0.7-3.3-0.6-1.5-1.7-2.6-1.1-1.1-2.6-1.7-1.4-0.6-3.2-0.6-1.8 0-3.3 0.6-1.4 0.6-2.6 1.7-1.1 1.1-1.7 2.6-0.6 1.5-0.6 3.3 0 1.7 0.6 3.3 0.6 1.4 1.7 2.6 1.1 1.1 2.6 1.7 1.5 0.6 3.3 0.6zm27.9 3.7q-2.7 0-5-0.8-2.2-0.9-3.9-2.5-1.7-1.7-2.6-3.8-0.9-2.2-0.9-4.8 0-2.6 0.9-4.8 0.9-2.2 2.6-3.8 1.7-1.6 4-2.5 2.2-0.9 4.9-0.9 2.9 0 5.2 1 2.4 1 4 2.9l-2.8 2.6q-1.2-1.4-2.8-2-1.6-0.7-3.4-0.7-1.8 0-3.3 0.6-1.5 0.6-2.7 1.7-1.1 1.1-1.7 2.6-0.6 1.5-0.6 3.3 0 1.8 0.6 3.3 0.6 1.5 1.7 2.6 1.2 1.1 2.7 1.7 1.5 0.6 3.3 0.6 1.8 0 3.4-0.7 1.6-0.7 2.8-2.1l2.8 2.6q-1.6 1.9-4 2.9-2.3 1-5.2 1zm17.6-0.3h-4.4v-23.3h4.4zm7.8 0h-4.5l10.5-23.2h4.3l10.4 23.2h-4.5l-9-20.9h1.8zm15.2-5.4h-14.8l1.1-3.4h12.6zm25 5.4h-16.5v-23.3h4.4v19.6h12.1zm6.9 0h-4.4v-23.2h4.4zm13.8 0.3q-2.7 0-5.2-0.8-2.5-0.8-3.9-2l1.5-3.3q1.4 1.1 3.4 1.8 2.1 0.7 4.2 0.7 1.9 0 3-0.4 1.1-0.4 1.6-1.1 0.6-0.7 0.6-1.5 0-1.1-0.8-1.7-0.7-0.7-2-1-1.2-0.5-2.7-0.8-1.4-0.3-2.9-0.7-1.5-0.5-2.7-1.2-1.2-0.7-2-1.9-0.7-1.2-0.7-3.1 0-1.9 1-3.4 1-1.6 3.1-2.6 2-0.9 5.2-0.9 2.1 0 4.2 0.5 2.1 0.5 3.6 1.5l-1.4 3.4q-1.5-1-3.2-1.4-1.7-0.4-3.2-0.4-1.8 0-2.9 0.4-1.1 0.4-1.6 1.2-0.6 0.6-0.6 1.5 0 1.1 0.8 1.7 0.8 0.7 1.9 1 1.3 0.4 2.8 0.8 1.5 0.3 2.9 0.7 1.5 0.5 2.7 1.2 1.2 0.7 2 1.9 0.8 1.1 0.8 3 0 1.8-1.1 3.4-1 1.6-3.1 2.6-2.1 0.9-5.3 0.9zm22.9-0.3h-4.4v-19.6h-7.7v-3.7h19.8v3.7h-7.7z"/>
			<g id="Layer 2">
				<path id="Path 0" fill-rule="evenodd" class="s3" d="m106.5 16.97c1.1 0.46 4.59 1.33 7.75 1.93 3.16 0.61 5.75 1.55 5.75 2.1 0 0.55-0.22 1-0.5 1-0.28 0-3.09-0.68-6.25-1.51-3.16-0.82-6.65-1.45-7.75-1.39-1.37 0.07-1.05 0.37 1 0.94 1.65 0.46 5.15 1.42 7.78 2.15 2.63 0.72 4.77 1.65 4.75 2.06-0.02 0.41-1.04 0.46-2.28 0.1-1.24-0.36-3.83-1.03-5.75-1.48-1.92-0.45-4.63-0.85-6-0.87-1.38-0.03-2.28 0.15-2 0.4 0.28 0.25 3.87 1.18 8 2.06 4.13 0.88 10.16 3.05 13.41 4.82 3.26 1.77 7.87 4.91 10.25 6.97 2.39 2.06 5.24 3.75 6.34 3.75 1.3 0 3.3 1.92 5.75 5.51 2.06 3.03 3.41 5.73 3 6-0.41 0.27-2.21-1.76-4-4.52-1.79-2.75-3.59-5-4-5-0.41 0.01 0.84 2.6 2.78 5.76 1.94 3.16 4.45 8.23 5.59 11.25 1.13 3.02 2.3 8.88 2.6 13 0.32 4.46 1.12 8.11 1.97 9 0.98 1.03 1.23 2.61 0.79 5-0.34 1.92-0.82 4.29-1.05 5.25-0.24 0.96-0.88 1.75-1.43 1.75q-1 0 0-3.25c0.55-1.79 0.95-4.37 0.88-5.75-0.06-1.37-0.81 0.42-1.65 4-0.85 3.58-1.71 6.05-1.91 5.5-0.21-0.55 0.05-3.03 0.59-5.5 0.53-2.47 0.77-4.72 0.54-5-0.24-0.28-0.64 0.17-0.89 1-0.25 0.83-0.93 3.41-1.51 5.75-0.58 2.34-1.5 4.25-2.05 4.25-0.6 0-0.4-2.09 0.51-5.25 0.83-2.89 2.17-5.92 2.98-6.75 0.84-0.86 1.46-3.41 1.47-6 0.01-2.47-0.66-7.31-1.47-10.75-0.82-3.44-2.67-8.61-4.12-11.5-1.44-2.89-3.47-6.49-4.5-8-1.03-1.51-2.12-2.64-2.42-2.5-0.3 0.14 0.82 2.5 2.49 5.25 1.67 2.75 2.81 5.23 2.55 5.5-0.27 0.27-0.64 0.27-0.83 0-0.18-0.27-1.76-2.64-3.5-5.25-1.74-2.61-2.94-5.42-2.66-6.25 0.3-0.91-1.26-3.06-4-5.5-2.47-2.2-6.86-5.18-9.75-6.63-2.89-1.45-7.28-3.25-9.75-3.99-2.47-0.75-6.3-1.31-8.5-1.25-3.8 0.1-3.73 0.16 1.5 1.08 3.03 0.54 5.95 1.43 6.5 1.99q1.02 1.02-2 0.44c-1.65-0.31-4.69-0.81-6.75-1.11-2.06-0.29-3.76-0.19-3.76 0.22-0.01 0.41 2.35 1.09 5.25 1.51 2.89 0.41 5.71 1.23 6.26 1.82 0.71 0.76-0.17 0.88-3 0.41-2.2-0.37-4.79-0.85-5.75-1.08-0.96-0.22-1.75-0.07-1.75 0.34-0.01 0.41 2.81 1.3 6.25 1.98 3.44 0.68 8.5 2.34 11.25 3.7 2.75 1.35 7 4.17 9.45 6.27 2.44 2.09 5.26 3.8 6.25 3.8 1.04 0 3.07 1.92 4.76 4.5 1.63 2.48 2.7 4.73 2.38 5-0.32 0.28-1.08-0.35-1.71-1.39-0.62-1.05-2.13-3.07-3.35-4.5-1.22-1.44-2.23-2.05-2.25-1.36-0.02 0.69 0.42 1.48 0.97 1.75 0.55 0.28 2.13 2.75 3.5 5.5 1.38 2.75 3.17 7.81 3.99 11.25 0.81 3.44 1.49 8.16 1.5 10.5 0 2.55 0.51 4.38 1.26 4.57 1 0.26 1 1.46 0 6-0.69 3.12-1.79 6.02-2.46 6.43-0.89 0.55-1.01 0.09-0.45-1.75 0.42-1.37 0.97-4.3 1.23-6.5 0.4-3.46 0.25-3.25-1.1 1.5-0.86 3.03-2 5.95-2.53 6.5q-0.97 1-0.95 0c0.02-0.55 0.72-3.25 1.57-6 0.84-2.75 1.18-4.63 0.74-4.18-0.44 0.45-1.52 2.93-2.4 5.5-0.88 2.57-2.01 4.78-2.5 4.9-0.5 0.12-0.07-2.35 0.94-5.5 1.01-3.15 2.48-6.06 3.25-6.47 0.97-0.51 1.41-2.57 1.4-6.5-0.01-3.16-0.61-8-1.35-10.75-0.73-2.75-2.25-6.8-3.36-9-1.12-2.2-2.84-4.67-3.83-5.5-1.31-1.09-1.07-0.2 0.87 3.25 1.48 2.61 2.23 4.75 1.68 4.75-0.55 0-1.97-1.69-3.15-3.75-1.18-2.06-2.44-5.1-2.79-6.75-0.44-2.01-2.28-4.24-5.6-6.76-2.73-2.06-7.21-4.59-9.96-5.61-2.75-1.03-6.69-2.15-8.75-2.5-2.37-0.4-3.57-0.26-3.25 0.37 0.28 0.55 1.74 1.01 3.25 1.02 1.51 0 3.42 0.43 4.25 0.94 0.83 0.51 1.28 1.16 1 1.45-0.28 0.28-2.3 0.06-4.5-0.49-2.2-0.56-4.22-0.77-4.5-0.48-0.28 0.3 0.17 0.72 1 0.94 0.83 0.23 3.08 0.89 5 1.48l3.5 1.07c-6.58-0.33-8.5-0.09-8.5 0.32 0 0.41 1.46 1.04 3.25 1.39 1.79 0.35 5.05 1.4 7.25 2.34 2.2 0.93 5.58 3.1 7.5 4.82 1.92 1.71 4.63 3.12 6 3.14 1.87 0.01 3.07 1.03 4.75 4.04 1.24 2.21 2.03 4.25 1.75 4.52-0.28 0.27-1.51-1.07-2.75-2.99-1.24-1.92-2.59-3.49-3-3.5-0.41 0 0.12 1.45 1.19 3.24 1.07 1.79 2.66 5.27 3.53 7.75 0.88 2.47 1.69 7.13 1.81 10.34 0.12 3.25 0.79 6.35 1.51 7 0.72 0.64 1.28 1.95 1.25 2.91-0.02 0.96-0.72 3.55-1.54 5.75-0.82 2.2-1.95 4-2.5 4-0.55 0-1.01-0.11-1.02-0.25-0.02-0.14 0.66-1.94 1.5-4 0.83-2.06 1.49-4.76 1.45-6-0.06-1.76-0.35-1.48-1.36 1.25-0.7 1.92-2.25 5.41-3.43 7.75-1.18 2.34-2.59 4.47-3.14 4.75-0.55 0.28-2.24-1.96-3.75-4.96l-2.75-5.45c3.53-3.56 4.55-5.04 4.56-5.59 0-0.55-0.91-1.9-2.03-3l-2.03-2c-3.11 3.1-4.17 3.78-4.36 3.5-0.19-0.28-2.87-5.22-5.95-11l-5.6-10.5c10.01-3.49 13.25-5.19 13.66-6.04 0.43-0.89 0.2-2.04-0.57-2.75-0.72-0.66-3.42-2-6-2.96-3.32-1.24-7.59-1.75-14.68-1.74-5.5 0.01-11.7 0.34-13.77 0.75l-3.77 0.74 0.04 12.5c9.16-0.4 11.43-0.09 11.33 0.5-0.09 0.55-4.11 9.78-8.93 20.5-4.81 10.72-8.94 19.72-9.17 20-0.24 0.28-1.74-1.08-3.34-3-1.61-1.92-3.42-5.08-4.03-7-0.6-1.92-1.5-3.95-2-4.5-0.57-0.64-0.88-0.46-0.85 0.5 0.02 0.83 0.94 3.53 2.04 6 1.1 2.47 2.01 4.72 2.02 5 0.01 0.28-0.7-0.17-1.58-1-0.88-0.83-2.32-3.53-3.19-6-1.18-3.37-1.31-5-0.51-6.5 0.59-1.1 1.25-5.37 1.47-9.5 0.28-5.42 1.13-9.09 3.06-13.25 1.48-3.16 2.34-5.76 1.93-5.77-0.41-0.02-1.76 1.78-3 4-1.24 2.21-2.5 3.91-2.82 3.77-0.31-0.14-0.33-1.15-0.04-2.25 0.29-1.1 1.44-3.24 2.57-4.75 1.12-1.51 2.83-2.77 3.79-2.79 0.96-0.02 3.44-1.6 5.5-3.5 2.06-1.9 6-4.58 8.75-5.96 2.75-1.37 5.67-2.5 6.5-2.5 0.83 0 1.72-0.45 2-1 0.32-0.64-1.05-0.77-3.75-0.36-2.34 0.35-4.03 0.37-3.75 0.05 0.28-0.32 2.3-1.29 4.5-2.16 3.39-1.33 3.55-1.5 1-1.12-1.65 0.25-3.79 0.71-4.75 1.02-0.96 0.31-1.76 0.23-1.77-0.18-0.01-0.41 2.13-1.49 4.75-2.4 3.59-1.25 4.15-1.68 2.27-1.76-1.37-0.06-5.65 1.42-9.5 3.29-3.85 1.86-8.91 5.01-11.25 7-3.09 2.63-4.25 4.37-4.25 6.37-0.01 1.51-1.14 5-2.52 7.75-1.38 2.75-2.51 4.21-2.5 3.25 0.01-0.96 0.73-3.21 1.6-5 0.87-1.79 1.32-3.81 1-4.5-0.32-0.69-1.03-1.25-1.58-1.25-0.55 0-1.97 1.91-3.16 4.25-1.35 2.66-2.31 3.69-2.58 2.75-0.23-0.83 0.74-3.19 2.16-5.25 1.42-2.06 3.31-3.75 4.2-3.75 0.89 0 3.47-1.85 5.75-4.12 2.27-2.26 6.16-5.3 8.63-6.75 2.47-1.44 7.42-3.65 11-4.9q6.52-2.28 3-1.79c-1.92 0.26-4.63 0.82-6 1.23-1.84 0.55-2.3 0.43-1.75-0.46 0.41-0.67 3.34-1.74 6.5-2.39 3.32-0.68 4.91-1.35 3.75-1.59-1.1-0.22-4.03 0.09-6.5 0.7-2.47 0.61-4.72 0.9-5 0.64-0.28-0.27 1.53-1 4-1.63 2.47-0.63 5.4-1.52 6.5-1.97l2-0.83c-3.1-0.14-6.92 0.72-10.5 1.82-3.58 1.09-9.2 3.75-12.5 5.9-3.3 2.15-7.46 5.53-9.25 7.52-1.79 1.99-2.99 4.18-2.67 4.87 0.32 0.69-0.8 3.73-2.49 6.75-1.69 3.02-3.07 4.83-3.08 4 0-0.83 0.9-2.96 1.99-4.75 1.1-1.79 1.84-3.81 1.65-4.5-0.19-0.69-1.76 1.56-3.5 5-1.73 3.44-3.83 8.84-4.66 12-0.82 3.16-1.49 8.9-1.47 12.75 0.02 5.39 0.45 7.46 1.87 9 1.01 1.1 2.58 4.14 3.47 6.75 0.95 2.74 1.22 4.75 0.64 4.75-0.55 0-1.53-1.91-2.17-4.25-0.64-2.34-1.6-4.7-2.13-5.25-0.62-0.64-0.73-0.02-0.33 1.75 0.35 1.51 0.89 3.99 1.21 5.5 0.44 2.09 0.33 2.39-0.46 1.25-0.57-0.83-1.28-3.19-1.58-5.25-0.3-2.06-1.08-4.09-1.74-4.5-0.9-0.56-1 0.02-0.42 2.25 0.43 1.65 1 4.35 1.28 6 0.39 2.3 0.26 2.65-0.55 1.5-0.58-0.83-1.33-3.53-1.66-6-0.38-2.77-0.19-4.88 0.48-5.5 0.62-0.56 1.09-4.29 1.08-8.5-0.01-4.12 0.66-10.09 1.48-13.25 0.83-3.16 2.74-8.11 4.25-11 1.51-2.89 2.95-5.7 3.2-6.25 0.26-0.56-0.07-0.67-0.74-0.25-0.66 0.41-2.33 3-3.7 5.75-1.38 2.75-2.73 5-3 5-0.27 0-0.2-1.01 0.16-2.25 0.36-1.24 1.82-4.16 3.25-6.5 1.42-2.34 3.26-4.25 4.09-4.24 0.83 0.01 3.98-2.25 7-5.02 3.03-2.77 8.42-6.56 12-8.43 3.58-1.88 8.75-3.95 11.5-4.62 2.75-0.67 5.43-1.6 5.95-2.08 0.59-0.53 0.49-0.86-0.25-0.86-0.66 0-4.01 0.89-7.45 1.99-3.44 1.09-6.89 1.99-7.67 2-0.78 0-1.06-0.33-0.63-0.74 0.43-0.41 4.22-1.74 8.42-2.95 4.55-1.31 6.52-2.21 4.88-2.25-1.51-0.03-5.34 0.84-8.5 1.93-3.16 1.09-5.86 1.76-6 1.5-0.14-0.26 0.76-1.01 2-1.65 1.24-0.65 4.72-1.96 7.75-2.91 3.11-0.98 4.52-1.78 3.25-1.83-1.24-0.05-5.06 0.93-8.5 2.18-3.44 1.25-8.5 3.59-11.25 5.19-2.75 1.6-7.38 5.19-10.28 7.97-3.92 3.76-5.23 5.72-5.08 7.57 0.11 1.39-1.22 4.72-2.98 7.5-1.76 2.75-3.18 5.56-3.17 6.25 0 0.69-0.44 1.25-0.99 1.25-0.55 0-0.99-0.34-0.98-0.75 0.01-0.41 1.59-3.56 3.5-7 1.91-3.44 3.48-6.48 3.48-6.75 0-0.27-0.45-0.27-1 0-0.55 0.27-2.52 3.54-4.39 7.25-1.86 3.71-4.12 9.23-5.01 12.25-0.9 3.02-1.96 9.18-2.37 13.69-0.67 7.55-0.56 8.36 1.42 10.5 1.19 1.27 2.65 4.11 3.25 6.31 0.6 2.2 1.09 4.34 1.09 4.75 0.01 0.41-0.44 0.53-0.99 0.25-0.55-0.28-1.23-2.3-1.5-4.5-0.28-2.2-1.03-4.34-1.67-4.75-0.87-0.55-0.97 0.17-0.4 2.75 0.43 1.92 1.65 5.97 2.7 9 1.05 3.03 3.36 7.94 5.14 10.92 1.78 2.98 5.71 7.98 8.73 11.11 3.02 3.13 7.75 7.11 10.5 8.84 2.75 1.74 6.24 3.15 7.75 3.14 1.57 0 2.97 0.64 3.25 1.49 0.28 0.82 1.62 1.5 3 1.5 1.37 0 2.91 0.79 3.4 1.75 0.71 1.38 1.57 1.59 4 1 2.23-0.54 3.92-0.26 6.03 1 2.38 1.42 3.22 1.52 4.5 0.5 1.19-0.95 1.99-0.98 3.32-0.1 1.4 0.92 2.34 0.71 4.75-1.05 2.57-1.87 3.43-2.02 6-1.08 2.6 0.96 3.24 0.83 4.75-0.96 0.96-1.13 2.87-2.06 4.25-2.06 1.37 0 2.72-0.68 3-1.5 0.28-0.82 1.29-1.49 2.25-1.48 0.96 0.01 3.97-1.45 6.68-3.25 2.7-1.8 7.33-5.97 10.28-9.27 2.95-3.3 6.89-8.92 8.76-12.5 1.87-3.58 4.11-9.2 4.97-12.5 0.86-3.3 1.51-7.35 1.43-9-0.1-2.27-0.4-1.72-1.25 2.27-0.62 2.89-1.46 5.26-1.87 5.25-0.41-0.01-0.48-1.93-0.15-4.27 0.33-2.34 1.45-5.49 2.5-7 1.04-1.51 1.88-3.76 1.87-5-0.02-1.24-0.69-5.85-1.49-10.25-0.8-4.4-2.85-10.92-4.56-14.5-1.7-3.58-4.52-8.41-6.26-10.75-1.74-2.33-3.27-4.02-3.41-3.75-0.14 0.28 1.55 3.2 3.75 6.5 2.2 3.3 3.78 6.45 3.5 7-0.28 0.55-2.54-2.04-5.03-5.75-2.49-3.71-4.52-7.76-4.5-9 0.02-1.55-1.61-3.54-5.22-6.37-2.89-2.26-7.72-5.35-10.75-6.87-3.03-1.51-8.42-3.48-12-4.37-3.58-0.89-7.4-1.6-8.5-1.56l-2 0.06zm15.52 5.17c-0.3-0.72 0.15-0.92 1.2-0.54 0.93 0.33 1.71 1.01 1.73 1.5 0.03 0.49-0.51 0.74-1.2 0.54-0.69-0.19-1.47-0.86-1.73-1.5zm-51.47 2.85c0.3-0.55 1.11-1 1.79-1 0.69 0 1.11 0.45 0.95 1-0.16 0.55-0.96 1-1.79 1-0.83 0-1.25-0.45-0.95-1zm56.57-0.08c0.06-0.6 0.58-0.93 1.15-0.75 0.56 0.18 1.19 0.9 1.38 1.58 0.21 0.74-0.27 1.05-1.15 0.75-0.83-0.27-1.45-0.98-1.38-1.58zm-5.72 1.08c-0.33-0.55 0.12-1 1-1 0.88 0 1.6 0.45 1.6 1 0 0.55-0.45 1-1 1-0.55 0-1.27-0.45-1.6-1zm-54.85 2c0.3-0.55 0.92-1 1.38-1 0.45 0 0.66 0.45 0.45 1-0.21 0.55-0.83 1-1.38 1-0.55 0-0.75-0.45-0.45-1zm5.45 0c0-0.55 0.67-1 1.5-1 0.83 0 1.5 0.23 1.5 0.5 0 0.28-0.67 0.73-1.5 1-0.83 0.28-1.5 0.05-1.5-0.5zm53.4 0c-0.33-0.55 0.12-1 1-1 0.88 0 1.82 0.45 2.1 1 0.28 0.55-0.18 1-1 1-0.83 0-1.77-0.45-2.1-1zm6.6 0c0-0.55 0.45-1 1-1 0.55 0 1 0.68 1 1.5 0 0.83-0.45 1.28-1 1-0.55-0.27-1-0.95-1-1.5zm-15.6 2c-0.33-0.55-0.11-1 0.5-1 0.6 0 1.32 0.45 1.6 1 0.28 0.55 0.05 1-0.5 1-0.55 0-1.27-0.45-1.6-1zm-54.4 1c0-0.55 0.45-1 1-1 0.55 0 1 0.45 1 1 0 0.55-0.45 1-1 1-0.55 0-1-0.45-1-1zm5.36-0.01c0.41-0.54 1.17-0.99 1.69-0.99 0.52 0 0.95 0.23 0.95 0.5 0 0.28-0.76 0.72-1.69 0.99-1 0.29-1.38 0.09-0.95-0.5zm10.64 0.01c0.83-0.53 1.61-0.97 1.75-0.98 0.14-0.01 0.25 0.43 0.25 0.98 0 0.55-0.79 1-1.75 0.99-1.5-0.02-1.53-0.16-0.25-0.99zm52.4 0c-0.33-0.55-0.22-0.99 0.25-0.98 0.47 0.01 1.53 0.45 2.35 0.98 1.28 0.83 1.25 0.97-0.25 0.99-0.96 0.01-2.02-0.44-2.35-0.99zm5.7-0.06c0.06-0.58 0.55-0.78 1.1-0.44 0.55 0.34 0.96 1.04 0.9 1.56-0.05 0.52-0.55 0.72-1.1 0.44-0.55-0.27-0.95-0.97-0.9-1.56zm-14.7 1.06c-0.33-0.55-0.11-1 0.5-1 0.6 0 1.32 0.45 1.6 1 0.28 0.55 0.05 1-0.5 1-0.55 0-1.27-0.45-1.6-1zm-47.48 1c0.79-0.49 1.69-0.66 2-0.39 0.32 0.28-0.1 0.9-0.92 1.39-0.83 0.49-1.72 0.67-2 0.39-0.28-0.27 0.14-0.9 0.92-1.39zm40.83-0.42c-0.69-0.23-0.13-0.42 1.25-0.42 1.37 0 1.94 0.19 1.25 0.42-0.69 0.23-1.81 0.23-2.5 0zm-56.2 1.42c0.3-0.55 0.75-1 1-1 0.25 0 0.45 0.45 0.45 1 0 0.55-0.45 1-1 1-0.55 0-0.75-0.45-0.45-1zm4.81-0.01c0.41-0.54 1.17-0.99 1.69-0.99 0.52 0 0.95 0.23 0.95 0.5 0 0.28-0.76 0.72-1.69 0.99-1 0.29-1.38 0.09-0.95-0.5zm15.19 0.01c0.3-0.55 1.31-0.99 2.25-0.98 1.46 0.01 1.49 0.15 0.2 0.98-0.83 0.54-1.84 0.98-2.25 0.99-0.41 0.01-0.5-0.44-0.2-0.99zm46.36-0.72c0-0.12 0.67 0.04 1.5 0.36 0.82 0.32 1.54 1.09 1.59 1.72 0.05 0.68-0.55 0.54-1.5-0.36-0.87-0.82-1.59-1.6-1.59-1.72zm9.49 0.72c-0.33-0.55-0.11-1 0.5-1 0.6 0 1.32 0.45 1.6 1 0.28 0.55 0.05 1-0.5 1-0.55 0-1.27-0.45-1.6-1zm5.33 0.42c-0.15-0.87 0.14-1.43 0.65-1.25 0.51 0.18 1.08 0.9 1.27 1.58 0.19 0.69-0.1 1.25-0.65 1.25-0.55 0-1.12-0.71-1.27-1.58zm-20.73 0.08c0-0.27 0.67-0.5 1.5-0.5 0.83 0 1.5 0.45 1.5 1 0 0.55-0.67 0.78-1.5 0.5-0.83-0.27-1.5-0.72-1.5-1zm-44 1.5c0.83-0.53 1.61-0.97 1.75-0.98 0.14-0.01 0.25 0.43 0.25 0.98 0 0.55-0.79 1-1.75 0.99-1.5-0.02-1.53-0.16-0.25-0.99zm-15 1c0-0.55 0.45-1 1-1 0.55 0 1 0.23 1 0.5 0 0.28-0.45 0.73-1 1-0.55 0.28-1 0.05-1-0.5zm8.55 0c0.3-0.55 0.92-1 1.38-1 0.45 0 0.66 0.45 0.45 1-0.21 0.55-0.83 1-1.38 1-0.55 0-0.75-0.45-0.45-1zm55.45 0c0-0.55 0.45-1 1-1 0.55 0 1.22 0.45 1.5 1 0.28 0.55-0.17 1-1 1-0.83 0-1.5-0.45-1.5-1zm6.02 0.53c-1.05-1.08-1.12-1.53-0.25-1.53 0.68 0 1.45 0.45 1.73 1 0.28 0.55 0.39 1.24 0.25 1.53-0.14 0.28-0.92-0.17-1.73-1zm8.08-0.59c0.06-0.58 0.55-0.78 1.1-0.44 0.55 0.34 0.96 1.04 0.9 1.56-0.05 0.52-0.55 0.72-1.1 0.44-0.55-0.27-0.95-0.97-0.9-1.56zm-83.1 1.06c0-0.55 0.45-1 1-1 0.55 0 1 0.23 1 0.5 0 0.28-0.45 0.73-1 1-0.55 0.28-1 0.05-1-0.5zm59.12-0.08c0.06-0.6 0.58-0.93 1.15-0.75 0.56 0.18 1.19 0.9 1.38 1.58 0.21 0.74-0.27 1.05-1.15 0.75-0.83-0.27-1.45-0.98-1.38-1.58zm-43.57 1.08c0.3-0.55 0.92-1 1.38-1 0.45 0 0.66 0.45 0.45 1-0.21 0.55-0.83 1-1.38 1-0.55 0-0.75-0.45-0.45-1zm-5.55 1c0-0.55 0.45-1 1-1 0.55 0 1 0.23 1 0.5 0 0.28-0.45 0.73-1 1-0.55 0.28-1 0.05-1-0.5zm15 0c0-0.55 0.45-1 1-1 0.55 0 1 0.23 1 0.5 0 0.28-0.45 0.73-1 1-0.55 0.28-1 0.05-1-0.5zm39.02 0.53c-1.05-1.08-1.12-1.53-0.25-1.53 0.68 0 1.45 0.45 1.73 1 0.27 0.55 0.39 1.24 0.25 1.53-0.14 0.28-0.92-0.17-1.73-1zm8.98-0.53c-1.28-0.83-1.25-0.97 0.25-0.98 0.96-0.01 1.97 0.43 2.25 0.98 0.27 0.55 0.16 1-0.25 0.99-0.41-0.01-1.43-0.45-2.25-0.99zm-15 1c0-0.55 0.45-1 1-1 0.55 0 1.22 0.45 1.5 1 0.27 0.55-0.18 1-1 1-0.83 0-1.5-0.45-1.5-1zm21.1-0.06c0.06-0.58 0.55-0.78 1.1-0.44 0.55 0.34 0.96 1.04 0.9 1.56-0.05 0.52-0.55 0.72-1.1 0.44-0.55-0.27-0.95-0.97-0.9-1.56zm-67.55 1.06c0.3-0.55 0.99-1 1.53-1 0.54 0 0.4 0.69-0.3 1.53-0.7 0.83-1.39 1.28-1.53 1-0.14-0.29 0-0.98 0.3-1.53zm9.45 0c0-0.55 0.45-1 1-1 0.55 0 1 0.45 1 1 0 0.55-0.45 1-1 1-0.55 0-1-0.45-1-1zm-14.35 1.71c0.43-0.99 1.01-1.54 1.31-1.23 0.3 0.3-0.05 1.11-0.77 1.79-1.06 1-1.16 0.89-0.54-0.56zm18.75-0.71c-0.33-0.55 0.34-1 1.5-1 1.15 0 2.1 0.23 2.1 0.5 0 0.28-0.68 0.73-1.5 1-0.83 0.28-1.77 0.05-2.1-0.5zm37.09 0.05c0.27-0.53 1.17-0.75 2-0.5 0.83 0.25 1.28 0.9 1.01 1.45-0.28 0.55-1.18 0.78-2 0.5-0.83-0.27-1.28-0.93-1.01-1.45zm5.76-0.02c-0.14-0.7 0.27-1.11 0.9-0.9 0.63 0.2 1.4 1.05 1.7 1.87q0.57 1.53-0.9 0.9c-0.8-0.33-1.56-1.17-1.7-1.87zm8.98-0.15q0.24-1.12 1.53 0.25c0.71 0.76 1.05 1.49 0.76 1.62-0.28 0.14-0.97 0.03-1.52-0.25-0.55-0.27-0.9-1-0.77-1.62zm-60.73 1.79c0.46-0.37 1.21-0.67 1.67-0.67 0.45 0 0.83 0.45 0.83 1 0 0.55-0.68 1.23-1.5 1.5-0.83 0.28-1.58 0.13-1.67-0.33-0.09-0.46 0.21-1.13 0.67-1.5zm5.05 0.33c0.3-0.55 0.98-1 1.5-1 0.52 0 0.95 0.45 0.95 1 0 0.55-0.68 1-1.5 1-0.83 0-1.25-0.45-0.95-1zm-13 1c0.3-0.55 0.75-1 1-1 0.25 0 0.45 0.45 0.45 1 0 0.55-0.45 1-1 1-0.55 0-0.75-0.45-0.45-1zm57.85 0c-0.33-0.55 0.12-1 1-1 0.88 0 1.82 0.45 2.1 1 0.27 0.55-0.18 1-1 1-0.83 0-1.77-0.45-2.1-1zm5.79-0.37c0.15-0.48 0.95-0.31 1.78 0.37 0.82 0.69 1.41 1.76 1.31 2.38-0.12 0.72-0.76 0.59-1.78-0.38-0.87-0.82-1.46-1.89-1.31-2.37zm-58.69 2.04c0.46-0.37 0.98-0.44 1.17-0.17 0.18 0.28-0.11 1.29-0.64 2.25-0.83 1.51-1 1.53-1.17 0.17-0.1-0.87 0.18-1.88 0.64-2.25zm4.05 0.33c0.3-0.55 1.11-1 1.79-1 0.69 0 1.11 0.45 0.95 1-0.16 0.55-0.97 1-1.79 1-0.83 0-1.25-0.45-0.95-1zm19.7-0.29c5.09-0.16 10.49-0.39 12-0.5 1.51-0.11 5.22 0.69 8.25 1.79 3.02 1.1 5.52 2.57 5.54 3.25 0.02 0.69-2.68 2.38-12.01 6.25l-2.52-2.75c-1.38-1.51-3.19-2.75-4.01-2.75-0.83 0-2.51 1.11-3.75 2.46-1.83 2.01-3.23 2.47-12.75 2.54v-10zm33.34 1.28c0.32-0.56 1.04-0.76 1.6-0.44 0.56 0.31 0.97 1 0.91 1.51-0.05 0.52-0.78 0.72-1.6 0.45-0.83-0.28-1.24-0.96-0.91-1.52zm-56.04 3.02c0.3-0.55 0.92-1 1.38-1 0.45 0 0.66 0.45 0.45 1-0.21 0.55-0.83 1-1.38 1-0.55 0-0.75-0.45-0.45-1zm-9.25 3.65c1.14-2.12 2.21-3.69 2.39-3.5 0.18 0.19-0.8 2.82-2.16 5.85-1.36 3.02-2.99 8.2-3.6 11.5-0.62 3.3-0.89 8.02-0.6 10.5 0.33 2.78 1.27 5.07 2.47 6 1.06 0.82 2.4 2.85 2.96 4.5 0.57 1.65 1.31 3.78 1.64 4.75 0.33 0.96 0.15 1.75-0.4 1.75-0.55 0-1.75-2.37-2.67-5.25-0.91-2.89-1.85-4.58-2.08-3.75-0.24 0.82 0.29 3.18 1.16 5.25 0.87 2.06 1.25 3.75 0.84 3.76-0.41 0.01-1.73-2.58-2.93-5.75-1.2-3.17-2.22-4.98-2.25-4.01-0.04 0.96 0.62 3.43 1.45 5.5 0.84 2.06 1.52 3.86 1.5 4-0.01 0.13-0.47 0.25-1.02 0.25-0.55 0-1.67-2.37-2.5-5.25-1-3.54-1.16-5.58-0.48-6.25 0.56-0.55 1-4.15 0.99-8-0.02-3.85 0.7-9.48 1.59-12.5 0.89-3.03 2.55-7.24 3.7-9.35zm92.8-2.21c0.06-0.86 0.55-1.28 1.1-0.94 0.55 0.34 0.96 1.04 0.9 1.55-0.05 0.52-0.55 0.95-1.1 0.95-0.55 0-0.95-0.71-0.9-1.56zm-3.1 1.56c0-0.55 0.45-1 1-1 0.55 0 1 0.67 1 1.5 0 0.82-0.45 1.27-1 1-0.55-0.28-1-0.95-1-1.5zm-53.9 1.94c0.76-1.45 1.88-1.97 3.75-1.75 2.18 0.25 2.65 0.81 2.65 3.2 0 1.71-0.74 3.34-1.81 4-1.47 0.89-2.18 0.68-3.75-1.14-1.55-1.81-1.72-2.66-0.84-4.31zm49 0c0.06-0.59 0.55-0.78 1.1-0.44 0.55 0.34 0.96 1.04 0.9 1.55-0.05 0.52-0.55 0.72-1.1 0.45-0.55-0.28-0.95-0.98-0.9-1.56zm-101.05 1.56c-0.06-1.1 0.05-1.7 0.24-1.32 0.19 0.38 0.24 1.28 0.11 2-0.13 0.72-0.29 0.42-0.35-0.68zm110.97 0.25c0.01-1.82 0.2-1.97 0.98-0.75 0.53 0.82 0.98 1.83 0.98 2.25 0.01 0.41-0.43 0.75-0.98 0.75-0.55 0-0.99-1.02-0.98-2.25zm-108.52-0.09c0.46-0.36 1.1-0.43 1.42-0.15 0.32 0.29 0.01 1.07-0.69 1.75q-1.26 1.23-1.41 0.15c-0.09-0.59 0.22-1.38 0.68-1.75zm95.9 0.34c-0.33-0.55-0.11-1 0.5-1 0.6 0 1.1 0.45 1.1 1 0 0.55-0.23 1-0.5 1-0.28 0-0.77-0.45-1.1-1zm9.72 0.69c0.04-0.45 0.53-0.53 1.08-0.19 0.55 0.34 0.95 1.37 0.89 2.3-0.1 1.47-0.25 1.49-1.09 0.2-0.53-0.83-0.93-1.87-0.88-2.31zm-100.07 1.81c-0.06-1.1 0.05-1.7 0.24-1.32 0.19 0.38 0.24 1.28 0.11 2-0.13 0.72-0.29 0.42-0.35-0.68zm94.97 0.25c0.01-1.82 0.2-1.97 0.98-0.75 0.53 0.82 0.98 1.83 0.98 2.25 0.01 0.41-0.43 0.75-0.98 0.75-0.55 0-0.99-1.02-0.98-2.25zm-92.52-0.09c0.46-0.36 1.1-0.43 1.42-0.15 0.32 0.29 0.01 1.07-0.69 1.75q-1.26 1.23-1.41 0.15c-0.09-0.59 0.22-1.38 0.68-1.75zm37.29 4.44c2.35-4.95 2.69-5.26 4.14-3.78 0.86 0.9 2.47 1.62 3.57 1.62 1.1 0 2.87-0.73 3.93-1.63 1.06-0.9 2.01-1.45 2.11-1.22 0.1 0.22 3.39 6.59 7.32 14.16 3.93 7.56 6.91 13.75 6.64 13.75-0.28 0-4.66-5.18-9.75-11.49-5.09-6.32-9.59-11.5-10-11.5-0.41-0.01-4.58 5.39-9.25 11.99-4.68 6.6-8.73 11.88-9 11.75-0.28-0.14 1.35-4.3 3.62-9.25 2.26-4.95 5.26-11.43 6.67-14.4zm46.21-3.1c0-1.1 0.26-2 0.57-2 0.32 0 0.77 0.67 1 1.5 0.24 0.82-0.02 1.72-0.57 2-0.55 0.27-1-0.4-1-1.5zm-96 0.5c0-0.83 0.45-1.5 1-1.5 0.55 0 1 0.67 1 1.5 0 0.82-0.45 1.5-1 1.5-0.55 0-1-0.68-1-1.5zm102.1-0.06c0.06-0.86 0.55-1.28 1.1-0.94 0.55 0.34 0.96 1.04 0.9 1.55-0.05 0.52-0.55 0.95-1.1 0.95-0.55 0-0.95-0.71-0.9-1.56zm-99.1 1.56c0-1.1 0.45-2 1-2 0.55 0 0.77 0.9 0.5 2-0.28 1.1-0.73 2-1 2-0.28 0-0.5-0.9-0.5-2zm90-1c0-0.55 0.45-1 1-1 0.55 0 1 0.67 1 1.5 0 0.82-0.45 1.27-1 1-0.55-0.28-1-0.95-1-1.5zm21.61-0.25c0.27-0.42 0.69-0.75 0.94-0.75 0.25 0 0.44 1.01 0.43 2.25-0.01 1.79-0.2 1.94-0.93 0.75-0.5-0.83-0.7-1.84-0.44-2.25zm-97.61 1.75c0-0.83 0.45-1.5 1-1.5 0.55 0 1 0.45 1 1 0 0.55-0.45 1.22-1 1.5-0.55 0.27-1-0.18-1-1zm94.12-0.81c0.04-0.45 0.53-0.53 1.08-0.19 0.55 0.34 0.95 1.37 0.89 2.3-0.1 1.47-0.25 1.49-1.09 0.2-0.53-0.83-0.93-1.87-0.88-2.31zm-102.62 0.97c0.46-0.36 1.1-0.43 1.42-0.15 0.32 0.29 0.01 1.07-0.69 1.75q-1.26 1.23-1.41 0.15c-0.09-0.59 0.22-1.38 0.68-1.75zm12 0c0.46-0.36 1.1-0.43 1.42-0.15 0.32 0.29 0.01 1.07-0.69 1.75q-1.26 1.23-1.41 0.15c-0.09-0.59 0.22-1.38 0.68-1.75zm-9.5 1.84c0-0.83 0.35-1.5 0.77-1.5 0.42 0 0.65 0.67 0.5 1.5-0.15 0.82-0.5 1.5-0.77 1.5-0.28 0-0.5-0.68-0.5-1.5zm86 0c0-0.83 0.45-1.5 1-1.5 0.55 0 1 0.9 1 2 0 1.1-0.45 1.77-1 1.5-0.55-0.28-1-1.18-1-2zm9.1-0.06c0.06-0.86 0.55-1.28 1.1-0.94 0.55 0.34 0.96 1.04 0.9 1.55-0.05 0.52-0.55 0.95-1.1 0.95-0.55 0-0.95-0.71-0.9-1.56zm-12 1c0.06-0.86 0.55-1.28 1.1-0.94 0.55 0.34 0.96 1.26 0.9 2.05-0.05 0.8-0.55 1.22-1.1 0.95-0.55-0.28-0.95-1.21-0.9-2.06zm9 0c0.06-0.86 0.55-1.28 1.1-0.94 0.55 0.34 0.96 1.26 0.9 2.05-0.05 0.8-0.55 1.22-1.1 0.95-0.55-0.28-0.95-1.21-0.9-2.06zm-104.1 1.06c0-0.83 0.45-1.5 1-1.5 0.55 0 1 0.67 1 1.5 0 0.82-0.45 1.5-1 1.5-0.55 0-1-0.68-1-1.5zm56.69 0.75c0.83-1.24 1.8-2.26 2.16-2.27 0.36 0 1.44 1.35 2.4 3 1.21 2.09 1.75 5.16 1.75 17.02l-6.5 0.01-0.66-7.76c-0.51-6.07-0.33-8.24 0.85-10zm-53.69 0.25c0-0.83 0.35-1.5 0.77-1.5 0.42 0 0.65 0.67 0.5 1.5-0.15 0.82-0.5 1.5-0.77 1.5-0.28 0-0.5-0.68-0.5-1.5zm14.1-0.06c0.06-0.86 0.55-1.28 1.1-0.94 0.55 0.34 0.96 1.04 0.9 1.55-0.05 0.52-0.55 0.95-1.1 0.95-0.55 0-0.95-0.71-0.9-1.56zm99.3-0.18c0.84-1.63 0.94-1.61 1.31 0.24 0.21 1.1 0.14 2.22-0.16 2.5-0.3 0.27-0.89 0.16-1.3-0.24-0.41-0.41-0.34-1.54 0.15-2.5zm-107.35 1.24c-0.06-1.1 0.05-1.7 0.24-1.32 0.19 0.38 0.24 1.28 0.11 2-0.13 0.72-0.29 0.42-0.35-0.68zm10.95 0c0-0.83 0.45-1.5 1-1.5 0.55 0 1 0.67 1 1.5 0 0.82-0.45 1.5-1 1.5-0.55 0-1-0.68-1-1.5zm93 0c0-0.83 0.45-1.5 1-1.5 0.55 0 1 0.9 1 2 0 1.1-0.45 1.77-1 1.5-0.55-0.28-1-1.18-1-2zm-101.5 0.16c0.46-0.36 1.1-0.43 1.42-0.15 0.32 0.29 0.01 1.07-0.69 1.75q-1.26 1.23-1.41 0.15c-0.09-0.59 0.22-1.38 0.68-1.75zm87.5 1.84c0-0.83 0.45-1.5 1-1.5 0.55 0 1 0.67 1 1.5 0 0.82-0.45 1.5-1 1.5-0.55 0-1-0.68-1-1.5zm6 0c0-0.83 0.26-1.5 0.57-1.5 0.32 0 0.77 0.67 1 1.5 0.24 0.82-0.02 1.5-0.57 1.5-0.55 0-1-0.68-1-1.5zm3.05 0c-0.06-1.1 0.05-1.7 0.24-1.32 0.19 0.38 0.24 1.28 0.11 2-0.13 0.72-0.29 0.42-0.35-0.68zm-107.89 1.5c0-1.38 0.22-2.05 0.5-1.5 0.28 0.55 0.28 1.67 0 2.5-0.28 0.82-0.5 0.37-0.5-1zm95.84-0.5c0-0.83 0.45-1.5 1-1.5 0.55 0 1 0.67 1 1.5 0 0.82-0.45 1.5-1 1.5-0.55 0-1-0.68-1-1.5zm-92.84 1.5c0-1.38 0.22-2.05 0.5-1.5 0.28 0.55 0.28 1.67 0 2.5-0.28 0.82-0.5 0.37-0.5-1zm4.94 0.44c0.06-0.86 0.55-1.28 1.1-0.94 0.55 0.34 0.96 1.04 0.9 1.55-0.05 0.52-0.55 0.95-1.1 0.95-0.55 0-0.95-0.71-0.9-1.56zm9.06 0.56c0-1.38 0.22-2.05 0.5-1.5 0.28 0.55 0.28 1.67 0 2.5-0.28 0.82-0.5 0.37-0.5-1zm3 0c0-1.38 0.22-2.05 0.5-1.5 0.28 0.55 0.28 1.67 0 2.5-0.28 0.82-0.5 0.37-0.5-1zm33.04-2.47l0.41 6.48c0.22 3.57 0.29 6.59 0.15 6.73-0.14 0.13-1.84-0.27-3.76-0.9-1.93-0.63-3.61-1.3-3.75-1.49-0.14-0.2 1.37-2.71 3.35-5.59zm10.88-0.03l4 4.5c2.2 2.47 3.98 4.83 3.96 5.25-0.02 0.41-1.17 1.2-2.54 1.75-1.38 0.55-3.18 1-4 1-1.18 0-1.49-1.35-1.46-6.25zm53.08 2.5c0-1.38 0.22-2.05 0.5-1.5 0.28 0.55 0.28 1.67 0 2.5-0.28 0.82-0.5 0.37-0.5-1zm-106.16 0.5c0-0.83 0.45-1.5 1-1.5 0.55 0 1 0.45 1 1 0 0.55-0.45 1.22-1 1.5-0.55 0.27-1-0.18-1-1zm103.16 0.5c0-1.38 0.22-2.05 0.5-1.5 0.28 0.55 0.28 1.67 0 2.5-0.28 0.82-0.5 0.37-0.5-1zm-14.76 0.26c0.84-1.63 0.94-1.61 1.31 0.24 0.21 1.1 0.14 2.22-0.16 2.5-0.3 0.27-0.89 0.16-1.3-0.24-0.41-0.41-0.34-1.54 0.15-2.5zm5.57 0.74c0-2.01 0.24-2.26 1.26-1.25 1.02 1.01 1.02 1.49 0 2.5-1.02 1-1.26 0.76-1.26-1.25zm3.08-0.5c-0.06-1.1 0.05-1.69 0.24-1.32 0.19 0.38 0.24 1.28 0.11 2-0.13 0.73-0.29 0.42-0.35-0.68zm-12.05 1c0-0.83 0.45-1.5 1-1.5 0.55 0 1 0.67 1 1.5 0 0.82-0.45 1.5-1 1.5-0.55 0-1-0.68-1-1.5zm-95.84 1.5c0-1.38 0.22-2.05 0.5-1.5 0.28 0.55 0.28 1.67 0 2.5-0.28 0.82-0.5 0.37-0.5-1zm3 1c0-1.38 0.22-2.05 0.5-1.5 0.28 0.55 0.28 1.67 0 2.5-0.28 0.82-0.5 0.37-0.5-1zm13.85-0.25c0.02-1.82 0.21-1.97 0.99-0.75 0.53 0.82 0.98 1.83 0.98 2.25 0.01 0.41-0.43 0.75-0.98 0.75-0.55 0-0.99-1.02-0.99-2.25zm61.99-0.55c0.77-0.66 1.65-1.22 1.95-1.25 0.3-0.02 1.11 0.54 1.8 1.25 1 1.04 0.85 1.64-0.75 3.05-1.1 0.96-2.45 1.52-3 1.25-0.55-0.28-1.09-1.09-1.2-1.8-0.11-0.72 0.43-1.84 1.2-2.5zm-69.95 1.3c-0.06-1.1 0.05-1.69 0.24-1.32 0.19 0.38 0.24 1.28 0.11 2-0.13 0.73-0.29 0.42-0.35-0.68zm2.49 0c-0.24-0.83-0.02-1.5 0.5-1.5 0.53 0 0.96 0.67 0.96 1.5 0 0.82-0.23 1.5-0.5 1.5-0.28 0-0.71-0.68-0.96-1.5zm8.46 0c0-0.83 0.45-1.5 1-1.5 0.55 0 1 0.45 1 1 0 0.55-0.45 1.22-1 1.5-0.55 0.27-1-0.18-1-1zm49.5 5c1.65-0.74 3.22-1.4 3.5-1.47 0.27-0.07 1.06 0.57 1.75 1.42 1.05 1.3 0.81 1.77-1.5 2.93-1.51 0.76-5.45 1.93-8.75 2.6-4.53 0.91-7.47 0.93-12 0.09-3.3-0.62-6.9-1.75-8-2.53-1.36-0.96-1.68-1.75-1-2.49 0.71-0.76 2.87-0.61 7.5 0.53 4.18 1.03 8.1 1.36 11 0.93 2.47-0.37 5.85-1.27 7.5-2.01zm3 4.56c2.2-1.04 4.29-1.82 4.65-1.73 0.36 0.09 2.52 2.42 8.95 10.17l-4.3 3.73c-2.37 2.06-5.56 4.31-7.09 5-1.54 0.7-2.67 1.65-2.5 2.13 0.16 0.47 3.66 2.1 7.79 3.62 4.73 1.74 7.59 3.36 7.75 4.39 0.14 0.89-0.09 1.63-0.5 1.64-0.41 0-3.56-0.9-7-2-3.44-1.11-6.14-2.23-6-2.5 0.14-0.27 2.95 0.41 6.25 1.51 3.3 1.1 6.22 2.01 6.5 2.01 0.27 0 0.05-0.44-0.5-0.98-0.55-0.54-4.26-2.13-8.25-3.52-3.99-1.39-7.25-2.08-7.25-1.53 0 0.55 0.56 1.22 1.25 1.49 0.69 0.27 0.24 0.27-1 0-1.24-0.27-2.26-0.16-2.27 0.26-0.01 0.41 2.92 1.76 6.5 3 4.13 1.42 6.52 2.8 6.52 3.75 0 0.82-0.56 1.5-1.25 1.51-0.69 0.01-5.19-1.34-10-3-4.81-1.66-9.43-3.01-10.25-3.01-0.83 0-5.21 1.58-9.75 3.51-4.54 1.93-9.04 3.51-10 3.5-0.96-0.01-1.77-0.58-1.79-1.26-0.02-0.69 2.8-2.57 6.25-4.17 3.46-1.61 5.84-3.08 5.29-3.28-0.55-0.21-4.04 0.99-7.75 2.66-3.71 1.67-7.43 3.04-8.25 3.04-0.83 0-1.73-0.45-2-1-0.28-0.55 2.88-2.69 7.01-4.75 4.13-2.07 7.5-4.09 7.5-4.5-0.01-0.42-0.82-1.09-1.82-1.5-0.99-0.42-3.92-2.1-6.5-3.75-2.58-1.65-4.69-3.34-4.69-3.75 0-0.42 1.69-3.21 3.75-6.21 2.06-3 4.2-5.28 4.75-5.05 0.55 0.22 3.6 1.22 12.54 4.01l-0.04 18.5h10v-10c0-8.85 0.2-10.01 1.75-10.03 0.96-0.01 3.55-0.88 5.75-1.91zm-16.58 2.94h7.08l0.25 6.5c0.14 3.57 0.25 7.51 0.25 8.75 0 1.9-0.54 2.25-7 2.25l-0.29-8.75zm39.08 9.96c6.32-0.35 12.74-0.71 14.25-0.8 2.43-0.14 2.63 0.07 1.75 1.84-0.82 1.63-2.34 2.1-8.25 2.57-3.99 0.31-11.08 0.42-15.75 0.25-7.98-0.3-8.35-0.41-6-1.78 1.56-0.9 6.82-1.69 14-2.08zm-86.06 4.04c-1.03-1.96-0.74-2 13.25-2.02 10.57-0.01 14.83 0.34 16.31 1.37 1.82 1.25 1.41 1.44-4.5 2.02-3.58 0.35-10.44 0.63-15.25 0.63-7.73 0-8.88-0.24-9.81-2zm97.61 1c0.3-0.55 0.91-1 1.36-1 0.45 0 0.1 1.37-0.79 3.06-0.89 1.68-2.63 4.04-3.87 5.25-1.23 1.2-2.58 1.84-3 1.43-0.41-0.42 0.6-2.1 2.25-3.74 1.65-1.64 2.66-3.21 2.25-3.49-0.41-0.28-1.99 1.08-3.5 3.03-1.51 1.95-3.43 3.54-4.25 3.52-0.97-0.02-0.18-1.45 2.27-4.07 2.25-2.41 4.37-3.83 5.25-3.51 0.81 0.28 1.73 0.07 2.03-0.48zm-30.55 1c0.82-0.54 1.78-0.98 2.13-0.99 0.34-0.01 0.45 0.44 0.25 0.99-0.21 0.55-1.17 0.99-2.13 0.98-1.5-0.01-1.53-0.15-0.25-0.98zm4.95 0.5c0.82-0.83 1.86-1.5 2.3-1.5 0.44 0 0.23 0.69-0.47 1.54-0.71 0.85-1.74 1.53-2.31 1.5-0.56-0.02-0.35-0.72 0.48-1.54zm4.05 0.5c1.37-1.08 2.95-1.95 3.5-1.95 0.55 0.01-0.13 0.92-1.5 2.02-1.38 1.11-2.95 1.98-3.5 1.95-0.55-0.04 0.12-0.95 1.5-2.02zm3.75 0.53c1.51-1.36 3.16-2.48 3.66-2.5 0.5-0.02-0.4 1.3-2 2.94-1.6 1.63-3.25 2.75-3.66 2.5-0.41-0.26 0.49-1.58 2-2.94zm3.68 0.46c1.61-1.65 3.38-2.99 3.93-2.99 0.55 0-0.55 1.56-2.43 3.48-1.89 1.92-3.66 3.26-3.93 2.99-0.28-0.27 0.82-1.84 2.43-3.48zm3.57 0.51c1.92-1.92 3.92-3.5 4.43-3.5 0.51 0-0.62 1.58-2.5 3.51-1.89 1.94-3.88 3.51-4.43 3.5-0.55-0.01 0.58-1.59 2.5-3.51zm-54.6-1.5c-0.33-0.55 0.12-1 1-1 0.88 0 1.6 0.45 1.6 1 0 0.55-0.45 1-1 1-0.55 0-1.27-0.45-1.6-1zm-27.27 4.25c-1.99-2.34-3.17-4.26-2.63-4.27 0.55-0.01 3.02 2.06 5.5 4.6 3.08 3.15 3.91 4.5 2.62 4.26-1.03-0.19-3.5-2.26-5.49-4.59zm1.84-3.75c0-0.55 1.81 0.8 4.03 3 2.22 2.2 4.03 4.45 4.03 5 0 0.55-1.81-0.8-4.03-3-2.22-2.2-4.03-4.45-4.03-5zm6.03 3c-1.93-1.95-3.05-3.54-2.5-3.54 0.55 0 2.57 1.59 4.5 3.54 1.92 1.94 3.05 3.53 2.5 3.53-0.55 0-2.58-1.59-4.5-3.53zm3.5-0.5c-1.65-1.68-2.55-3.05-2-3.05 0.55 0 2.35 1.37 4 3.05 1.65 1.67 2.55 3.04 2 3.04-0.55 0-2.35-1.37-4-3.04zm3.75-0.47c-1.51-1.36-2.3-2.48-1.75-2.5 0.55-0.01 2.35 1.08 4 2.44 1.65 1.35 2.44 2.47 1.75 2.49-0.69 0.02-2.49-1.07-4-2.43zm2.75-1.48c-1.33-0.91-1.33-1.03 0-1.07 0.82-0.03 2.4 0.93 5.5 4.31l-2-1.11c-1.1-0.62-2.68-1.57-3.5-2.13zm4.4-0.05c-0.33-0.55 0.12-1 1-1 0.88 0 1.82 0.45 2.1 1 0.27 0.55-0.18 1-1 1-0.83 0-1.77-0.45-2.1-1zm49.6 15.5c0-0.84 0.89-1.5 2-1.5 1.1 0 2 0.45 2 1 0 0.55-0.68 1.22-1.5 1.5-0.83 0.27-1.73 0.5-2 0.5-0.28 0-0.5-0.68-0.5-1.5zm-55 0.38c0.82-0.47 2.06-0.86 2.75-0.87 0.69-0.01 1.25 0.66 1.25 1.49 0 0.82-0.45 1.5-1 1.5-0.55 0-1.79-0.29-2.75-0.63-1.51-0.54-1.54-0.75-0.25-1.49zm21 1.77c3.57-1.43 7.17-2.61 8-2.62 0.82-0.02 4.99 1.09 9.25 2.47 4.26 1.37 7.75 2.95 7.75 3.5 0 0.55-0.79 1.28-1.75 1.62-0.96 0.34-4.11-0.33-7-1.5-2.89-1.17-6.15-2.12-7.25-2.12-1.1 0-4.97 1.23-8.59 2.75-5.67 2.36-6.71 2.54-7.46 1.25-0.48-0.83-0.55-1.78-0.16-2.13 0.39-0.34 3.63-1.79 7.21-3.22zm27.69 0.1c0.35-0.42 1.24-0.75 1.98-0.75 0.73 0 1.33 0.67 1.33 1.5 0 0.82-0.68 1.5-1.5 1.5-0.83 0-1.72-0.34-1.98-0.75-0.26-0.42-0.19-1.09 0.17-1.5zm-41.39 1.4c-0.22-0.82 0.3-1.21 1.34-1 0.93 0.19 1.84 0.91 2.03 1.6 0.18 0.69-0.41 1.14-1.34 1-0.92-0.14-1.83-0.86-2.03-1.6zm21.7 3.92q-2.52-2.01-1-2.02c0.82 0 2.62 0.87 4 1.95 1.71 1.33 2.02 1.97 1 2.02-0.83 0.03-2.63-0.84-4-1.95zm4-1.07c-0.83-0.54-1.05-0.97-0.5-0.97 0.55 0 1.67 0.43 2.5 0.97 0.82 0.53 1.05 0.97 0.5 0.97-0.55 0-1.68-0.44-2.5-0.97zm-10.45 1c0.3-0.55 0.92-1 1.38-1 0.45 0 0.65 0.45 0.45 1-0.21 0.55-0.83 1-1.38 1-0.55 0-0.75-0.45-0.45-1zm3 1c0.3-0.55 0.75-1 1-1 0.25 0 0.45 0.45 0.45 1 0 0.55-0.45 1-1 1-0.55 0-0.75-0.45-0.45-1z"/>
				<path id="Path 1" class="s3" d="m143.82 112.74c-0.83 0.97-1.87 2.44-2.3 3.26-0.44 0.83 0.51 0.28 2.09-1.22 1.59-1.5 2.63-2.96 2.31-3.26-0.32-0.29-1.27 0.26-2.1 1.22z"/>
				<path id="Path 2" class="s3" d="m86 120.76c-3.03 1.42-5.05 2.75-4.5 2.94 0.55 0.2 3.59-0.78 6.75-2.17 3.16-1.39 5.75-2.75 5.75-3.03 0-0.28-0.56-0.46-1.25-0.42-0.69 0.05-3.72 1.25-6.75 2.68zm21.98-3.01c-0.01 0.41 2.92 1.87 6.51 3.25 3.58 1.37 6.75 2.27 7.03 2 0.28-0.28-2.43-1.74-6.01-3.25-3.58-1.51-6.73-2.75-7.01-2.75-0.28 0-0.51 0.34-0.52 0.75zm-26.98-0.67c-3.58 1.62-6.16 3.16-5.75 3.43 0.41 0.27 3.56-0.71 7-2.18 3.44-1.47 6.68-3.05 7.2-3.5 0.56-0.49 0.36-0.8-0.5-0.76-0.8 0.04-4.37 1.4-7.95 3.01z"/>
			</g>
		</g>
		<g id="g5375">
			<path id="rect5363" fill-rule="evenodd" class="s0" d="m1515 255.78h170c8.28 0 15 6.72 15 15v170c0 8.28-6.72 15-15 15h-170c-8.28 0-15-6.72-15-15v-170c0-8.28 6.72-15 15-15z"/>
			<path id="rect5365" fill-rule="evenodd" class="s4" d="m1520 265.78h160c5.52 0 10 4.48 10 10v160c0 5.52-4.48 10-10 10h-160c-5.52 0-10-4.48-10-10v-160c0-5.52 4.48-10 10-10z"/>
			<path id="text5407" class="s0" d="m1581.67 281.83q-0.17 0.02-0.34 0.09-0.17 0.07-0.3 0.19-0.14 0.11-0.24 0.27-0.1 0.15-0.15 0.32 0 0 0 0.01 0 0 0 0 0 0 0 0 0 0.01 0 0.01c-3.99 0.56-7.76 3.03-11.19 8.52-3.6 5.86-6.31 14.28-8.39 24.76-9.8-3.39-18.33-5.29-25.22-5.17-7.25 0.12-12.3 1.98-14.56 5.95q0 0 0 0 0 0 0 0.01 0 0 0 0 0 0 0 0.01-1.17 2.14-1.17 4.8c0 3.18 1.17 6.73 3.38 10.71 3.27 6.05 9.13 12.53 16.95 19.39-7.94 6.99-13.87 13.51-17.14 19.51q0 0 0 0 0 0 0 0 0 0.01 0 0.01 0 0 0 0c-2.08 3.97-3.19 7.45-3.19 10.51q0 2.66 1.17 4.79 0 0.01 0 0.01 0 0 0 0 0 0.01 0 0.01 0 0 0 0c2.2 3.91 7.13 5.79 14.26 6.04q0 0 0 0 0 0 0.01 0 0 0 0 0 0 0 0.01 0c6.9 0.18 15.52-1.76 25.48-5.26 2.07 10.2 4.71 18.54 8.22 24.46q0 0 0 0.01 0 0 0 0 0 0 0 0 0 0.01 0 0.01c3.78 6.24 7.94 9.69 12.54 9.69 4.54 0 8.64-3.45 12.36-9.69q0 0 0-0.01 0 0 0 0 0 0 0 0 0-0.01 0-0.01c3.5-5.92 6.16-14.27 8.24-24.48 10.05 3.46 18.69 5.38 25.55 5.2 7.12-0.19 12.05-2.04 14.26-5.94v-0.02c0.85-1.42 1.27-3.09 1.27-4.92 0-3.06-1.1-6.5-3.18-10.41q0-0.01 0-0.01 0 0 0 0 0-0.01 0-0.01 0 0 0 0c-3.35-6.03-9.33-12.53-17.34-19.5 7.83-6.88 13.78-13.37 17.16-19.47h-0.02c2.21-3.91 3.38-7.41 3.38-10.54 0-1.82-0.42-3.49-1.27-4.92-2.28-3.97-7.33-5.81-14.63-5.93-6.88-0.13-15.42 1.78-25.24 5.15-2.08-10.47-4.77-18.88-8.37-24.74-3.72-6.05-7.75-9.41-12.17-9.41q-0.02 0-0.03 0-0.02 0-0.03 0-0.02 0-0.03 0-0.02 0-0.04 0zm0.13 7.09c1.13 0 2.32 0.51 3.65 1.75 1.32 1.24 2.72 3.21 4.12 5.9 2.62 4.95 4.72 12.37 6.34 21.68q-7.09 2.71-14.09 6.18c-4.8-2.32-9.57-4.36-14.32-6.18 1.63-9.31 3.73-16.73 6.34-21.68 1.41-2.69 2.81-4.66 4.17-5.9 1.35-1.24 2.57-1.75 3.79-1.75zm-45.79 28.31q1.03-0.01 2.18 0.04c5.65 0.29 12.99 2.18 21.59 5.33q-1.13 7.55-1.66 15.4-6.57 4.43-12.47 9.17c-7.09-5.87-12.42-11.29-15.5-16.08q0 0 0-0.01 0 0 0 0 0 0 0-0.01 0 0 0 0c-1.67-2.56-2.68-4.77-3.08-6.57-0.4-1.8-0.22-3.14 0.43-4.22q0 0 0 0 0 0 0-0.01 0.01 0 0.01 0 0 0 0-0.01c0.59-1.03 1.64-1.83 3.41-2.37q1.99-0.61 5.09-0.66zm91.49 0q3.1 0.05 5.11 0.66c1.77 0.54 2.85 1.34 3.47 2.37 0.62 1.08 0.81 2.42 0.39 4.22-0.41 1.81-1.45 4.03-3.12 6.59q0 0 0 0 0 0.01 0 0.01 0 0 0 0 0 0.01 0 0.01c-3.08 4.85-8.44 10.3-15.58 16.17q-5.9-4.75-12.47-9.19-0.54-7.92-1.76-15.47c8.6-3.15 15.99-5.04 21.76-5.33h0.01q1.16-0.05 2.19-0.04zm-30.51 7.89q0.51 4.02 0.85 8.16-1.99-1.22-3.98-2.48-0.01 0-0.01-0.01-0.01 0-0.02 0 0-0.01-0.01-0.01-0.01-0.01-0.01-0.01c-1.48-0.82-2.89-1.57-4.31-2.34q3.79-1.74 7.49-3.31zm-30.55 0.07q3.7 1.53 7.49 3.26c-1.4 0.77-2.8 1.52-4.23 2.34q0 0-0.01 0 0 0-0.01 0.01 0 0-0.01 0 0 0-0.01 0-2.06 1.27-4.09 2.5 0.36-4.14 0.87-8.11zm15.16 7.08q4.32 2.24 8.63 4.64 4.2 2.42 8.25 5 0.24 4.81 0.25 9.79-0.01 4.91-0.25 9.73-3.96 2.56-8.25 4.97-0.01 0-0.01 0.01 0 0 0 0-0.01 0-0.01 0.01 0 0 0 0c-2.81 1.66-5.63 3.21-8.43 4.71q-4.36-2.23-8.47-4.71 0 0-0.01 0-0.01-0.01-0.01-0.01-0.01 0-0.02 0 0-0.01-0.01-0.01-4.37-2.41-8.32-4.97-0.16-4.83-0.16-9.73 0-4.98 0.16-9.79 4.04-2.58 8.34-5 0 0 0 0 0 0 0.01 0 0 0 0 0 0 0 0.01 0 4.11-2.4 8.3-4.64zm0.2 11.23c-1.43 0-2.81 0.38-4.08 1.08-1.29 0.66-2.33 1.68-3.04 2.96q-1.08 1.93-1.08 4.16c0 1.43 0.37 2.82 1.08 4.09q0 0.01 0 0.01 0.01 0 0.01 0 0 0.01 0 0.01 0.01 0 0.01 0c0.72 1.23 1.75 2.22 3.02 2.93 1.27 0.7 2.65 1.07 4.08 1.07 1.37 0 2.72-0.37 3.98-1.07 1.28-0.71 2.31-1.7 3.03-2.93q0 0 0.01 0 0 0 0-0.01 0 0 0.01 0 0 0 0-0.01c0.71-1.27 1.08-2.66 1.08-4.09q-0.01-2.23-1.08-4.16c-0.71-1.29-1.75-2.3-3.05-2.96-1.26-0.7-2.61-1.08-3.98-1.08zm-24.07 3.33q-0.05 2.42-0.06 4.87 0.01 2.4 0.06 4.8c-2.29-1.58-4.53-3.17-6.66-4.8q3.2-2.49 6.66-4.87zm47.97 0q3.48 2.38 6.74 4.87c-2.17 1.64-4.43 3.22-6.74 4.8 0.06-1.6 0.13-3.2 0.13-4.8 0-1.64-0.07-3.25-0.13-4.87zm-60.12 9.32q5.97 4.75 12.54 9.19 0.53 7.83 1.66 15.37c-8.77 3.22-16.21 5.11-21.85 5.34q-4.53 0.16-7.14-0.66c-1.74-0.54-2.78-1.33-3.37-2.34-0.58-1.01-0.75-2.31-0.35-4.09 0.4-1.78 1.38-3.99 2.99-6.55q0.01-0.01 0.01-0.01 0 0 0 0 0.01 0 0.01-0.01 0 0 0 0c2.9-4.77 8.24-10.26 15.5-16.24zm72.26 0c7.26 5.99 12.64 11.48 15.6 16.26q0 0 0 0 0 0 0 0 0 0.01 0 0.01 0 0 0 0c1.64 2.57 2.65 4.77 3.05 6.54 0.4 1.77 0.22 3.07-0.39 4.07q0 0.01 0 0.01 0 0 0 0 0 0 0 0.01 0 0 0 0c-0.59 1.01-1.65 1.8-3.39 2.34q-2.61 0.82-7.13 0.66c-5.65-0.23-13.11-2.12-21.95-5.34q1.14-7.54 1.67-15.37 6.57-4.44 12.54-9.19zm-52.27 13.87c1.36 0.84 2.7 1.71 4.13 2.53 1.39 0.82 2.82 1.58 4.23 2.34q-3.79 1.74-7.51 3.31-0.5-4.03-0.85-8.18zm32.27 0.01q-0.34 4.15-0.85 8.17-3.7-1.57-7.49-3.31c1.42-0.77 2.83-1.52 4.31-2.34q0 0 0 0 0-0.01 0-0.01 0.01 0 0.01 0 0-0.01 0-0.01c1.38-0.81 2.7-1.66 4.02-2.5zm-16.24 8.86c4.75 2.33 9.53 4.39 14.33 6.27-1.57 9.09-3.64 16.42-6.27 21.5q0 0 0 0 0 0.01 0 0.01 0 0 0 0 0 0.01 0 0.01c-1.37 2.71-2.77 4.7-4.11 5.95-1.34 1.25-2.55 1.77-3.75 1.77-1.25 0-2.5-0.53-3.86-1.79q-2.07-1.88-4.18-5.95c-2.63-5.08-4.71-12.41-6.27-21.5q7.09-2.8 14.11-6.27z"/>
			<path id="path5369" class="s0" d="m1505.5 395.78v31.5c0 11.63 9.37 21 21 21h147c11.63 0 21-9.37 21-21v-31.5z"/>
			<g id="text5373">
				<path id="path4608" class="s2" d="m1528.43 409.42q4.22 0 6.52 2.02 2.34 2.01 2.34 5.69 0 3.84-2.34 5.99-2.3 2.11-6.52 2.11h-4.9v6.59h-4.29v-22.4zm-0.22 12.03q2.43 0 3.71-1.05 1.31-1.06 1.31-3.14 0-2.05-1.31-3.07-1.28-1.03-3.71-1.03h-4.67v8.29z"/>
				<path id="path4610" class="s2" d="m1552.88 431.82l-3.87-6.62q-0.25 0.03-0.8 0.03h-5.05v6.59h-4.29v-22.4h9.34q4.35 0 6.72 2.02 2.37 2.01 2.37 5.69 0 2.63-1.15 4.48-1.12 1.86-3.3 2.79l4.93 7.42zm-9.73-10.37h5.06q2.43 0 3.71-1.05 1.28-1.06 1.28-3.14 0-2.05-1.28-3.07-1.28-1.03-3.71-1.03h-5.06z"/>
				<path id="path4612" class="s2" d="m1570.17 409.13q3.33 0 6.05 1.51 2.75 1.5 4.32 4.12 1.56 2.63 1.56 5.83 0 3.2-1.56 5.85-1.57 2.63-4.32 4.16-2.72 1.54-6.05 1.54-3.33 0-6.08-1.54-2.72-1.53-4.29-4.16-1.57-2.65-1.57-5.85 0-3.2 1.57-5.83 1.57-2.62 4.29-4.12 2.75-1.51 6.08-1.51zm0.06 3.84q-2.05 0-3.81 1.03-1.76 0.99-2.78 2.75-1.02 1.73-1.02 3.84 0 2.11 1.02 3.87 1.06 1.76 2.78 2.78 1.76 1.03 3.81 1.03 2.02 0 3.75-1.03 1.72-1.02 2.72-2.78 1.02-1.76 1.02-3.87 0-2.11-1.02-3.84-1-1.76-2.72-2.75-1.73-1.03-3.75-1.03z"/>
				<path id="path4614" class="s2" d="m1598.32 420.68h3.74v8.52q-1.76 1.31-4.16 2.14-2.4 0.8-4.7 0.8-3.3 0-6.02-1.54-2.69-1.53-4.25-4.16-1.57-2.65-1.57-5.85 0-3.2 1.6-5.79 1.6-2.63 4.35-4.13 2.78-1.54 6.14-1.54 2.4 0 4.74 0.87 2.34 0.86 4.03 2.36l-2.43 3.17q-1.28-1.21-2.98-1.89-1.66-0.67-3.36-0.67-2.11 0-3.9 1.03-1.76 0.99-2.78 2.75-1.03 1.76-1.03 3.84 0 2.11 1.03 3.87 1.05 1.76 2.81 2.78 1.76 1.03 3.91 1.03 1.15 0 2.4-0.35 1.28-0.39 2.43-1.06z"/>
				<path id="path4616" class="s2" d="m1619.01 431.82l-3.87-6.62q-0.26 0.03-0.8 0.03h-5.06v6.59h-4.29v-22.4h9.35q4.35 0 6.72 2.02 2.36 2.01 2.36 5.69 0 2.63-1.15 4.48-1.12 1.86-3.29 2.79l4.92 7.42zm-9.72-10.37h5.05q2.43 0 3.71-1.05 1.28-1.06 1.28-3.14 0-2.05-1.28-3.07-1.28-1.03-3.71-1.03h-5.05z"/>
				<path id="path4618" class="s2" d="m1626.12 409.42h16.41v3.74h-12.12v5.54h10.88v3.74h-10.88v5.64h12.51v3.74h-16.8z"/>
				<path id="path4620" class="s2" d="m1659.32 415.18q-1.73-1.06-3.55-1.63-1.79-0.58-3.17-0.58-1.53 0-2.43 0.58-0.9 0.57-0.9 1.6 0 0.93 0.61 1.57 0.64 0.6 1.57 1.02 0.96 0.38 2.59 0.86 2.27 0.68 3.71 1.35 1.48 0.67 2.5 1.98 1.02 1.31 1.02 3.46 0 2.05-1.12 3.58-1.08 1.51-3.04 2.31-1.92 0.8-4.41 0.8-2.63 0-5.12-0.96-2.5-1-4.35-2.63l1.79-3.65q1.69 1.57 3.81 2.47 2.11 0.89 3.93 0.89 1.79 0 2.82-0.67 1.02-0.7 1.02-1.89 0-0.96-0.64-1.56-0.61-0.64-1.57-1.03-0.96-0.38-2.62-0.86-2.27-0.67-3.71-1.31-1.44-0.64-2.47-1.92-1.02-1.32-1.02-3.43 0-1.95 1.02-3.39 1.06-1.47 2.95-2.27 1.92-0.8 4.41-0.8 2.18 0 4.29 0.64 2.15 0.64 3.81 1.73z"/>
				<path id="path4622" class="s2" d="m1677.45 415.18q-1.73-1.06-3.55-1.63-1.8-0.58-3.17-0.58-1.54 0-2.43 0.58-0.9 0.57-0.9 1.6 0 0.93 0.61 1.57 0.64 0.6 1.56 1.02 0.96 0.38 2.6 0.86 2.27 0.68 3.71 1.35 1.47 0.67 2.49 1.98 1.03 1.31 1.03 3.46 0 2.05-1.12 3.58-1.09 1.51-3.04 2.31-1.92 0.8-4.42 0.8-2.62 0-5.12-0.96-2.49-1-4.35-2.63l1.79-3.65q1.7 1.57 3.81 2.47 2.11 0.89 3.94 0.89 1.79 0 2.81-0.67 1.03-0.7 1.03-1.89 0-0.96-0.64-1.56-0.61-0.64-1.57-1.03-0.96-0.38-2.63-0.86-2.27-0.67-3.71-1.31-1.44-0.64-2.46-1.92-1.03-1.32-1.03-3.43 0-1.95 1.03-3.39 1.05-1.47 2.94-2.27 1.92-0.8 4.42-0.8 2.17 0 4.29 0.64 2.14 0.64 3.8 1.73z"/>
			</g>
		</g>
		<path id="tspan4625-0-6" class="s2" aria-label="ORD"  d="m-995.1-285q-3.2 0-5.2 2.4-1.9 2.4-1.9 6.6 0 4.2 1.9 6.6 2 2.4 5.2 2.4 3.3 0 5.2-2.4 1.9-2.4 1.9-6.6 0-4.2-1.9-6.6-1.9-2.4-5.2-2.4zm0-2.4q4.7 0 7.4 3.1 2.8 3.1 2.8 8.3 0 5.2-2.8 8.3-2.7 3.1-7.4 3.1-4.6 0-7.4-3.1-2.8-3.1-2.8-8.3 0-5.2 2.8-8.3 2.8-3.1 7.4-3.1zm25.5 12.1q1 0.3 1.9 1.4 0.9 1 1.8 2.9l3 6h-3.2l-2.8-5.7q-1.1-2.2-2.1-2.9-1-0.7-2.8-0.7h-3.3v9.3h-2.9v-22h6.7q3.8 0 5.6 1.5 1.9 1.6 1.9 4.8 0 2.1-1 3.5-0.9 1.3-2.8 1.9zm-3.7-9.3h-3.8v7.8h3.8q2.2 0 3.2-1 1.2-1 1.2-2.9 0-1.9-1.2-2.9-1-1-3.2-1zm20.9 0h-3.7v17.1h3.7q4.5 0 6.6-2 2.2-2.1 2.2-6.5 0-4.5-2.2-6.5-2.1-2.1-6.6-2.1zm-6.6 19.6v-22h6.1q6.4 0 9.4 2.6 3 2.7 3 8.4 0 5.7-3 8.3-3 2.7-9.4 2.7z"/>
	</g>
</svg>